# Tiled2Unity generated file. Do not modify by hand.
# Wavefront file for 'Stage00_ending_mesh_0005.obj'

# Vertices (Count = 64)
v -48 -96 0
v -96 -96 0
v -96 -48 0
v -48 -48 0
v -96 -96 0
v -144 -96 0
v -144 -48 0
v -96 -48 0
v -720 -96 0
v -768 -96 0
v -768 -48 0
v -720 -48 0
v -768 -96 0
v -816 -96 0
v -816 -48 0
v -768 -48 0
v -48 -144 0
v -96 -144 0
v -96 -96 0
v -48 -96 0
v -96 -144 0
v -144 -144 0
v -144 -96 0
v -96 -96 0
v -720 -144 0
v -768 -144 0
v -768 -96 0
v -720 -96 0
v -768 -144 0
v -816 -144 0
v -816 -96 0
v -768 -96 0
v -48 -192 0
v -96 -192 0
v -96 -144 0
v -48 -144 0
v -96 -192 0
v -144 -192 0
v -144 -144 0
v -96 -144 0
v -720 -192 0
v -768 -192 0
v -768 -144 0
v -720 -144 0
v -768 -192 0
v -816 -192 0
v -816 -144 0
v -768 -144 0
v -48 -240 0
v -96 -240 0
v -96 -192 0
v -48 -192 0
v -96 -240 0
v -144 -240 0
v -144 -192 0
v -96 -192 0
v -720 -240 0
v -768 -240 0
v -768 -192 0
v -720 -192 0
v -768 -240 0
v -816 -240 0
v -816 -192 0
v -768 -192 0

# Texture cooridinates (Count = 15)
vt 0.75 0.75
vt 0.5 0.75
vt 0.5 1
vt 0.75 1
vt 0.25 0.75
vt 0.25 1
vt 0.75 0.5
vt 0.5 0.5
vt 0.25 0.5
vt 0.75 0.25
vt 0.5 0.25
vt 0.25 0.25
vt 0.75 0
vt 0.5 0
vt 0.25 0

# Normal
vn 0 0 -1

# Mesh description
g Stage00_ending_mesh_0005

# Faces
f 1/1/1 2/2/1 3/3/1 4/4/1
f 5/2/1 6/5/1 7/6/1 8/3/1
f 9/5/1 10/2/1 11/3/1 12/6/1
f 13/2/1 14/1/1 15/4/1 16/3/1
f 17/7/1 18/8/1 19/2/1 20/1/1
f 21/8/1 22/9/1 23/5/1 24/2/1
f 25/9/1 26/8/1 27/2/1 28/5/1
f 29/8/1 30/7/1 31/1/1 32/2/1
f 33/10/1 34/11/1 35/8/1 36/7/1
f 37/11/1 38/12/1 39/9/1 40/8/1
f 41/12/1 42/11/1 43/8/1 44/9/1
f 45/11/1 46/10/1 47/7/1 48/8/1
f 49/13/1 50/14/1 51/11/1 52/10/1
f 53/14/1 54/15/1 55/12/1 56/11/1
f 57/15/1 58/14/1 59/11/1 60/12/1
f 61/14/1 62/13/1 63/10/1 64/11/1

