# Tiled2Unity generated file. Do not modify by hand.
# Wavefront file for 'Stage00_ending_mesh_0009.obj'

# Vertices (Count = 32)
v -336 -288 0
v -384 -288 0
v -384 -240 0
v -336 -240 0
v -384 -288 0
v -432 -288 0
v -432 -240 0
v -384 -240 0
v -432 -288 0
v -480 -288 0
v -480 -240 0
v -432 -240 0
v -480 -288 0
v -528 -288 0
v -528 -240 0
v -480 -240 0
v -336 -336 0
v -384 -336 0
v -384 -288 0
v -336 -288 0
v -384 -336 0
v -432 -336 0
v -432 -288 0
v -384 -288 0
v -432 -336 0
v -480 -336 0
v -480 -288 0
v -432 -288 0
v -480 -336 0
v -528 -336 0
v -528 -288 0
v -480 -288 0

# Texture cooridinates (Count = 15)
vt 0 0.75
vt 0.25 0.75
vt 0.25 1
vt 0 1
vt 0.5 0.75
vt 0.5 1
vt 0.75 0.75
vt 0.75 1
vt 1 0.75
vt 1 1
vt 0 0.5
vt 0.25 0.5
vt 0.5 0.5
vt 0.75 0.5
vt 1 0.5

# Normal
vn 0 0 -1

# Mesh description
g Stage00_ending_mesh_0009

# Faces
f 1/1/1 2/2/1 3/3/1 4/4/1
f 5/2/1 6/5/1 7/6/1 8/3/1
f 9/5/1 10/7/1 11/8/1 12/6/1
f 13/7/1 14/9/1 15/10/1 16/8/1
f 17/11/1 18/12/1 19/2/1 20/1/1
f 21/12/1 22/13/1 23/5/1 24/2/1
f 25/13/1 26/14/1 27/7/1 28/5/1
f 29/14/1 30/15/1 31/9/1 32/7/1

