# Tiled2Unity generated file. Do not modify by hand.
# Wavefront file for 'Stage02_mesh_0002.obj'

# Vertices (Count = 592)
v -48 -240 0
v -96 -240 0
v -96 -192 0
v -48 -192 0
v -96 -240 0
v -144 -240 0
v -144 -192 0
v -96 -192 0
v -144 -240 0
v -192 -240 0
v -192 -192 0
v -144 -192 0
v -192 -240 0
v -240 -240 0
v -240 -192 0
v -192 -192 0
v -240 -240 0
v -288 -240 0
v -288 -192 0
v -240 -192 0
v -288 -240 0
v -336 -240 0
v -336 -192 0
v -288 -192 0
v -336 -240 0
v -384 -240 0
v -384 -192 0
v -336 -192 0
v -384 -240 0
v -432 -240 0
v -432 -192 0
v -384 -192 0
v -432 -240 0
v -480 -240 0
v -480 -192 0
v -432 -192 0
v -480 -240 0
v -528 -240 0
v -528 -192 0
v -480 -192 0
v -528 -240 0
v -576 -240 0
v -576 -192 0
v -528 -192 0
v -576 -240 0
v -624 -240 0
v -624 -192 0
v -576 -192 0
v -624 -240 0
v -672 -240 0
v -672 -192 0
v -624 -192 0
v -672 -240 0
v -720 -240 0
v -720 -192 0
v -672 -192 0
v -720 -240 0
v -768 -240 0
v -768 -192 0
v -720 -192 0
v -768 -240 0
v -816 -240 0
v -816 -192 0
v -768 -192 0
v -48 -288 0
v -96 -288 0
v -96 -240 0
v -48 -240 0
v -96 -288 0
v -144 -288 0
v -144 -240 0
v -96 -240 0
v -144 -288 0
v -192 -288 0
v -192 -240 0
v -144 -240 0
v -192 -288 0
v -240 -288 0
v -240 -240 0
v -192 -240 0
v -240 -288 0
v -288 -288 0
v -288 -240 0
v -240 -240 0
v -288 -288 0
v -336 -288 0
v -336 -240 0
v -288 -240 0
v -336 -288 0
v -384 -288 0
v -384 -240 0
v -336 -240 0
v -384 -288 0
v -432 -288 0
v -432 -240 0
v -384 -240 0
v -432 -288 0
v -480 -288 0
v -480 -240 0
v -432 -240 0
v -480 -288 0
v -528 -288 0
v -528 -240 0
v -480 -240 0
v -528 -288 0
v -576 -288 0
v -576 -240 0
v -528 -240 0
v -576 -288 0
v -624 -288 0
v -624 -240 0
v -576 -240 0
v -624 -288 0
v -672 -288 0
v -672 -240 0
v -624 -240 0
v -672 -288 0
v -720 -288 0
v -720 -240 0
v -672 -240 0
v -720 -288 0
v -768 -288 0
v -768 -240 0
v -720 -240 0
v -768 -288 0
v -816 -288 0
v -816 -240 0
v -768 -240 0
v -48 -336 0
v -96 -336 0
v -96 -288 0
v -48 -288 0
v -96 -336 0
v -144 -336 0
v -144 -288 0
v -96 -288 0
v -144 -336 0
v -192 -336 0
v -192 -288 0
v -144 -288 0
v -192 -336 0
v -240 -336 0
v -240 -288 0
v -192 -288 0
v -240 -336 0
v -288 -336 0
v -288 -288 0
v -240 -288 0
v -288 -336 0
v -336 -336 0
v -336 -288 0
v -288 -288 0
v -336 -336 0
v -384 -336 0
v -384 -288 0
v -336 -288 0
v -384 -336 0
v -432 -336 0
v -432 -288 0
v -384 -288 0
v -432 -336 0
v -480 -336 0
v -480 -288 0
v -432 -288 0
v -480 -336 0
v -528 -336 0
v -528 -288 0
v -480 -288 0
v -528 -336 0
v -576 -336 0
v -576 -288 0
v -528 -288 0
v -576 -336 0
v -624 -336 0
v -624 -288 0
v -576 -288 0
v -624 -336 0
v -672 -336 0
v -672 -288 0
v -624 -288 0
v -672 -336 0
v -720 -336 0
v -720 -288 0
v -672 -288 0
v -720 -336 0
v -768 -336 0
v -768 -288 0
v -720 -288 0
v -768 -336 0
v -816 -336 0
v -816 -288 0
v -768 -288 0
v -48 -384 0
v -96 -384 0
v -96 -336 0
v -48 -336 0
v -96 -384 0
v -144 -384 0
v -144 -336 0
v -96 -336 0
v -144 -384 0
v -192 -384 0
v -192 -336 0
v -144 -336 0
v -192 -384 0
v -240 -384 0
v -240 -336 0
v -192 -336 0
v -240 -384 0
v -288 -384 0
v -288 -336 0
v -240 -336 0
v -288 -384 0
v -336 -384 0
v -336 -336 0
v -288 -336 0
v -336 -384 0
v -384 -384 0
v -384 -336 0
v -336 -336 0
v -384 -384 0
v -432 -384 0
v -432 -336 0
v -384 -336 0
v -432 -384 0
v -480 -384 0
v -480 -336 0
v -432 -336 0
v -480 -384 0
v -528 -384 0
v -528 -336 0
v -480 -336 0
v -528 -384 0
v -576 -384 0
v -576 -336 0
v -528 -336 0
v -576 -384 0
v -624 -384 0
v -624 -336 0
v -576 -336 0
v -624 -384 0
v -672 -384 0
v -672 -336 0
v -624 -336 0
v -672 -384 0
v -720 -384 0
v -720 -336 0
v -672 -336 0
v -720 -384 0
v -768 -384 0
v -768 -336 0
v -720 -336 0
v -768 -384 0
v -816 -384 0
v -816 -336 0
v -768 -336 0
v -48 -432 0
v -96 -432 0
v -96 -384 0
v -48 -384 0
v -96 -432 0
v -144 -432 0
v -144 -384 0
v -96 -384 0
v -144 -432 0
v -192 -432 0
v -192 -384 0
v -144 -384 0
v -192 -432 0
v -240 -432 0
v -240 -384 0
v -192 -384 0
v -240 -432 0
v -288 -432 0
v -288 -384 0
v -240 -384 0
v -288 -432 0
v -336 -432 0
v -336 -384 0
v -288 -384 0
v -336 -432 0
v -384 -432 0
v -384 -384 0
v -336 -384 0
v -384 -432 0
v -432 -432 0
v -432 -384 0
v -384 -384 0
v -432 -432 0
v -480 -432 0
v -480 -384 0
v -432 -384 0
v -480 -432 0
v -528 -432 0
v -528 -384 0
v -480 -384 0
v -528 -432 0
v -576 -432 0
v -576 -384 0
v -528 -384 0
v -576 -432 0
v -624 -432 0
v -624 -384 0
v -576 -384 0
v -624 -432 0
v -672 -432 0
v -672 -384 0
v -624 -384 0
v -672 -432 0
v -720 -432 0
v -720 -384 0
v -672 -384 0
v -720 -432 0
v -768 -432 0
v -768 -384 0
v -720 -384 0
v -768 -432 0
v -816 -432 0
v -816 -384 0
v -768 -384 0
v 0 -480 0
v -48 -480 0
v -48 -432 0
v 0 -432 0
v -48 -480 0
v -96 -480 0
v -96 -432 0
v -48 -432 0
v -96 -480 0
v -144 -480 0
v -144 -432 0
v -96 -432 0
v -144 -480 0
v -192 -480 0
v -192 -432 0
v -144 -432 0
v -192 -480 0
v -240 -480 0
v -240 -432 0
v -192 -432 0
v -240 -480 0
v -288 -480 0
v -288 -432 0
v -240 -432 0
v -288 -480 0
v -336 -480 0
v -336 -432 0
v -288 -432 0
v -336 -480 0
v -384 -480 0
v -384 -432 0
v -336 -432 0
v -384 -480 0
v -432 -480 0
v -432 -432 0
v -384 -432 0
v -432 -480 0
v -480 -480 0
v -480 -432 0
v -432 -432 0
v -480 -480 0
v -528 -480 0
v -528 -432 0
v -480 -432 0
v -528 -480 0
v -576 -480 0
v -576 -432 0
v -528 -432 0
v -576 -480 0
v -624 -480 0
v -624 -432 0
v -576 -432 0
v -624 -480 0
v -672 -480 0
v -672 -432 0
v -624 -432 0
v -672 -480 0
v -720 -480 0
v -720 -432 0
v -672 -432 0
v -720 -480 0
v -768 -480 0
v -768 -432 0
v -720 -432 0
v -768 -480 0
v -816 -480 0
v -816 -432 0
v -768 -432 0
v 0 -528 0
v -48 -528 0
v -48 -480 0
v 0 -480 0
v -48 -528 0
v -96 -528 0
v -96 -480 0
v -48 -480 0
v -96 -528 0
v -144 -528 0
v -144 -480 0
v -96 -480 0
v -144 -528 0
v -192 -528 0
v -192 -480 0
v -144 -480 0
v -192 -528 0
v -240 -528 0
v -240 -480 0
v -192 -480 0
v -240 -528 0
v -288 -528 0
v -288 -480 0
v -240 -480 0
v -288 -528 0
v -336 -528 0
v -336 -480 0
v -288 -480 0
v -336 -528 0
v -384 -528 0
v -384 -480 0
v -336 -480 0
v -384 -528 0
v -432 -528 0
v -432 -480 0
v -384 -480 0
v -432 -528 0
v -480 -528 0
v -480 -480 0
v -432 -480 0
v -480 -528 0
v -528 -528 0
v -528 -480 0
v -480 -480 0
v -528 -528 0
v -576 -528 0
v -576 -480 0
v -528 -480 0
v -576 -528 0
v -624 -528 0
v -624 -480 0
v -576 -480 0
v -624 -528 0
v -672 -528 0
v -672 -480 0
v -624 -480 0
v -672 -528 0
v -720 -528 0
v -720 -480 0
v -672 -480 0
v -720 -528 0
v -768 -528 0
v -768 -480 0
v -720 -480 0
v -768 -528 0
v -816 -528 0
v -816 -480 0
v -768 -480 0
v 0 -576 0
v -48 -576 0
v -48 -528 0
v 0 -528 0
v -48 -576 0
v -96 -576 0
v -96 -528 0
v -48 -528 0
v -96 -576 0
v -144 -576 0
v -144 -528 0
v -96 -528 0
v -144 -576 0
v -192 -576 0
v -192 -528 0
v -144 -528 0
v -192 -576 0
v -240 -576 0
v -240 -528 0
v -192 -528 0
v -240 -576 0
v -288 -576 0
v -288 -528 0
v -240 -528 0
v -288 -576 0
v -336 -576 0
v -336 -528 0
v -288 -528 0
v -336 -576 0
v -384 -576 0
v -384 -528 0
v -336 -528 0
v -384 -576 0
v -432 -576 0
v -432 -528 0
v -384 -528 0
v -432 -576 0
v -480 -576 0
v -480 -528 0
v -432 -528 0
v -480 -576 0
v -528 -576 0
v -528 -528 0
v -480 -528 0
v -528 -576 0
v -576 -576 0
v -576 -528 0
v -528 -528 0
v -576 -576 0
v -624 -576 0
v -624 -528 0
v -576 -528 0
v -624 -576 0
v -672 -576 0
v -672 -528 0
v -624 -528 0
v -672 -576 0
v -720 -576 0
v -720 -528 0
v -672 -528 0
v -720 -576 0
v -768 -576 0
v -768 -528 0
v -720 -528 0
v -768 -576 0
v -816 -576 0
v -816 -528 0
v -768 -528 0
v 0 -624 0
v -48 -624 0
v -48 -576 0
v 0 -576 0
v -48 -624 0
v -96 -624 0
v -96 -576 0
v -48 -576 0
v -96 -624 0
v -144 -624 0
v -144 -576 0
v -96 -576 0
v -144 -624 0
v -192 -624 0
v -192 -576 0
v -144 -576 0
v -192 -624 0
v -240 -624 0
v -240 -576 0
v -192 -576 0
v -240 -624 0
v -288 -624 0
v -288 -576 0
v -240 -576 0
v -288 -624 0
v -336 -624 0
v -336 -576 0
v -288 -576 0
v -336 -624 0
v -384 -624 0
v -384 -576 0
v -336 -576 0
v -384 -624 0
v -432 -624 0
v -432 -576 0
v -384 -576 0
v -432 -624 0
v -480 -624 0
v -480 -576 0
v -432 -576 0
v -480 -624 0
v -528 -624 0
v -528 -576 0
v -480 -576 0
v -528 -624 0
v -576 -624 0
v -576 -576 0
v -528 -576 0
v -576 -624 0
v -624 -624 0
v -624 -576 0
v -576 -576 0
v -624 -624 0
v -672 -624 0
v -672 -576 0
v -624 -576 0
v -672 -624 0
v -720 -624 0
v -720 -576 0
v -672 -576 0
v -720 -624 0
v -768 -624 0
v -768 -576 0
v -720 -576 0
v -768 -624 0
v -816 -624 0
v -816 -576 0
v -768 -576 0

# Texture cooridinates (Count = 36)
vt 0 0.75
vt 0.125 0.75
vt 0.125 1
vt 0 1
vt 0.25 0.75
vt 0.25 1
vt 0.375 0.75
vt 0.375 1
vt 0.5 0.75
vt 0.5 1
vt 0.625 0.75
vt 0.625 1
vt 0.75 0.75
vt 0.75 1
vt 0.875 0.75
vt 0.875 1
vt 1 0.75
vt 1 1
vt 0 0.5
vt 0.125 0.5
vt 0 0.25
vt 0.125 0.25
vt 0.25 0.5
vt 0.375 0.5
vt 0.5 0.5
vt 0.625 0.5
vt 0.75 0.5
vt 0.875 0.5
vt 0 0
vt 0.125 0
vt 0.25 0.25
vt 0.375 0.25
vt 0.5 0.25
vt 0.625 0.25
vt 0.75 0.25
vt 0.875 0.25

# Normal
vn 0 0 -1

# Mesh description
g Stage02_mesh_0002

# Faces
f 1/1/1 2/2/1 3/3/1 4/4/1
f 5/1/1 6/2/1 7/3/1 8/4/1
f 9/1/1 10/2/1 11/3/1 12/4/1
f 13/1/1 14/2/1 15/3/1 16/4/1
f 17/1/1 18/2/1 19/3/1 20/4/1
f 21/2/1 22/5/1 23/6/1 24/3/1
f 25/5/1 26/7/1 27/8/1 28/6/1
f 29/7/1 30/9/1 31/10/1 32/8/1
f 33/9/1 34/11/1 35/12/1 36/10/1
f 37/11/1 38/13/1 39/14/1 40/12/1
f 41/13/1 42/15/1 43/16/1 44/14/1
f 45/15/1 46/17/1 47/18/1 48/16/1
f 49/1/1 50/2/1 51/3/1 52/4/1
f 53/1/1 54/2/1 55/3/1 56/4/1
f 57/1/1 58/2/1 59/3/1 60/4/1
f 61/1/1 62/2/1 63/3/1 64/4/1
f 65/1/1 66/2/1 67/3/1 68/4/1
f 69/19/1 70/20/1 71/2/1 72/1/1
f 73/19/1 74/20/1 75/2/1 76/1/1
f 77/19/1 78/20/1 79/2/1 80/1/1
f 81/1/1 82/2/1 83/3/1 84/4/1
f 85/1/1 86/2/1 87/3/1 88/4/1
f 89/1/1 90/2/1 91/3/1 92/4/1
f 93/1/1 94/2/1 95/3/1 96/4/1
f 97/1/1 98/2/1 99/3/1 100/4/1
f 101/1/1 102/2/1 103/3/1 104/4/1
f 105/1/1 106/2/1 107/3/1 108/4/1
f 109/1/1 110/2/1 111/3/1 112/4/1
f 113/19/1 114/20/1 115/2/1 116/1/1
f 117/19/1 118/20/1 119/2/1 120/1/1
f 121/19/1 122/20/1 123/2/1 124/1/1
f 125/19/1 126/20/1 127/2/1 128/1/1
f 129/1/1 130/2/1 131/3/1 132/4/1
f 133/1/1 134/2/1 135/3/1 136/4/1
f 137/1/1 138/2/1 139/3/1 140/4/1
f 141/21/1 142/22/1 143/20/1 144/19/1
f 145/19/1 146/20/1 147/2/1 148/1/1
f 149/19/1 150/20/1 151/2/1 152/1/1
f 153/19/1 154/20/1 155/2/1 156/1/1
f 157/19/1 158/20/1 159/2/1 160/1/1
f 161/19/1 162/20/1 163/2/1 164/1/1
f 165/19/1 166/20/1 167/2/1 168/1/1
f 169/19/1 170/20/1 171/2/1 172/1/1
f 173/19/1 174/20/1 175/2/1 176/1/1
f 177/21/1 178/22/1 179/20/1 180/19/1
f 181/21/1 182/22/1 183/20/1 184/19/1
f 185/21/1 186/22/1 187/20/1 188/19/1
f 189/21/1 190/22/1 191/20/1 192/19/1
f 193/1/1 194/2/1 195/3/1 196/4/1
f 197/1/1 198/2/1 199/3/1 200/4/1
f 201/19/1 202/20/1 203/2/1 204/1/1
f 205/1/1 206/2/1 207/3/1 208/4/1
f 209/21/1 210/22/1 211/20/1 212/19/1
f 213/20/1 214/23/1 215/5/1 216/2/1
f 217/23/1 218/24/1 219/7/1 220/5/1
f 221/24/1 222/25/1 223/9/1 224/7/1
f 225/25/1 226/26/1 227/11/1 228/9/1
f 229/26/1 230/27/1 231/13/1 232/11/1
f 233/27/1 234/28/1 235/15/1 236/13/1
f 237/21/1 238/22/1 239/20/1 240/19/1
f 241/29/1 242/30/1 243/22/1 244/21/1
f 245/29/1 246/30/1 247/22/1 248/21/1
f 249/29/1 250/30/1 251/22/1 252/21/1
f 253/29/1 254/30/1 255/22/1 256/21/1
f 257/1/1 258/2/1 259/3/1 260/4/1
f 261/19/1 262/20/1 263/2/1 264/1/1
f 265/21/1 266/22/1 267/20/1 268/19/1
f 269/19/1 270/20/1 271/2/1 272/1/1
f 273/29/1 274/30/1 275/22/1 276/21/1
f 277/22/1 278/31/1 279/23/1 280/20/1
f 281/31/1 282/32/1 283/24/1 284/23/1
f 285/32/1 286/33/1 287/25/1 288/24/1
f 289/33/1 290/34/1 291/26/1 292/25/1
f 293/34/1 294/35/1 295/27/1 296/26/1
f 297/35/1 298/36/1 299/28/1 300/27/1
f 301/29/1 302/30/1 303/22/1 304/21/1
f 305/1/1 306/2/1 307/3/1 308/4/1
f 309/1/1 310/2/1 311/3/1 312/4/1
f 313/1/1 314/2/1 315/3/1 316/4/1
f 317/1/1 318/2/1 319/3/1 320/4/1
f 321/1/1 322/2/1 323/3/1 324/4/1
f 325/1/1 326/2/1 327/3/1 328/4/1
f 329/21/1 330/22/1 331/20/1 332/19/1
f 333/29/1 334/30/1 335/22/1 336/21/1
f 337/21/1 338/22/1 339/20/1 340/19/1
f 341/1/1 342/2/1 343/3/1 344/4/1
f 345/1/1 346/2/1 347/3/1 348/4/1
f 349/1/1 350/2/1 351/3/1 352/4/1
f 353/1/1 354/2/1 355/3/1 356/4/1
f 357/1/1 358/2/1 359/3/1 360/4/1
f 361/1/1 362/2/1 363/3/1 364/4/1
f 365/1/1 366/2/1 367/3/1 368/4/1
f 369/1/1 370/2/1 371/3/1 372/4/1
f 373/1/1 374/2/1 375/3/1 376/4/1
f 377/1/1 378/2/1 379/3/1 380/4/1
f 381/1/1 382/2/1 383/3/1 384/4/1
f 385/1/1 386/2/1 387/3/1 388/4/1
f 389/19/1 390/20/1 391/2/1 392/1/1
f 393/1/1 394/2/1 395/3/1 396/4/1
f 397/29/1 398/30/1 399/22/1 400/21/1
f 401/29/1 402/30/1 403/22/1 404/21/1
f 405/29/1 406/30/1 407/22/1 408/21/1
f 409/19/1 410/20/1 411/2/1 412/1/1
f 413/19/1 414/20/1 415/2/1 416/1/1
f 417/19/1 418/20/1 419/2/1 420/1/1
f 421/19/1 422/20/1 423/2/1 424/1/1
f 425/19/1 426/20/1 427/2/1 428/1/1
f 429/19/1 430/20/1 431/2/1 432/1/1
f 433/19/1 434/20/1 435/2/1 436/1/1
f 437/19/1 438/20/1 439/2/1 440/1/1
f 441/19/1 442/20/1 443/2/1 444/1/1
f 445/19/1 446/20/1 447/2/1 448/1/1
f 449/19/1 450/20/1 451/2/1 452/1/1
f 453/19/1 454/20/1 455/2/1 456/1/1
f 457/21/1 458/22/1 459/20/1 460/19/1
f 461/19/1 462/20/1 463/2/1 464/1/1
f 465/19/1 466/20/1 467/2/1 468/1/1
f 469/19/1 470/20/1 471/2/1 472/1/1
f 473/29/1 474/30/1 475/22/1 476/21/1
f 477/21/1 478/22/1 479/20/1 480/19/1
f 481/21/1 482/22/1 483/20/1 484/19/1
f 485/21/1 486/22/1 487/20/1 488/19/1
f 489/21/1 490/22/1 491/20/1 492/19/1
f 493/21/1 494/22/1 495/20/1 496/19/1
f 497/21/1 498/22/1 499/20/1 500/19/1
f 501/21/1 502/22/1 503/20/1 504/19/1
f 505/21/1 506/22/1 507/20/1 508/19/1
f 509/21/1 510/22/1 511/20/1 512/19/1
f 513/21/1 514/22/1 515/20/1 516/19/1
f 517/21/1 518/22/1 519/20/1 520/19/1
f 521/21/1 522/22/1 523/20/1 524/19/1
f 525/29/1 526/30/1 527/22/1 528/21/1
f 529/21/1 530/22/1 531/20/1 532/19/1
f 533/21/1 534/22/1 535/20/1 536/19/1
f 537/21/1 538/22/1 539/20/1 540/19/1
f 541/29/1 542/30/1 543/22/1 544/21/1
f 545/29/1 546/30/1 547/22/1 548/21/1
f 549/29/1 550/30/1 551/22/1 552/21/1
f 553/29/1 554/30/1 555/22/1 556/21/1
f 557/29/1 558/30/1 559/22/1 560/21/1
f 561/29/1 562/30/1 563/22/1 564/21/1
f 565/29/1 566/30/1 567/22/1 568/21/1
f 569/29/1 570/30/1 571/22/1 572/21/1
f 573/29/1 574/30/1 575/22/1 576/21/1
f 577/29/1 578/30/1 579/22/1 580/21/1
f 581/29/1 582/30/1 583/22/1 584/21/1
f 585/29/1 586/30/1 587/22/1 588/21/1
f 589/29/1 590/30/1 591/22/1 592/21/1

