# Tiled2Unity generated file. Do not modify by hand.
# Wavefront file for 'Stage02_mesh_0004.obj'

# Vertices (Count = 64)
v -48 -192 0
v -96 -192 0
v -96 -144 0
v -48 -144 0
v -96 -192 0
v -144 -192 0
v -144 -144 0
v -96 -144 0
v -144 -192 0
v -192 -192 0
v -192 -144 0
v -144 -144 0
v -192 -192 0
v -240 -192 0
v -240 -144 0
v -192 -144 0
v -48 -240 0
v -96 -240 0
v -96 -192 0
v -48 -192 0
v -96 -240 0
v -144 -240 0
v -144 -192 0
v -96 -192 0
v -144 -240 0
v -192 -240 0
v -192 -192 0
v -144 -192 0
v -192 -240 0
v -240 -240 0
v -240 -192 0
v -192 -192 0
v -624 -288 0
v -672 -288 0
v -672 -240 0
v -624 -240 0
v -672 -288 0
v -720 -288 0
v -720 -240 0
v -672 -240 0
v -720 -288 0
v -768 -288 0
v -768 -240 0
v -720 -240 0
v -768 -288 0
v -816 -288 0
v -816 -240 0
v -768 -240 0
v -624 -336 0
v -672 -336 0
v -672 -288 0
v -624 -288 0
v -672 -336 0
v -720 -336 0
v -720 -288 0
v -672 -288 0
v -720 -336 0
v -768 -336 0
v -768 -288 0
v -720 -288 0
v -768 -336 0
v -816 -336 0
v -816 -288 0
v -768 -288 0

# Texture cooridinates (Count = 27)
vt 0 0.625
vt 0.125 0.625
vt 0.125 0.75
vt 0 0.75
vt 0.25 0.625
vt 0.25 0.75
vt 0.375 0.625
vt 0.375 0.75
vt 0.5 0.625
vt 0.5 0.75
vt 0 0.5
vt 0.125 0.5
vt 0.25 0.5
vt 0.375 0.5
vt 0.5 0.5
vt 0.625 0.625
vt 0.625 0.75
vt 0.75 0.625
vt 0.75 0.75
vt 0.875 0.625
vt 0.875 0.75
vt 1 0.625
vt 1 0.75
vt 0.625 0.5
vt 0.75 0.5
vt 0.875 0.5
vt 1 0.5

# Normal
vn 0 0 -1

# Mesh description
g Stage02_mesh_0004

# Faces
f 1/1/1 2/2/1 3/3/1 4/4/1
f 5/2/1 6/5/1 7/6/1 8/3/1
f 9/5/1 10/7/1 11/8/1 12/6/1
f 13/7/1 14/9/1 15/10/1 16/8/1
f 17/11/1 18/12/1 19/2/1 20/1/1
f 21/12/1 22/13/1 23/5/1 24/2/1
f 25/13/1 26/14/1 27/7/1 28/5/1
f 29/14/1 30/15/1 31/9/1 32/7/1
f 33/9/1 34/16/1 35/17/1 36/10/1
f 37/16/1 38/18/1 39/19/1 40/17/1
f 41/18/1 42/20/1 43/21/1 44/19/1
f 45/20/1 46/22/1 47/23/1 48/21/1
f 49/15/1 50/24/1 51/16/1 52/9/1
f 53/24/1 54/25/1 55/18/1 56/16/1
f 57/25/1 58/26/1 59/20/1 60/18/1
f 61/26/1 62/27/1 63/22/1 64/20/1

