# Tiled2Unity generated file. Do not modify by hand.
# Wavefront file for 'Stage02_mesh_0007.obj'

# Vertices (Count = 240)
v -48 -96 0
v -96 -96 0
v -96 -48 0
v -48 -48 0
v -96 -96 0
v -144 -96 0
v -144 -48 0
v -96 -48 0
v -144 -96 0
v -192 -96 0
v -192 -48 0
v -144 -48 0
v -192 -96 0
v -240 -96 0
v -240 -48 0
v -192 -48 0
v -48 -144 0
v -96 -144 0
v -96 -96 0
v -48 -96 0
v -96 -144 0
v -144 -144 0
v -144 -96 0
v -96 -96 0
v -144 -144 0
v -192 -144 0
v -192 -96 0
v -144 -96 0
v -192 -144 0
v -240 -144 0
v -240 -96 0
v -192 -96 0
v -48 -192 0
v -96 -192 0
v -96 -144 0
v -48 -144 0
v -96 -192 0
v -144 -192 0
v -144 -144 0
v -96 -144 0
v -144 -192 0
v -192 -192 0
v -192 -144 0
v -144 -144 0
v -192 -192 0
v -240 -192 0
v -240 -144 0
v -192 -144 0
v -624 -192 0
v -672 -192 0
v -672 -144 0
v -624 -144 0
v -672 -192 0
v -720 -192 0
v -720 -144 0
v -672 -144 0
v -720 -192 0
v -768 -192 0
v -768 -144 0
v -720 -144 0
v -768 -192 0
v -816 -192 0
v -816 -144 0
v -768 -144 0
v -624 -240 0
v -672 -240 0
v -672 -192 0
v -624 -192 0
v -672 -240 0
v -720 -240 0
v -720 -192 0
v -672 -192 0
v -720 -240 0
v -768 -240 0
v -768 -192 0
v -720 -192 0
v -768 -240 0
v -816 -240 0
v -816 -192 0
v -768 -192 0
v -624 -288 0
v -672 -288 0
v -672 -240 0
v -624 -240 0
v -672 -288 0
v -720 -288 0
v -720 -240 0
v -672 -240 0
v -720 -288 0
v -768 -288 0
v -768 -240 0
v -720 -240 0
v -768 -288 0
v -816 -288 0
v -816 -240 0
v -768 -240 0
v -384 -480 0
v -432 -480 0
v -432 -432 0
v -384 -432 0
v -432 -480 0
v -480 -480 0
v -480 -432 0
v -432 -432 0
v -480 -480 0
v -528 -480 0
v -528 -432 0
v -480 -432 0
v -528 -480 0
v -576 -480 0
v -576 -432 0
v -528 -432 0
v -576 -480 0
v -624 -480 0
v -624 -432 0
v -576 -432 0
v -624 -480 0
v -672 -480 0
v -672 -432 0
v -624 -432 0
v -672 -480 0
v -720 -480 0
v -720 -432 0
v -672 -432 0
v -720 -480 0
v -768 -480 0
v -768 -432 0
v -720 -432 0
v -768 -480 0
v -816 -480 0
v -816 -432 0
v -768 -432 0
v -384 -528 0
v -432 -528 0
v -432 -480 0
v -384 -480 0
v -432 -528 0
v -480 -528 0
v -480 -480 0
v -432 -480 0
v -480 -528 0
v -528 -528 0
v -528 -480 0
v -480 -480 0
v -528 -528 0
v -576 -528 0
v -576 -480 0
v -528 -480 0
v -576 -528 0
v -624 -528 0
v -624 -480 0
v -576 -480 0
v -624 -528 0
v -672 -528 0
v -672 -480 0
v -624 -480 0
v -672 -528 0
v -720 -528 0
v -720 -480 0
v -672 -480 0
v -720 -528 0
v -768 -528 0
v -768 -480 0
v -720 -480 0
v -768 -528 0
v -816 -528 0
v -816 -480 0
v -768 -480 0
v -384 -576 0
v -432 -576 0
v -432 -528 0
v -384 -528 0
v -432 -576 0
v -480 -576 0
v -480 -528 0
v -432 -528 0
v -480 -576 0
v -528 -576 0
v -528 -528 0
v -480 -528 0
v -528 -576 0
v -576 -576 0
v -576 -528 0
v -528 -528 0
v -576 -576 0
v -624 -576 0
v -624 -528 0
v -576 -528 0
v -624 -576 0
v -672 -576 0
v -672 -528 0
v -624 -528 0
v -672 -576 0
v -720 -576 0
v -720 -528 0
v -672 -528 0
v -720 -576 0
v -768 -576 0
v -768 -528 0
v -720 -528 0
v -768 -576 0
v -816 -576 0
v -816 -528 0
v -768 -528 0
v -384 -624 0
v -432 -624 0
v -432 -576 0
v -384 -576 0
v -432 -624 0
v -480 -624 0
v -480 -576 0
v -432 -576 0
v -480 -624 0
v -528 -624 0
v -528 -576 0
v -480 -576 0
v -528 -624 0
v -576 -624 0
v -576 -576 0
v -528 -576 0
v -576 -624 0
v -624 -624 0
v -624 -576 0
v -576 -576 0
v -624 -624 0
v -672 -624 0
v -672 -576 0
v -624 -576 0
v -672 -624 0
v -720 -624 0
v -720 -576 0
v -672 -576 0
v -720 -624 0
v -768 -624 0
v -768 -576 0
v -720 -576 0
v -768 -624 0
v -816 -624 0
v -816 -576 0
v -768 -576 0

# Texture cooridinates (Count = 72)
vt 0 0.875
vt 0.125 0.875
vt 0.125 1
vt 0 1
vt 0.25 0.875
vt 0.25 1
vt 0.375 0.875
vt 0.375 1
vt 0.5 0.875
vt 0.5 1
vt 0 0.75
vt 0.125 0.75
vt 0.25 0.75
vt 0.375 0.75
vt 0.5 0.75
vt 0.625 0.875
vt 0.625 1
vt 0.75 0.875
vt 0.75 1
vt 0.875 0.875
vt 0.875 1
vt 1 0.875
vt 1 1
vt 0.625 0.75
vt 0.75 0.75
vt 0.875 0.75
vt 1 0.75
vt 0 0.375
vt 0.125 0.375
vt 0.125 0.5
vt 0 0.5
vt 0.25 0.375
vt 0.25 0.5
vt 0.375 0.375
vt 0.375 0.5
vt 0.5 0.375
vt 0.5 0.5
vt 0.625 0.375
vt 0.625 0.5
vt 0.75 0.375
vt 0.75 0.5
vt 0.875 0.375
vt 0.875 0.5
vt 1 0.375
vt 1 0.5
vt 0 0.25
vt 0.125 0.25
vt 0.25 0.25
vt 0.375 0.25
vt 0.5 0.25
vt 0.625 0.25
vt 0.75 0.25
vt 0.875 0.25
vt 0 0.125
vt 0.125 0.125
vt 0.25 0.125
vt 0.375 0.125
vt 0.5 0.125
vt 0.625 0.125
vt 0.75 0.125
vt 0.875 0.125
vt 1 0.125
vt 1 0.25
vt 0 0
vt 0.125 0
vt 0.25 0
vt 0.375 0
vt 0.5 0
vt 0.625 0
vt 0.75 0
vt 0.875 0
vt 1 0

# Normal
vn 0 0 -1

# Mesh description
g Stage02_mesh_0007

# Faces
f 1/1/1 2/2/1 3/3/1 4/4/1
f 5/2/1 6/5/1 7/6/1 8/3/1
f 9/5/1 10/7/1 11/8/1 12/6/1
f 13/7/1 14/9/1 15/10/1 16/8/1
f 17/11/1 18/12/1 19/2/1 20/1/1
f 21/12/1 22/13/1 23/5/1 24/2/1
f 25/13/1 26/14/1 27/7/1 28/5/1
f 29/14/1 30/15/1 31/9/1 32/7/1
f 33/7/1 34/9/1 35/10/1 36/8/1
f 37/7/1 38/9/1 39/10/1 40/8/1
f 41/7/1 42/9/1 43/10/1 44/8/1
f 45/7/1 46/9/1 47/10/1 48/8/1
f 49/9/1 50/16/1 51/17/1 52/10/1
f 53/16/1 54/18/1 55/19/1 56/17/1
f 57/18/1 58/20/1 59/21/1 60/19/1
f 61/20/1 62/22/1 63/23/1 64/21/1
f 65/15/1 66/24/1 67/16/1 68/9/1
f 69/24/1 70/25/1 71/18/1 72/16/1
f 73/25/1 74/26/1 75/20/1 76/18/1
f 77/26/1 78/27/1 79/22/1 80/20/1
f 81/7/1 82/9/1 83/10/1 84/8/1
f 85/7/1 86/9/1 87/10/1 88/8/1
f 89/7/1 90/9/1 91/10/1 92/8/1
f 93/7/1 94/9/1 95/10/1 96/8/1
f 97/28/1 98/29/1 99/30/1 100/31/1
f 101/29/1 102/32/1 103/33/1 104/30/1
f 105/32/1 106/34/1 107/35/1 108/33/1
f 109/34/1 110/36/1 111/37/1 112/35/1
f 113/36/1 114/38/1 115/39/1 116/37/1
f 117/38/1 118/40/1 119/41/1 120/39/1
f 121/40/1 122/42/1 123/43/1 124/41/1
f 125/34/1 126/36/1 127/37/1 128/35/1
f 129/42/1 130/44/1 131/45/1 132/43/1
f 133/46/1 134/47/1 135/29/1 136/28/1
f 137/47/1 138/48/1 139/32/1 140/29/1
f 141/48/1 142/49/1 143/34/1 144/32/1
f 145/49/1 146/50/1 147/36/1 148/34/1
f 149/50/1 150/51/1 151/38/1 152/36/1
f 153/51/1 154/52/1 155/40/1 156/38/1
f 157/52/1 158/53/1 159/42/1 160/40/1
f 161/34/1 162/36/1 163/37/1 164/35/1
f 165/34/1 166/36/1 167/37/1 168/35/1
f 169/54/1 170/55/1 171/47/1 172/46/1
f 173/55/1 174/56/1 175/48/1 176/47/1
f 177/56/1 178/57/1 179/49/1 180/48/1
f 181/57/1 182/58/1 183/50/1 184/49/1
f 185/58/1 186/59/1 187/51/1 188/50/1
f 189/59/1 190/60/1 191/52/1 192/51/1
f 193/60/1 194/61/1 195/53/1 196/52/1
f 197/61/1 198/62/1 199/63/1 200/53/1
f 201/34/1 202/36/1 203/37/1 204/35/1
f 205/64/1 206/65/1 207/55/1 208/54/1
f 209/65/1 210/66/1 211/56/1 212/55/1
f 213/66/1 214/67/1 215/57/1 216/56/1
f 217/67/1 218/68/1 219/58/1 220/57/1
f 221/68/1 222/69/1 223/59/1 224/58/1
f 225/69/1 226/70/1 227/60/1 228/59/1
f 229/70/1 230/71/1 231/61/1 232/60/1
f 233/71/1 234/72/1 235/62/1 236/61/1
f 237/34/1 238/36/1 239/37/1 240/35/1

