# Tiled2Unity generated file. Do not modify by hand.
# Wavefront file for 'Stage02_mesh_0005.obj'

# Vertices (Count = 24)
v -48 -336 0
v -96 -336 0
v -96 -288 0
v -48 -288 0
v -96 -336 0
v -144 -336 0
v -144 -288 0
v -96 -288 0
v -144 -336 0
v -192 -336 0
v -192 -288 0
v -144 -288 0
v -48 -384 0
v -96 -384 0
v -96 -336 0
v -48 -336 0
v -96 -384 0
v -144 -384 0
v -144 -336 0
v -96 -336 0
v -144 -384 0
v -192 -384 0
v -192 -336 0
v -144 -336 0

# Texture cooridinates (Count = 12)
vt 0 0.08333331
vt 0.25 0.08333331
vt 0.25 0.1666667
vt 0 0.1666667
vt 0.5 0.08333331
vt 0.5 0.1666667
vt 0.75 0.08333331
vt 0.75 0.1666667
vt 0 0
vt 0.25 0
vt 0.5 0
vt 0.75 0

# Normal
vn 0 0 -1

# Mesh description
g Stage02_mesh_0005

# Faces
f 1/1/1 2/2/1 3/3/1 4/4/1
f 5/2/1 6/5/1 7/6/1 8/3/1
f 9/5/1 10/7/1 11/8/1 12/6/1
f 13/9/1 14/10/1 15/2/1 16/1/1
f 17/10/1 18/11/1 19/5/1 20/2/1
f 21/11/1 22/12/1 23/7/1 24/5/1

