# Tiled2Unity generated file. Do not modify by hand.
# Wavefront file for 'Stage00_mesh_0001.obj'

# Vertices (Count = 272)
v 0 -48 0
v -48 -48 0
v -48 0 0
v 0 0 0
v -48 -48 0
v -96 -48 0
v -96 0 0
v -48 0 0
v -96 -48 0
v -144 -48 0
v -144 0 0
v -96 0 0
v -144 -48 0
v -192 -48 0
v -192 0 0
v -144 0 0
v -192 -48 0
v -240 -48 0
v -240 0 0
v -192 0 0
v -240 -48 0
v -288 -48 0
v -288 0 0
v -240 0 0
v -288 -48 0
v -336 -48 0
v -336 0 0
v -288 0 0
v -336 -48 0
v -384 -48 0
v -384 0 0
v -336 0 0
v -384 -48 0
v -432 -48 0
v -432 0 0
v -384 0 0
v -432 -48 0
v -480 -48 0
v -480 0 0
v -432 0 0
v -480 -48 0
v -528 -48 0
v -528 0 0
v -480 0 0
v -528 -48 0
v -576 -48 0
v -576 0 0
v -528 0 0
v -576 -48 0
v -624 -48 0
v -624 0 0
v -576 0 0
v -624 -48 0
v -672 -48 0
v -672 0 0
v -624 0 0
v -672 -48 0
v -720 -48 0
v -720 0 0
v -672 0 0
v -720 -48 0
v -768 -48 0
v -768 0 0
v -720 0 0
v -768 -48 0
v -816 -48 0
v -816 0 0
v -768 0 0
v 0 -96 0
v -48 -96 0
v -48 -48 0
v 0 -48 0
v -48 -96 0
v -96 -96 0
v -96 -48 0
v -48 -48 0
v -96 -96 0
v -144 -96 0
v -144 -48 0
v -96 -48 0
v -144 -96 0
v -192 -96 0
v -192 -48 0
v -144 -48 0
v -192 -96 0
v -240 -96 0
v -240 -48 0
v -192 -48 0
v -240 -96 0
v -288 -96 0
v -288 -48 0
v -240 -48 0
v -288 -96 0
v -336 -96 0
v -336 -48 0
v -288 -48 0
v -336 -96 0
v -384 -96 0
v -384 -48 0
v -336 -48 0
v -384 -96 0
v -432 -96 0
v -432 -48 0
v -384 -48 0
v -432 -96 0
v -480 -96 0
v -480 -48 0
v -432 -48 0
v -480 -96 0
v -528 -96 0
v -528 -48 0
v -480 -48 0
v -528 -96 0
v -576 -96 0
v -576 -48 0
v -528 -48 0
v -576 -96 0
v -624 -96 0
v -624 -48 0
v -576 -48 0
v -624 -96 0
v -672 -96 0
v -672 -48 0
v -624 -48 0
v -672 -96 0
v -720 -96 0
v -720 -48 0
v -672 -48 0
v -720 -96 0
v -768 -96 0
v -768 -48 0
v -720 -48 0
v -768 -96 0
v -816 -96 0
v -816 -48 0
v -768 -48 0
v 0 -144 0
v -48 -144 0
v -48 -96 0
v 0 -96 0
v -48 -144 0
v -96 -144 0
v -96 -96 0
v -48 -96 0
v -96 -144 0
v -144 -144 0
v -144 -96 0
v -96 -96 0
v -144 -144 0
v -192 -144 0
v -192 -96 0
v -144 -96 0
v -192 -144 0
v -240 -144 0
v -240 -96 0
v -192 -96 0
v -240 -144 0
v -288 -144 0
v -288 -96 0
v -240 -96 0
v -288 -144 0
v -336 -144 0
v -336 -96 0
v -288 -96 0
v -336 -144 0
v -384 -144 0
v -384 -96 0
v -336 -96 0
v -384 -144 0
v -432 -144 0
v -432 -96 0
v -384 -96 0
v -432 -144 0
v -480 -144 0
v -480 -96 0
v -432 -96 0
v -480 -144 0
v -528 -144 0
v -528 -96 0
v -480 -96 0
v -528 -144 0
v -576 -144 0
v -576 -96 0
v -528 -96 0
v -576 -144 0
v -624 -144 0
v -624 -96 0
v -576 -96 0
v -624 -144 0
v -672 -144 0
v -672 -96 0
v -624 -96 0
v -672 -144 0
v -720 -144 0
v -720 -96 0
v -672 -96 0
v -720 -144 0
v -768 -144 0
v -768 -96 0
v -720 -96 0
v -768 -144 0
v -816 -144 0
v -816 -96 0
v -768 -96 0
v 0 -192 0
v -48 -192 0
v -48 -144 0
v 0 -144 0
v -48 -192 0
v -96 -192 0
v -96 -144 0
v -48 -144 0
v -96 -192 0
v -144 -192 0
v -144 -144 0
v -96 -144 0
v -144 -192 0
v -192 -192 0
v -192 -144 0
v -144 -144 0
v -192 -192 0
v -240 -192 0
v -240 -144 0
v -192 -144 0
v -240 -192 0
v -288 -192 0
v -288 -144 0
v -240 -144 0
v -288 -192 0
v -336 -192 0
v -336 -144 0
v -288 -144 0
v -336 -192 0
v -384 -192 0
v -384 -144 0
v -336 -144 0
v -384 -192 0
v -432 -192 0
v -432 -144 0
v -384 -144 0
v -432 -192 0
v -480 -192 0
v -480 -144 0
v -432 -144 0
v -480 -192 0
v -528 -192 0
v -528 -144 0
v -480 -144 0
v -528 -192 0
v -576 -192 0
v -576 -144 0
v -528 -144 0
v -576 -192 0
v -624 -192 0
v -624 -144 0
v -576 -144 0
v -624 -192 0
v -672 -192 0
v -672 -144 0
v -624 -144 0
v -672 -192 0
v -720 -192 0
v -720 -144 0
v -672 -144 0
v -720 -192 0
v -768 -192 0
v -768 -144 0
v -720 -144 0
v -768 -192 0
v -816 -192 0
v -816 -144 0
v -768 -144 0

# Texture cooridinates (Count = 45)
vt 0 0.75
vt 0.125 0.75
vt 0.125 1
vt 0 1
vt 0.25 0.75
vt 0.25 1
vt 0.375 0.75
vt 0.375 1
vt 0.5 0.75
vt 0.5 1
vt 0.625 0.75
vt 0.625 1
vt 0.75 0.75
vt 0.75 1
vt 0.875 0.75
vt 0.875 1
vt 1 0.75
vt 1 1
vt 0 0.5
vt 0.125 0.5
vt 0.25 0.5
vt 0.375 0.5
vt 0.5 0.5
vt 0.625 0.5
vt 0.75 0.5
vt 0.875 0.5
vt 1 0.5
vt 0 0.25
vt 0.125 0.25
vt 0.25 0.25
vt 0.375 0.25
vt 0.5 0.25
vt 0.625 0.25
vt 0.75 0.25
vt 0.875 0.25
vt 1 0.25
vt 0 0
vt 0.125 0
vt 0.25 0
vt 0.375 0
vt 0.5 0
vt 0.625 0
vt 0.75 0
vt 0.875 0
vt 1 0

# Normal
vn 0 0 -1

# Mesh description
g Stage00_mesh_0001

# Faces
f 1/1/1 2/2/1 3/3/1 4/4/1
f 5/2/1 6/5/1 7/6/1 8/3/1
f 9/5/1 10/7/1 11/8/1 12/6/1
f 13/7/1 14/9/1 15/10/1 16/8/1
f 17/9/1 18/11/1 19/12/1 20/10/1
f 21/11/1 22/13/1 23/14/1 24/12/1
f 25/13/1 26/15/1 27/16/1 28/14/1
f 29/15/1 30/17/1 31/18/1 32/16/1
f 33/1/1 34/2/1 35/3/1 36/4/1
f 37/2/1 38/5/1 39/6/1 40/3/1
f 41/5/1 42/7/1 43/8/1 44/6/1
f 45/7/1 46/9/1 47/10/1 48/8/1
f 49/9/1 50/11/1 51/12/1 52/10/1
f 53/11/1 54/13/1 55/14/1 56/12/1
f 57/13/1 58/15/1 59/16/1 60/14/1
f 61/15/1 62/17/1 63/18/1 64/16/1
f 65/1/1 66/2/1 67/3/1 68/4/1
f 69/19/1 70/20/1 71/2/1 72/1/1
f 73/20/1 74/21/1 75/5/1 76/2/1
f 77/21/1 78/22/1 79/7/1 80/5/1
f 81/22/1 82/23/1 83/9/1 84/7/1
f 85/23/1 86/24/1 87/11/1 88/9/1
f 89/24/1 90/25/1 91/13/1 92/11/1
f 93/25/1 94/26/1 95/15/1 96/13/1
f 97/26/1 98/27/1 99/17/1 100/15/1
f 101/19/1 102/20/1 103/2/1 104/1/1
f 105/20/1 106/21/1 107/5/1 108/2/1
f 109/21/1 110/22/1 111/7/1 112/5/1
f 113/22/1 114/23/1 115/9/1 116/7/1
f 117/23/1 118/24/1 119/11/1 120/9/1
f 121/24/1 122/25/1 123/13/1 124/11/1
f 125/25/1 126/26/1 127/15/1 128/13/1
f 129/26/1 130/27/1 131/17/1 132/15/1
f 133/19/1 134/20/1 135/2/1 136/1/1
f 137/28/1 138/29/1 139/20/1 140/19/1
f 141/29/1 142/30/1 143/21/1 144/20/1
f 145/30/1 146/31/1 147/22/1 148/21/1
f 149/31/1 150/32/1 151/23/1 152/22/1
f 153/32/1 154/33/1 155/24/1 156/23/1
f 157/33/1 158/34/1 159/25/1 160/24/1
f 161/34/1 162/35/1 163/26/1 164/25/1
f 165/35/1 166/36/1 167/27/1 168/26/1
f 169/28/1 170/29/1 171/20/1 172/19/1
f 173/29/1 174/30/1 175/21/1 176/20/1
f 177/30/1 178/31/1 179/22/1 180/21/1
f 181/31/1 182/32/1 183/23/1 184/22/1
f 185/32/1 186/33/1 187/24/1 188/23/1
f 189/33/1 190/34/1 191/25/1 192/24/1
f 193/34/1 194/35/1 195/26/1 196/25/1
f 197/35/1 198/36/1 199/27/1 200/26/1
f 201/28/1 202/29/1 203/20/1 204/19/1
f 205/37/1 206/38/1 207/29/1 208/28/1
f 209/38/1 210/39/1 211/30/1 212/29/1
f 213/39/1 214/40/1 215/31/1 216/30/1
f 217/40/1 218/41/1 219/32/1 220/31/1
f 221/41/1 222/42/1 223/33/1 224/32/1
f 225/42/1 226/43/1 227/34/1 228/33/1
f 229/43/1 230/44/1 231/35/1 232/34/1
f 233/44/1 234/45/1 235/36/1 236/35/1
f 237/37/1 238/38/1 239/29/1 240/28/1
f 241/38/1 242/39/1 243/30/1 244/29/1
f 245/39/1 246/40/1 247/31/1 248/30/1
f 249/40/1 250/41/1 251/32/1 252/31/1
f 253/41/1 254/42/1 255/33/1 256/32/1
f 257/42/1 258/43/1 259/34/1 260/33/1
f 261/43/1 262/44/1 263/35/1 264/34/1
f 265/44/1 266/45/1 267/36/1 268/35/1
f 269/37/1 270/38/1 271/29/1 272/28/1

