# Tiled2Unity generated file. Do not modify by hand.
# Wavefront file for 'Stage03_mesh_0007.obj'

# Vertices (Count = 48)
v -192 -144 0
v -240 -144 0
v -240 -96 0
v -192 -96 0
v -240 -144 0
v -288 -144 0
v -288 -96 0
v -240 -96 0
v -288 -144 0
v -336 -144 0
v -336 -96 0
v -288 -96 0
v -336 -144 0
v -384 -144 0
v -384 -96 0
v -336 -96 0
v -192 -192 0
v -240 -192 0
v -240 -144 0
v -192 -144 0
v -240 -192 0
v -288 -192 0
v -288 -144 0
v -240 -144 0
v -288 -192 0
v -336 -192 0
v -336 -144 0
v -288 -144 0
v -336 -192 0
v -384 -192 0
v -384 -144 0
v -336 -144 0
v -192 -240 0
v -240 -240 0
v -240 -192 0
v -192 -192 0
v -240 -240 0
v -288 -240 0
v -288 -192 0
v -240 -192 0
v -288 -240 0
v -336 -240 0
v -336 -192 0
v -288 -192 0
v -336 -240 0
v -384 -240 0
v -384 -192 0
v -336 -192 0

# Texture cooridinates (Count = 20)
vt 0 0.5
vt 0.25 0.5
vt 0.25 0.75
vt 0 0.75
vt 0.5 0.5
vt 0.5 0.75
vt 0.75 0.5
vt 0.75 0.75
vt 1 0.5
vt 1 0.75
vt 0 0.25
vt 0.25 0.25
vt 0.5 0.25
vt 0.75 0.25
vt 1 0.25
vt 0 0
vt 0.25 0
vt 0.5 0
vt 0.75 0
vt 1 0

# Normal
vn 0 0 -1

# Mesh description
g Stage03_mesh_0007

# Faces
f 1/1/1 2/2/1 3/3/1 4/4/1
f 5/2/1 6/5/1 7/6/1 8/3/1
f 9/5/1 10/7/1 11/8/1 12/6/1
f 13/7/1 14/9/1 15/10/1 16/8/1
f 17/11/1 18/12/1 19/2/1 20/1/1
f 21/12/1 22/13/1 23/5/1 24/2/1
f 25/13/1 26/14/1 27/7/1 28/5/1
f 29/14/1 30/15/1 31/9/1 32/7/1
f 33/16/1 34/17/1 35/12/1 36/11/1
f 37/17/1 38/18/1 39/13/1 40/12/1
f 41/18/1 42/19/1 43/14/1 44/13/1
f 45/19/1 46/20/1 47/15/1 48/14/1

