# Tiled2Unity generated file. Do not modify by hand.
# Wavefront file for 'Stage03_mesh_0009.obj'

# Vertices (Count = 56)
v -624 -576 0
v -672 -576 0
v -672 -528 0
v -624 -528 0
v -672 -576 0
v -720 -576 0
v -720 -528 0
v -672 -528 0
v -720 -576 0
v -768 -576 0
v -768 -528 0
v -720 -528 0
v -768 -576 0
v -816 -576 0
v -816 -528 0
v -768 -528 0
v -816 -576 0
v -864 -576 0
v -864 -528 0
v -816 -528 0
v -864 -576 0
v -912 -576 0
v -912 -528 0
v -864 -528 0
v -912 -576 0
v -960 -576 0
v -960 -528 0
v -912 -528 0
v -624 -624 0
v -672 -624 0
v -672 -576 0
v -624 -576 0
v -672 -624 0
v -720 -624 0
v -720 -576 0
v -672 -576 0
v -720 -624 0
v -768 -624 0
v -768 -576 0
v -720 -576 0
v -768 -624 0
v -816 -624 0
v -816 -576 0
v -768 -576 0
v -816 -624 0
v -864 -624 0
v -864 -576 0
v -816 -576 0
v -864 -624 0
v -912 -624 0
v -912 -576 0
v -864 -576 0
v -912 -624 0
v -960 -624 0
v -960 -576 0
v -912 -576 0

# Texture cooridinates (Count = 12)
vt 0.125 0.875
vt 0.25 0.875
vt 0.25 1
vt 0.125 1
vt 0.375 0.875
vt 0.375 1
vt 0.5 0.875
vt 0.5 1
vt 0.125 0.75
vt 0.25 0.75
vt 0.375 0.75
vt 0.5 0.75

# Normal
vn 0 0 -1

# Mesh description
g Stage03_mesh_0009

# Faces
f 1/1/1 2/2/1 3/3/1 4/4/1
f 5/1/1 6/2/1 7/3/1 8/4/1
f 9/1/1 10/2/1 11/3/1 12/4/1
f 13/1/1 14/2/1 15/3/1 16/4/1
f 17/1/1 18/2/1 19/3/1 20/4/1
f 21/2/1 22/5/1 23/6/1 24/3/1
f 25/5/1 26/7/1 27/8/1 28/6/1
f 29/9/1 30/10/1 31/2/1 32/1/1
f 33/9/1 34/10/1 35/2/1 36/1/1
f 37/9/1 38/10/1 39/2/1 40/1/1
f 41/9/1 42/10/1 43/2/1 44/1/1
f 45/9/1 46/10/1 47/2/1 48/1/1
f 49/10/1 50/11/1 51/5/1 52/2/1
f 53/11/1 54/12/1 55/7/1 56/5/1

