# Tiled2Unity generated file. Do not modify by hand.
# Wavefront file for 'Stage04_mesh_0004.obj'

# Vertices (Count = 16)
v -576 -240 0
v -624 -240 0
v -624 -192 0
v -576 -192 0
v -624 -240 0
v -672 -240 0
v -672 -192 0
v -624 -192 0
v -576 -288 0
v -624 -288 0
v -624 -240 0
v -576 -240 0
v -624 -288 0
v -672 -288 0
v -672 -240 0
v -624 -240 0

# Texture cooridinates (Count = 9)
vt 0.25 0.25
vt 0.5 0.25
vt 0.5 0.5
vt 0.25 0.5
vt 0.75 0.25
vt 0.75 0.5
vt 0.25 0
vt 0.5 0
vt 0.75 0

# Normal
vn 0 0 -1

# Mesh description
g Stage04_mesh_0004

# Faces
f 1/1/1 2/2/1 3/3/1 4/4/1
f 5/2/1 6/5/1 7/6/1 8/3/1
f 9/7/1 10/8/1 11/2/1 12/1/1
f 13/8/1 14/9/1 15/5/1 16/2/1

