# Tiled2Unity generated file. Do not modify by hand.
# Wavefront file for 'Stage05-1_mesh_0008.obj'

# Vertices (Count = 116)
v -144 -384 0
v -192 -384 0
v -192 -336 0
v -144 -336 0
v -192 -384 0
v -240 -384 0
v -240 -336 0
v -192 -336 0
v -144 -432 0
v -192 -432 0
v -192 -384 0
v -144 -384 0
v -192 -432 0
v -240 -432 0
v -240 -384 0
v -192 -384 0
v -144 -480 0
v -192 -480 0
v -192 -432 0
v -144 -432 0
v -192 -480 0
v -240 -480 0
v -240 -432 0
v -192 -432 0
v -336 -576 0
v -384 -576 0
v -384 -528 0
v -336 -528 0
v -384 -576 0
v -432 -576 0
v -432 -528 0
v -384 -528 0
v -336 -624 0
v -384 -624 0
v -384 -576 0
v -336 -576 0
v -384 -624 0
v -432 -624 0
v -432 -576 0
v -384 -576 0
v -1008 -624 0
v -1056 -624 0
v -1056 -576 0
v -1008 -576 0
v -1680 -624 0
v -1728 -624 0
v -1728 -576 0
v -1680 -576 0
v -1728 -624 0
v -1776 -624 0
v -1776 -576 0
v -1728 -576 0
v -336 -672 0
v -384 -672 0
v -384 -624 0
v -336 -624 0
v -384 -672 0
v -432 -672 0
v -432 -624 0
v -384 -624 0
v -1008 -672 0
v -1056 -672 0
v -1056 -624 0
v -1008 -624 0
v -1056 -672 0
v -1104 -672 0
v -1104 -624 0
v -1056 -624 0
v -1200 -672 0
v -1248 -672 0
v -1248 -624 0
v -1200 -624 0
v -1248 -672 0
v -1296 -672 0
v -1296 -624 0
v -1248 -624 0
v -1680 -672 0
v -1728 -672 0
v -1728 -624 0
v -1680 -624 0
v -1728 -672 0
v -1776 -672 0
v -1776 -624 0
v -1728 -624 0
v -1968 -672 0
v -2016 -672 0
v -2016 -624 0
v -1968 -624 0
v -2016 -672 0
v -2064 -672 0
v -2064 -624 0
v -2016 -624 0
v -1200 -720 0
v -1248 -720 0
v -1248 -672 0
v -1200 -672 0
v -1248 -720 0
v -1296 -720 0
v -1296 -672 0
v -1248 -672 0
v -1680 -720 0
v -1728 -720 0
v -1728 -672 0
v -1680 -672 0
v -1728 -720 0
v -1776 -720 0
v -1776 -672 0
v -1728 -672 0
v -1968 -720 0
v -2016 -720 0
v -2016 -672 0
v -1968 -672 0
v -2016 -720 0
v -2064 -720 0
v -2064 -672 0
v -2016 -672 0

# Texture cooridinates (Count = 18)
vt 0.5 0.75
vt 0.75 0.75
vt 0.75 1
vt 0.5 1
vt 1 0.75
vt 1 1
vt 0.5 0.5
vt 0.75 0.5
vt 1 0.5
vt 0.5 0.25
vt 0.75 0.25
vt 1 0.25
vt 0 0.75
vt 0.25 0.75
vt 0.25 1
vt 0 1
vt 0 0.5
vt 0.25 0.5

# Normal
vn 0 0 -1

# Mesh description
g Stage05-1_mesh_0008

# Faces
f 1/1/1 2/2/1 3/3/1 4/4/1
f 5/2/1 6/5/1 7/6/1 8/3/1
f 9/7/1 10/8/1 11/2/1 12/1/1
f 13/8/1 14/9/1 15/5/1 16/2/1
f 17/10/1 18/11/1 19/8/1 20/7/1
f 21/11/1 22/12/1 23/9/1 24/8/1
f 25/1/1 26/2/1 27/3/1 28/4/1
f 29/2/1 30/5/1 31/6/1 32/3/1
f 33/7/1 34/8/1 35/2/1 36/1/1
f 37/8/1 38/9/1 39/5/1 40/2/1
f 41/1/1 42/2/1 43/3/1 44/4/1
f 45/13/1 46/14/1 47/15/1 48/16/1
f 49/14/1 50/1/1 51/4/1 52/15/1
f 53/10/1 54/11/1 55/8/1 56/7/1
f 57/11/1 58/12/1 59/9/1 60/8/1
f 61/7/1 62/8/1 63/2/1 64/1/1
f 65/8/1 66/9/1 67/5/1 68/2/1
f 69/13/1 70/14/1 71/15/1 72/16/1
f 73/14/1 74/1/1 75/4/1 76/15/1
f 77/13/1 78/14/1 79/15/1 80/16/1
f 81/14/1 82/1/1 83/4/1 84/15/1
f 85/13/1 86/14/1 87/15/1 88/16/1
f 89/14/1 90/1/1 91/4/1 92/15/1
f 93/17/1 94/18/1 95/14/1 96/13/1
f 97/18/1 98/7/1 99/1/1 100/14/1
f 101/17/1 102/18/1 103/14/1 104/13/1
f 105/18/1 106/7/1 107/1/1 108/14/1
f 109/17/1 110/18/1 111/14/1 112/13/1
f 113/18/1 114/7/1 115/1/1 116/14/1

