# Tiled2Unity generated file. Do not modify by hand.
# Wavefront file for 'Stage05-1_mesh_0006.obj'

# Vertices (Count = 128)
v -144 -192 0
v -192 -192 0
v -192 -144 0
v -144 -144 0
v -192 -192 0
v -240 -192 0
v -240 -144 0
v -192 -144 0
v -240 -192 0
v -288 -192 0
v -288 -144 0
v -240 -144 0
v -144 -240 0
v -192 -240 0
v -192 -192 0
v -144 -192 0
v -192 -240 0
v -240 -240 0
v -240 -192 0
v -192 -192 0
v -240 -240 0
v -288 -240 0
v -288 -192 0
v -240 -192 0
v -144 -288 0
v -192 -288 0
v -192 -240 0
v -144 -240 0
v -192 -288 0
v -240 -288 0
v -240 -240 0
v -192 -240 0
v -336 -384 0
v -384 -384 0
v -384 -336 0
v -336 -336 0
v -384 -384 0
v -432 -384 0
v -432 -336 0
v -384 -336 0
v -1296 -384 0
v -1344 -384 0
v -1344 -336 0
v -1296 -336 0
v -1344 -384 0
v -1392 -384 0
v -1392 -336 0
v -1344 -336 0
v -1680 -384 0
v -1728 -384 0
v -1728 -336 0
v -1680 -336 0
v -1728 -384 0
v -1776 -384 0
v -1776 -336 0
v -1728 -336 0
v -1776 -576 0
v -1824 -576 0
v -1824 -528 0
v -1776 -528 0
v -1824 -576 0
v -1872 -576 0
v -1872 -528 0
v -1824 -528 0
v -1200 -624 0
v -1248 -624 0
v -1248 -576 0
v -1200 -576 0
v -1248 -624 0
v -1296 -624 0
v -1296 -576 0
v -1248 -576 0
v -144 -720 0
v -192 -720 0
v -192 -672 0
v -144 -672 0
v -192 -720 0
v -240 -720 0
v -240 -672 0
v -192 -672 0
v -336 -720 0
v -384 -720 0
v -384 -672 0
v -336 -672 0
v -384 -720 0
v -432 -720 0
v -432 -672 0
v -384 -672 0
v -816 -720 0
v -864 -720 0
v -864 -672 0
v -816 -672 0
v -864 -720 0
v -912 -720 0
v -912 -672 0
v -864 -672 0
v -1392 -720 0
v -1440 -720 0
v -1440 -672 0
v -1392 -672 0
v -1440 -720 0
v -1488 -720 0
v -1488 -672 0
v -1440 -672 0
v -1488 -720 0
v -1536 -720 0
v -1536 -672 0
v -1488 -672 0
v -1536 -720 0
v -1584 -720 0
v -1584 -672 0
v -1536 -672 0
v -144 -912 0
v -192 -912 0
v -192 -864 0
v -144 -864 0
v -192 -912 0
v -240 -912 0
v -240 -864 0
v -192 -864 0
v -2160 -912 0
v -2208 -912 0
v -2208 -864 0
v -2160 -864 0
v -2208 -912 0
v -2256 -912 0
v -2256 -864 0
v -2208 -864 0

# Texture cooridinates (Count = 14)
vt 0.25 0.75
vt 0.5 0.75
vt 0.5 1
vt 0.25 1
vt 0.75 0.75
vt 0.75 1
vt 1 0.75
vt 1 1
vt 0 0.5
vt 0.25 0.5
vt 0 0.75
vt 0.5 0.5
vt 0.75 0.5
vt 1 0.5

# Normal
vn 0 0 -1

# Mesh description
g Stage05-1_mesh_0006

# Faces
f 1/1/1 2/2/1 3/3/1 4/4/1
f 5/2/1 6/5/1 7/6/1 8/3/1
f 9/5/1 10/7/1 11/8/1 12/6/1
f 13/1/1 14/2/1 15/3/1 16/4/1
f 17/2/1 18/5/1 19/6/1 20/3/1
f 21/5/1 22/7/1 23/8/1 24/6/1
f 25/1/1 26/2/1 27/3/1 28/4/1
f 29/2/1 30/5/1 31/6/1 32/3/1
f 33/9/1 34/10/1 35/1/1 36/11/1
f 37/10/1 38/12/1 39/2/1 40/1/1
f 41/12/1 42/13/1 43/5/1 44/2/1
f 45/13/1 46/14/1 47/7/1 48/5/1
f 49/9/1 50/10/1 51/1/1 52/11/1
f 53/10/1 54/12/1 55/2/1 56/1/1
f 57/12/1 58/13/1 59/5/1 60/2/1
f 61/13/1 62/14/1 63/7/1 64/5/1
f 65/12/1 66/13/1 67/5/1 68/2/1
f 69/13/1 70/14/1 71/7/1 72/5/1
f 73/9/1 74/10/1 75/1/1 76/11/1
f 77/10/1 78/12/1 79/2/1 80/1/1
f 81/12/1 82/13/1 83/5/1 84/2/1
f 85/13/1 86/14/1 87/7/1 88/5/1
f 89/12/1 90/13/1 91/5/1 92/2/1
f 93/13/1 94/14/1 95/7/1 96/5/1
f 97/9/1 98/10/1 99/1/1 100/11/1
f 101/10/1 102/12/1 103/2/1 104/1/1
f 105/12/1 106/13/1 107/5/1 108/2/1
f 109/13/1 110/14/1 111/7/1 112/5/1
f 113/9/1 114/10/1 115/1/1 116/11/1
f 117/10/1 118/12/1 119/2/1 120/1/1
f 121/12/1 122/13/1 123/5/1 124/2/1
f 125/13/1 126/14/1 127/7/1 128/5/1

