# Tiled2Unity generated file. Do not modify by hand.
# Wavefront file for 'Stage05-1_mesh_0010.obj'

# Vertices (Count = 24)
v -2064 -240 0
v -2112 -240 0
v -2112 -192 0
v -2064 -192 0
v -2112 -240 0
v -2160 -240 0
v -2160 -192 0
v -2112 -192 0
v -2064 -288 0
v -2112 -288 0
v -2112 -240 0
v -2064 -240 0
v -2112 -288 0
v -2160 -288 0
v -2160 -240 0
v -2112 -240 0
v -2064 -336 0
v -2112 -336 0
v -2112 -288 0
v -2064 -288 0
v -2112 -336 0
v -2160 -336 0
v -2160 -288 0
v -2112 -288 0

# Texture cooridinates (Count = 12)
vt 0 0.5
vt 0.25 0.5
vt 0.25 0.75
vt 0 0.75
vt 0.5 0.5
vt 0.5 0.75
vt 0 0.25
vt 0.25 0.25
vt 0.5 0.25
vt 0 0
vt 0.25 0
vt 0.5 0

# Normal
vn 0 0 -1

# Mesh description
g Stage05-1_mesh_0010

# Faces
f 1/1/1 2/2/1 3/3/1 4/4/1
f 5/2/1 6/5/1 7/6/1 8/3/1
f 9/7/1 10/8/1 11/2/1 12/1/1
f 13/8/1 14/9/1 15/5/1 16/2/1
f 17/10/1 18/11/1 19/8/1 20/7/1
f 21/11/1 22/12/1 23/9/1 24/8/1

