# Tiled2Unity generated file. Do not modify by hand.
# Wavefront file for 'Stage05-1_mesh_0003.obj'

# Vertices (Count = 360)
v -144 -192 0
v -192 -192 0
v -192 -144 0
v -144 -144 0
v -192 -192 0
v -240 -192 0
v -240 -144 0
v -192 -144 0
v -2160 -192 0
v -2208 -192 0
v -2208 -144 0
v -2160 -144 0
v -2208 -192 0
v -2256 -192 0
v -2256 -144 0
v -2208 -144 0
v -144 -240 0
v -192 -240 0
v -192 -192 0
v -144 -192 0
v -192 -240 0
v -240 -240 0
v -240 -192 0
v -192 -192 0
v -2160 -240 0
v -2208 -240 0
v -2208 -192 0
v -2160 -192 0
v -2208 -240 0
v -2256 -240 0
v -2256 -192 0
v -2208 -192 0
v -144 -288 0
v -192 -288 0
v -192 -240 0
v -144 -240 0
v -192 -288 0
v -240 -288 0
v -240 -240 0
v -192 -240 0
v -2160 -288 0
v -2208 -288 0
v -2208 -240 0
v -2160 -240 0
v -2208 -288 0
v -2256 -288 0
v -2256 -240 0
v -2208 -240 0
v -336 -432 0
v -384 -432 0
v -384 -384 0
v -336 -384 0
v -384 -432 0
v -432 -432 0
v -432 -384 0
v -384 -384 0
v -1296 -432 0
v -1344 -432 0
v -1344 -384 0
v -1296 -384 0
v -1344 -432 0
v -1392 -432 0
v -1392 -384 0
v -1344 -384 0
v -1680 -432 0
v -1728 -432 0
v -1728 -384 0
v -1680 -384 0
v -1728 -432 0
v -1776 -432 0
v -1776 -384 0
v -1728 -384 0
v -336 -480 0
v -384 -480 0
v -384 -432 0
v -336 -432 0
v -384 -480 0
v -432 -480 0
v -432 -432 0
v -384 -432 0
v -1296 -480 0
v -1344 -480 0
v -1344 -432 0
v -1296 -432 0
v -1344 -480 0
v -1392 -480 0
v -1392 -432 0
v -1344 -432 0
v -1680 -480 0
v -1728 -480 0
v -1728 -432 0
v -1680 -432 0
v -1728 -480 0
v -1776 -480 0
v -1776 -432 0
v -1728 -432 0
v -1776 -624 0
v -1824 -624 0
v -1824 -576 0
v -1776 -576 0
v -1824 -624 0
v -1872 -624 0
v -1872 -576 0
v -1824 -576 0
v -1200 -672 0
v -1248 -672 0
v -1248 -624 0
v -1200 -624 0
v -1248 -672 0
v -1296 -672 0
v -1296 -624 0
v -1248 -624 0
v -1776 -672 0
v -1824 -672 0
v -1824 -624 0
v -1776 -624 0
v -1824 -672 0
v -1872 -672 0
v -1872 -624 0
v -1824 -624 0
v -528 -720 0
v -576 -720 0
v -576 -672 0
v -528 -672 0
v -576 -720 0
v -624 -720 0
v -624 -672 0
v -576 -672 0
v -1200 -720 0
v -1248 -720 0
v -1248 -672 0
v -1200 -672 0
v -1248 -720 0
v -1296 -720 0
v -1296 -672 0
v -1248 -672 0
v -144 -768 0
v -192 -768 0
v -192 -720 0
v -144 -720 0
v -192 -768 0
v -240 -768 0
v -240 -720 0
v -192 -720 0
v -336 -768 0
v -384 -768 0
v -384 -720 0
v -336 -720 0
v -384 -768 0
v -432 -768 0
v -432 -720 0
v -384 -720 0
v -528 -768 0
v -576 -768 0
v -576 -720 0
v -528 -720 0
v -576 -768 0
v -624 -768 0
v -624 -720 0
v -576 -720 0
v -816 -768 0
v -864 -768 0
v -864 -720 0
v -816 -720 0
v -864 -768 0
v -912 -768 0
v -912 -720 0
v -864 -720 0
v -1392 -768 0
v -1440 -768 0
v -1440 -720 0
v -1392 -720 0
v -1440 -768 0
v -1488 -768 0
v -1488 -720 0
v -1440 -720 0
v -1488 -768 0
v -1536 -768 0
v -1536 -720 0
v -1488 -720 0
v -1536 -768 0
v -1584 -768 0
v -1584 -720 0
v -1536 -720 0
v -144 -816 0
v -192 -816 0
v -192 -768 0
v -144 -768 0
v -192 -816 0
v -240 -816 0
v -240 -768 0
v -192 -768 0
v -336 -816 0
v -384 -816 0
v -384 -768 0
v -336 -768 0
v -384 -816 0
v -432 -816 0
v -432 -768 0
v -384 -768 0
v -432 -816 0
v -480 -816 0
v -480 -768 0
v -432 -768 0
v -480 -816 0
v -528 -816 0
v -528 -768 0
v -480 -768 0
v -528 -816 0
v -576 -816 0
v -576 -768 0
v -528 -768 0
v -576 -816 0
v -624 -816 0
v -624 -768 0
v -576 -768 0
v -816 -816 0
v -864 -816 0
v -864 -768 0
v -816 -768 0
v -864 -816 0
v -912 -816 0
v -912 -768 0
v -864 -768 0
v -912 -816 0
v -960 -816 0
v -960 -768 0
v -912 -768 0
v -960 -816 0
v -1008 -816 0
v -1008 -768 0
v -960 -768 0
v -1008 -816 0
v -1056 -816 0
v -1056 -768 0
v -1008 -768 0
v -1392 -816 0
v -1440 -816 0
v -1440 -768 0
v -1392 -768 0
v -1440 -816 0
v -1488 -816 0
v -1488 -768 0
v -1440 -768 0
v -1488 -816 0
v -1536 -816 0
v -1536 -768 0
v -1488 -768 0
v -1536 -816 0
v -1584 -816 0
v -1584 -768 0
v -1536 -768 0
v -144 -864 0
v -192 -864 0
v -192 -816 0
v -144 -816 0
v -192 -864 0
v -240 -864 0
v -240 -816 0
v -192 -816 0
v -240 -864 0
v -288 -864 0
v -288 -816 0
v -240 -816 0
v -288 -864 0
v -336 -864 0
v -336 -816 0
v -288 -816 0
v -336 -864 0
v -384 -864 0
v -384 -816 0
v -336 -816 0
v -384 -864 0
v -432 -864 0
v -432 -816 0
v -384 -816 0
v -432 -864 0
v -480 -864 0
v -480 -816 0
v -432 -816 0
v -480 -864 0
v -528 -864 0
v -528 -816 0
v -480 -816 0
v -528 -864 0
v -576 -864 0
v -576 -816 0
v -528 -816 0
v -576 -864 0
v -624 -864 0
v -624 -816 0
v -576 -816 0
v -624 -864 0
v -672 -864 0
v -672 -816 0
v -624 -816 0
v -672 -864 0
v -720 -864 0
v -720 -816 0
v -672 -816 0
v -720 -864 0
v -768 -864 0
v -768 -816 0
v -720 -816 0
v -768 -864 0
v -816 -864 0
v -816 -816 0
v -768 -816 0
v -816 -864 0
v -864 -864 0
v -864 -816 0
v -816 -816 0
v -864 -864 0
v -912 -864 0
v -912 -816 0
v -864 -816 0
v -912 -864 0
v -960 -864 0
v -960 -816 0
v -912 -816 0
v -960 -864 0
v -1008 -864 0
v -1008 -816 0
v -960 -816 0
v -1008 -864 0
v -1056 -864 0
v -1056 -816 0
v -1008 -816 0
v -144 -960 0
v -192 -960 0
v -192 -912 0
v -144 -912 0
v -192 -960 0
v -240 -960 0
v -240 -912 0
v -192 -912 0
v -2160 -960 0
v -2208 -960 0
v -2208 -912 0
v -2160 -912 0
v -2208 -960 0
v -2256 -960 0
v -2256 -912 0
v -2208 -912 0
v -144 -1008 0
v -192 -1008 0
v -192 -960 0
v -144 -960 0
v -192 -1008 0
v -240 -1008 0
v -240 -960 0
v -192 -960 0
v -2160 -1008 0
v -2208 -1008 0
v -2208 -960 0
v -2160 -960 0
v -2208 -1008 0
v -2256 -1008 0
v -2256 -960 0
v -2208 -960 0

# Texture cooridinates (Count = 22)
vt 0 0.5
vt 0.25 0.5
vt 0.25 0.75
vt 0 0.75
vt 0.5 0.5
vt 0.5 0.75
vt 0.75 0.5
vt 0.75 0.75
vt 1 0.5
vt 1 0.75
vt 0 0.25
vt 0.25 0.25
vt 0.5 0.25
vt 0.75 0.25
vt 1 0.25
vt 0 0
vt 0.25 0
vt 0.5 0
vt 0.75 0
vt 1 0
vt 1 1
vt 0.75 1

# Normal
vn 0 0 -1

# Mesh description
g Stage05-1_mesh_0003

# Faces
f 1/1/1 2/2/1 3/3/1 4/4/1
f 5/2/1 6/5/1 7/6/1 8/3/1
f 9/5/1 10/7/1 11/8/1 12/6/1
f 13/7/1 14/9/1 15/10/1 16/8/1
f 17/11/1 18/12/1 19/2/1 20/1/1
f 21/12/1 22/13/1 23/5/1 24/2/1
f 25/13/1 26/14/1 27/7/1 28/5/1
f 29/14/1 30/15/1 31/9/1 32/7/1
f 33/16/1 34/17/1 35/12/1 36/11/1
f 37/17/1 38/18/1 39/13/1 40/12/1
f 41/18/1 42/19/1 43/14/1 44/13/1
f 45/19/1 46/20/1 47/15/1 48/14/1
f 49/11/1 50/12/1 51/2/1 52/1/1
f 53/12/1 54/13/1 55/5/1 56/2/1
f 57/13/1 58/14/1 59/7/1 60/5/1
f 61/14/1 62/15/1 63/9/1 64/7/1
f 65/11/1 66/12/1 67/2/1 68/1/1
f 69/12/1 70/13/1 71/5/1 72/2/1
f 73/16/1 74/17/1 75/12/1 76/11/1
f 77/17/1 78/18/1 79/13/1 80/12/1
f 81/18/1 82/19/1 83/14/1 84/13/1
f 85/19/1 86/20/1 87/15/1 88/14/1
f 89/16/1 90/17/1 91/12/1 92/11/1
f 93/17/1 94/18/1 95/13/1 96/12/1
f 97/13/1 98/14/1 99/7/1 100/5/1
f 101/14/1 102/15/1 103/9/1 104/7/1
f 105/13/1 106/14/1 107/7/1 108/5/1
f 109/14/1 110/15/1 111/9/1 112/7/1
f 113/18/1 114/19/1 115/14/1 116/13/1
f 117/19/1 118/20/1 119/15/1 120/14/1
f 121/1/1 122/2/1 123/3/1 124/4/1
f 125/2/1 126/5/1 127/6/1 128/3/1
f 129/18/1 130/19/1 131/14/1 132/13/1
f 133/19/1 134/20/1 135/15/1 136/14/1
f 137/11/1 138/12/1 139/2/1 140/1/1
f 141/12/1 142/13/1 143/5/1 144/2/1
f 145/13/1 146/14/1 147/7/1 148/5/1
f 149/14/1 150/15/1 151/9/1 152/7/1
f 153/11/1 154/12/1 155/2/1 156/1/1
f 157/12/1 158/13/1 159/5/1 160/2/1
f 161/13/1 162/14/1 163/7/1 164/5/1
f 165/14/1 166/15/1 167/9/1 168/7/1
f 169/11/1 170/12/1 171/2/1 172/1/1
f 173/12/1 174/13/1 175/5/1 176/2/1
f 177/13/1 178/14/1 179/7/1 180/5/1
f 181/14/1 182/15/1 183/9/1 184/7/1
f 185/16/1 186/17/1 187/12/1 188/11/1
f 189/17/1 190/18/1 191/13/1 192/12/1
f 193/18/1 194/19/1 195/14/1 196/13/1
f 197/19/1 198/20/1 199/15/1 200/14/1
f 201/8/1 202/10/1 203/21/1 204/22/1
f 205/8/1 206/10/1 207/21/1 208/22/1
f 209/16/1 210/17/1 211/12/1 212/11/1
f 213/17/1 214/18/1 215/13/1 216/12/1
f 217/18/1 218/19/1 219/14/1 220/13/1
f 221/19/1 222/20/1 223/15/1 224/14/1
f 225/8/1 226/10/1 227/21/1 228/22/1
f 229/8/1 230/10/1 231/21/1 232/22/1
f 233/8/1 234/10/1 235/21/1 236/22/1
f 237/16/1 238/17/1 239/12/1 240/11/1
f 241/17/1 242/18/1 243/13/1 244/12/1
f 245/18/1 246/19/1 247/14/1 248/13/1
f 249/19/1 250/20/1 251/15/1 252/14/1
f 253/8/1 254/10/1 255/21/1 256/22/1
f 257/8/1 258/10/1 259/21/1 260/22/1
f 261/8/1 262/10/1 263/21/1 264/22/1
f 265/8/1 266/10/1 267/21/1 268/22/1
f 269/8/1 270/10/1 271/21/1 272/22/1
f 273/8/1 274/10/1 275/21/1 276/22/1
f 277/8/1 278/10/1 279/21/1 280/22/1
f 281/8/1 282/10/1 283/21/1 284/22/1
f 285/8/1 286/10/1 287/21/1 288/22/1
f 289/8/1 290/10/1 291/21/1 292/22/1
f 293/8/1 294/10/1 295/21/1 296/22/1
f 297/8/1 298/10/1 299/21/1 300/22/1
f 301/8/1 302/10/1 303/21/1 304/22/1
f 305/8/1 306/10/1 307/21/1 308/22/1
f 309/8/1 310/10/1 311/21/1 312/22/1
f 313/8/1 314/10/1 315/21/1 316/22/1
f 317/8/1 318/10/1 319/21/1 320/22/1
f 321/8/1 322/10/1 323/21/1 324/22/1
f 325/8/1 326/10/1 327/21/1 328/22/1
f 329/11/1 330/12/1 331/2/1 332/1/1
f 333/12/1 334/13/1 335/5/1 336/2/1
f 337/13/1 338/14/1 339/7/1 340/5/1
f 341/14/1 342/15/1 343/9/1 344/7/1
f 345/16/1 346/17/1 347/12/1 348/11/1
f 349/17/1 350/18/1 351/13/1 352/12/1
f 353/18/1 354/19/1 355/14/1 356/13/1
f 357/19/1 358/20/1 359/15/1 360/14/1

