# Tiled2Unity generated file. Do not modify by hand.
# Wavefront file for 'Stage06_mesh_0005.obj'

# Vertices (Count = 96)
v -192 -48 0
v -240 -48 0
v -240 0 0
v -192 0 0
v -240 -48 0
v -288 -48 0
v -288 0 0
v -240 0 0
v -288 -48 0
v -336 -48 0
v -336 0 0
v -288 0 0
v -336 -48 0
v -384 -48 0
v -384 0 0
v -336 0 0
v -384 -48 0
v -432 -48 0
v -432 0 0
v -384 0 0
v -432 -48 0
v -480 -48 0
v -480 0 0
v -432 0 0
v -192 -96 0
v -240 -96 0
v -240 -48 0
v -192 -48 0
v -240 -96 0
v -288 -96 0
v -288 -48 0
v -240 -48 0
v -288 -96 0
v -336 -96 0
v -336 -48 0
v -288 -48 0
v -336 -96 0
v -384 -96 0
v -384 -48 0
v -336 -48 0
v -384 -96 0
v -432 -96 0
v -432 -48 0
v -384 -48 0
v -432 -96 0
v -480 -96 0
v -480 -48 0
v -432 -48 0
v -192 -144 0
v -240 -144 0
v -240 -96 0
v -192 -96 0
v -240 -144 0
v -288 -144 0
v -288 -96 0
v -240 -96 0
v -288 -144 0
v -336 -144 0
v -336 -96 0
v -288 -96 0
v -336 -144 0
v -384 -144 0
v -384 -96 0
v -336 -96 0
v -384 -144 0
v -432 -144 0
v -432 -96 0
v -384 -96 0
v -432 -144 0
v -480 -144 0
v -480 -96 0
v -432 -96 0
v -192 -192 0
v -240 -192 0
v -240 -144 0
v -192 -144 0
v -240 -192 0
v -288 -192 0
v -288 -144 0
v -240 -144 0
v -288 -192 0
v -336 -192 0
v -336 -144 0
v -288 -144 0
v -336 -192 0
v -384 -192 0
v -384 -144 0
v -336 -144 0
v -384 -192 0
v -432 -192 0
v -432 -144 0
v -384 -144 0
v -432 -192 0
v -480 -192 0
v -480 -144 0
v -432 -144 0

# Texture cooridinates (Count = 25)
vt 0 0.875
vt 0.125 0.875
vt 0.125 1
vt 0 1
vt 0.25 0.875
vt 0.25 1
vt 0.375 0.875
vt 0.375 1
vt 0.5 0.875
vt 0.5 1
vt 0 0.75
vt 0.125 0.75
vt 0.25 0.75
vt 0.375 0.75
vt 0.5 0.75
vt 0 0.625
vt 0.125 0.625
vt 0.25 0.625
vt 0.375 0.625
vt 0.5 0.625
vt 0 0.5
vt 0.125 0.5
vt 0.25 0.5
vt 0.375 0.5
vt 0.5 0.5

# Normal
vn 0 0 -1

# Mesh description
g Stage06_mesh_0005

# Faces
f 1/1/1 2/2/1 3/3/1 4/4/1
f 5/2/1 6/5/1 7/6/1 8/3/1
f 9/2/1 10/5/1 11/6/1 12/3/1
f 13/5/1 14/7/1 15/8/1 16/6/1
f 17/5/1 18/7/1 19/8/1 20/6/1
f 21/7/1 22/9/1 23/10/1 24/8/1
f 25/11/1 26/12/1 27/2/1 28/1/1
f 29/12/1 30/13/1 31/5/1 32/2/1
f 33/12/1 34/13/1 35/5/1 36/2/1
f 37/13/1 38/14/1 39/7/1 40/5/1
f 41/13/1 42/14/1 43/7/1 44/5/1
f 45/14/1 46/15/1 47/9/1 48/7/1
f 49/16/1 50/17/1 51/12/1 52/11/1
f 53/17/1 54/18/1 55/13/1 56/12/1
f 57/17/1 58/18/1 59/13/1 60/12/1
f 61/18/1 62/19/1 63/14/1 64/13/1
f 65/18/1 66/19/1 67/14/1 68/13/1
f 69/19/1 70/20/1 71/15/1 72/14/1
f 73/21/1 74/22/1 75/17/1 76/16/1
f 77/22/1 78/23/1 79/18/1 80/17/1
f 81/22/1 82/23/1 83/18/1 84/17/1
f 85/23/1 86/24/1 87/19/1 88/18/1
f 89/23/1 90/24/1 91/19/1 92/18/1
f 93/24/1 94/25/1 95/20/1 96/19/1

