# Tiled2Unity generated file. Do not modify by hand.
# Wavefront file for 'Stage06_mesh_0011.obj'

# Vertices (Count = 144)
v -192 -48 0
v -240 -48 0
v -240 0 0
v -192 0 0
v -240 -48 0
v -288 -48 0
v -288 0 0
v -240 0 0
v -288 -48 0
v -336 -48 0
v -336 0 0
v -288 0 0
v -336 -48 0
v -384 -48 0
v -384 0 0
v -336 0 0
v -384 -48 0
v -432 -48 0
v -432 0 0
v -384 0 0
v -432 -48 0
v -480 -48 0
v -480 0 0
v -432 0 0
v -192 -96 0
v -240 -96 0
v -240 -48 0
v -192 -48 0
v -240 -96 0
v -288 -96 0
v -288 -48 0
v -240 -48 0
v -288 -96 0
v -336 -96 0
v -336 -48 0
v -288 -48 0
v -336 -96 0
v -384 -96 0
v -384 -48 0
v -336 -48 0
v -384 -96 0
v -432 -96 0
v -432 -48 0
v -384 -48 0
v -432 -96 0
v -480 -96 0
v -480 -48 0
v -432 -48 0
v -192 -144 0
v -240 -144 0
v -240 -96 0
v -192 -96 0
v -240 -144 0
v -288 -144 0
v -288 -96 0
v -240 -96 0
v -288 -144 0
v -336 -144 0
v -336 -96 0
v -288 -96 0
v -336 -144 0
v -384 -144 0
v -384 -96 0
v -336 -96 0
v -384 -144 0
v -432 -144 0
v -432 -96 0
v -384 -96 0
v -432 -144 0
v -480 -144 0
v -480 -96 0
v -432 -96 0
v -192 -192 0
v -240 -192 0
v -240 -144 0
v -192 -144 0
v -240 -192 0
v -288 -192 0
v -288 -144 0
v -240 -144 0
v -288 -192 0
v -336 -192 0
v -336 -144 0
v -288 -144 0
v -336 -192 0
v -384 -192 0
v -384 -144 0
v -336 -144 0
v -384 -192 0
v -432 -192 0
v -432 -144 0
v -384 -144 0
v -432 -192 0
v -480 -192 0
v -480 -144 0
v -432 -144 0
v -192 -240 0
v -240 -240 0
v -240 -192 0
v -192 -192 0
v -240 -240 0
v -288 -240 0
v -288 -192 0
v -240 -192 0
v -288 -240 0
v -336 -240 0
v -336 -192 0
v -288 -192 0
v -336 -240 0
v -384 -240 0
v -384 -192 0
v -336 -192 0
v -192 -288 0
v -240 -288 0
v -240 -240 0
v -192 -240 0
v -240 -288 0
v -288 -288 0
v -288 -240 0
v -240 -240 0
v -288 -288 0
v -336 -288 0
v -336 -240 0
v -288 -240 0
v -336 -288 0
v -384 -288 0
v -384 -240 0
v -336 -240 0
v -192 -336 0
v -240 -336 0
v -240 -288 0
v -192 -288 0
v -240 -336 0
v -288 -336 0
v -288 -288 0
v -240 -288 0
v -288 -336 0
v -336 -336 0
v -336 -288 0
v -288 -288 0
v -336 -336 0
v -384 -336 0
v -384 -288 0
v -336 -288 0

# Texture cooridinates (Count = 51)
vt 0.5 0.875
vt 0.625 0.875
vt 0.625 1
vt 0.5 1
vt 0.125 0.875
vt 0.25 0.875
vt 0.25 1
vt 0.125 1
vt 0.75 0.875
vt 0.75 1
vt 0.875 0.875
vt 0.875 1
vt 1 0.875
vt 1 1
vt 0.5 0.75
vt 0.625 0.75
vt 0.125 0.75
vt 0.25 0.75
vt 0.75 0.75
vt 0.875 0.75
vt 1 0.75
vt 0.5 0.625
vt 0.625 0.625
vt 0.125 0.625
vt 0.25 0.625
vt 0.75 0.625
vt 0.875 0.625
vt 1 0.625
vt 0.5 0.5
vt 0.625 0.5
vt 0.125 0.5
vt 0.25 0.5
vt 0.75 0.5
vt 0.875 0.5
vt 1 0.5
vt 0.375 0.375
vt 0.5 0.375
vt 0.375 0.5
vt 0.625 0.375
vt 0.75 0.375
vt 0.875 0.375
vt 0.375 0.25
vt 0.5 0.25
vt 0.625 0.25
vt 0.75 0.25
vt 0.875 0.25
vt 0.375 0.125
vt 0.5 0.125
vt 0.625 0.125
vt 0.75 0.125
vt 0.875 0.125

# Normal
vn 0 0 -1

# Mesh description
g Stage06_mesh_0011

# Faces
f 1/1/1 2/2/1 3/3/1 4/4/1
f 5/5/1 6/6/1 7/7/1 8/8/1
f 9/2/1 10/9/1 11/10/1 12/3/1
f 13/9/1 14/11/1 15/12/1 16/10/1
f 17/5/1 18/6/1 19/7/1 20/8/1
f 21/11/1 22/13/1 23/14/1 24/12/1
f 25/15/1 26/16/1 27/2/1 28/1/1
f 29/17/1 30/18/1 31/6/1 32/5/1
f 33/16/1 34/19/1 35/9/1 36/2/1
f 37/19/1 38/20/1 39/11/1 40/9/1
f 41/17/1 42/18/1 43/6/1 44/5/1
f 45/20/1 46/21/1 47/13/1 48/11/1
f 49/22/1 50/23/1 51/16/1 52/15/1
f 53/24/1 54/25/1 55/18/1 56/17/1
f 57/23/1 58/26/1 59/19/1 60/16/1
f 61/26/1 62/27/1 63/20/1 64/19/1
f 65/24/1 66/25/1 67/18/1 68/17/1
f 69/27/1 70/28/1 71/21/1 72/20/1
f 73/29/1 74/30/1 75/23/1 76/22/1
f 77/31/1 78/32/1 79/25/1 80/24/1
f 81/30/1 82/33/1 83/26/1 84/23/1
f 85/33/1 86/34/1 87/27/1 88/26/1
f 89/31/1 90/32/1 91/25/1 92/24/1
f 93/34/1 94/35/1 95/28/1 96/27/1
f 97/36/1 98/37/1 99/29/1 100/38/1
f 101/37/1 102/39/1 103/30/1 104/29/1
f 105/39/1 106/40/1 107/33/1 108/30/1
f 109/40/1 110/41/1 111/34/1 112/33/1
f 113/42/1 114/43/1 115/37/1 116/36/1
f 117/43/1 118/44/1 119/39/1 120/37/1
f 121/44/1 122/45/1 123/40/1 124/39/1
f 125/45/1 126/46/1 127/41/1 128/40/1
f 129/47/1 130/48/1 131/43/1 132/42/1
f 133/48/1 134/49/1 135/44/1 136/43/1
f 137/49/1 138/50/1 139/45/1 140/44/1
f 141/50/1 142/51/1 143/46/1 144/45/1

