# Tiled2Unity generated file. Do not modify by hand.
# Wavefront file for 'Stage06_mesh_0001.obj'

# Vertices (Count = 248)
v 0 -48 0
v -48 -48 0
v -48 0 0
v 0 0 0
v -48 -48 0
v -96 -48 0
v -96 0 0
v -48 0 0
v -96 -48 0
v -144 -48 0
v -144 0 0
v -96 0 0
v -144 -48 0
v -192 -48 0
v -192 0 0
v -144 0 0
v -192 -48 0
v -240 -48 0
v -240 0 0
v -192 0 0
v -240 -48 0
v -288 -48 0
v -288 0 0
v -240 0 0
v -288 -48 0
v -336 -48 0
v -336 0 0
v -288 0 0
v -336 -48 0
v -384 -48 0
v -384 0 0
v -336 0 0
v -384 -48 0
v -432 -48 0
v -432 0 0
v -384 0 0
v -432 -48 0
v -480 -48 0
v -480 0 0
v -432 0 0
v -480 -48 0
v -528 -48 0
v -528 0 0
v -480 0 0
v -528 -48 0
v -576 -48 0
v -576 0 0
v -528 0 0
v -576 -48 0
v -624 -48 0
v -624 0 0
v -576 0 0
v -624 -48 0
v -672 -48 0
v -672 0 0
v -624 0 0
v -672 -48 0
v -720 -48 0
v -720 0 0
v -672 0 0
v -720 -48 0
v -768 -48 0
v -768 0 0
v -720 0 0
v -768 -48 0
v -816 -48 0
v -816 0 0
v -768 0 0
v 0 -96 0
v -48 -96 0
v -48 -48 0
v 0 -48 0
v -144 -96 0
v -192 -96 0
v -192 -48 0
v -144 -48 0
v -192 -96 0
v -240 -96 0
v -240 -48 0
v -192 -48 0
v -240 -96 0
v -288 -96 0
v -288 -48 0
v -240 -48 0
v -288 -96 0
v -336 -96 0
v -336 -48 0
v -288 -48 0
v -336 -96 0
v -384 -96 0
v -384 -48 0
v -336 -48 0
v -384 -96 0
v -432 -96 0
v -432 -48 0
v -384 -48 0
v -432 -96 0
v -480 -96 0
v -480 -48 0
v -432 -48 0
v -480 -96 0
v -528 -96 0
v -528 -48 0
v -480 -48 0
v -528 -96 0
v -576 -96 0
v -576 -48 0
v -528 -48 0
v -576 -96 0
v -624 -96 0
v -624 -48 0
v -576 -48 0
v -624 -96 0
v -672 -96 0
v -672 -48 0
v -624 -48 0
v -672 -96 0
v -720 -96 0
v -720 -48 0
v -672 -48 0
v -720 -96 0
v -768 -96 0
v -768 -48 0
v -720 -48 0
v -768 -96 0
v -816 -96 0
v -816 -48 0
v -768 -48 0
v 0 -144 0
v -48 -144 0
v -48 -96 0
v 0 -96 0
v -144 -144 0
v -192 -144 0
v -192 -96 0
v -144 -96 0
v -192 -144 0
v -240 -144 0
v -240 -96 0
v -192 -96 0
v -240 -144 0
v -288 -144 0
v -288 -96 0
v -240 -96 0
v -288 -144 0
v -336 -144 0
v -336 -96 0
v -288 -96 0
v -336 -144 0
v -384 -144 0
v -384 -96 0
v -336 -96 0
v -384 -144 0
v -432 -144 0
v -432 -96 0
v -384 -96 0
v -432 -144 0
v -480 -144 0
v -480 -96 0
v -432 -96 0
v -480 -144 0
v -528 -144 0
v -528 -96 0
v -480 -96 0
v -528 -144 0
v -576 -144 0
v -576 -96 0
v -528 -96 0
v -576 -144 0
v -624 -144 0
v -624 -96 0
v -576 -96 0
v -624 -144 0
v -672 -144 0
v -672 -96 0
v -624 -96 0
v -672 -144 0
v -720 -144 0
v -720 -96 0
v -672 -96 0
v -720 -144 0
v -768 -144 0
v -768 -96 0
v -720 -96 0
v -768 -144 0
v -816 -144 0
v -816 -96 0
v -768 -96 0
v 0 -192 0
v -48 -192 0
v -48 -144 0
v 0 -144 0
v -144 -192 0
v -192 -192 0
v -192 -144 0
v -144 -144 0
v -192 -192 0
v -240 -192 0
v -240 -144 0
v -192 -144 0
v -240 -192 0
v -288 -192 0
v -288 -144 0
v -240 -144 0
v -288 -192 0
v -336 -192 0
v -336 -144 0
v -288 -144 0
v -336 -192 0
v -384 -192 0
v -384 -144 0
v -336 -144 0
v -384 -192 0
v -432 -192 0
v -432 -144 0
v -384 -144 0
v -432 -192 0
v -480 -192 0
v -480 -144 0
v -432 -144 0
v -480 -192 0
v -528 -192 0
v -528 -144 0
v -480 -144 0
v -528 -192 0
v -576 -192 0
v -576 -144 0
v -528 -144 0
v -576 -192 0
v -624 -192 0
v -624 -144 0
v -576 -144 0
v -624 -192 0
v -672 -192 0
v -672 -144 0
v -624 -144 0
v -672 -192 0
v -720 -192 0
v -720 -144 0
v -672 -144 0
v -720 -192 0
v -768 -192 0
v -768 -144 0
v -720 -144 0
v -768 -192 0
v -816 -192 0
v -816 -144 0
v -768 -144 0

# Texture cooridinates (Count = 45)
vt 0 0.75
vt 0.125 0.75
vt 0.125 1
vt 0 1
vt 0.25 0.75
vt 0.25 1
vt 0.375 0.75
vt 0.375 1
vt 0.5 0.75
vt 0.5 1
vt 0.625 0.75
vt 0.625 1
vt 0.75 0.75
vt 0.75 1
vt 0.875 0.75
vt 0.875 1
vt 1 0.75
vt 1 1
vt 0 0.5
vt 0.125 0.5
vt 0.375 0.5
vt 0.5 0.5
vt 0.625 0.5
vt 0.75 0.5
vt 0.875 0.5
vt 1 0.5
vt 0.25 0.5
vt 0 0.25
vt 0.125 0.25
vt 0.375 0.25
vt 0.5 0.25
vt 0.625 0.25
vt 0.75 0.25
vt 0.875 0.25
vt 1 0.25
vt 0.25 0.25
vt 0 0
vt 0.125 0
vt 0.375 0
vt 0.5 0
vt 0.625 0
vt 0.75 0
vt 0.875 0
vt 1 0
vt 0.25 0

# Normal
vn 0 0 -1

# Mesh description
g Stage06_mesh_0001

# Faces
f 1/1/1 2/2/1 3/3/1 4/4/1
f 5/2/1 6/5/1 7/6/1 8/3/1
f 9/5/1 10/7/1 11/8/1 12/6/1
f 13/7/1 14/9/1 15/10/1 16/8/1
f 17/9/1 18/11/1 19/12/1 20/10/1
f 21/11/1 22/13/1 23/14/1 24/12/1
f 25/13/1 26/15/1 27/16/1 28/14/1
f 29/15/1 30/17/1 31/18/1 32/16/1
f 33/1/1 34/2/1 35/3/1 36/4/1
f 37/2/1 38/5/1 39/6/1 40/3/1
f 41/5/1 42/7/1 43/8/1 44/6/1
f 45/7/1 46/9/1 47/10/1 48/8/1
f 49/9/1 50/11/1 51/12/1 52/10/1
f 53/11/1 54/13/1 55/14/1 56/12/1
f 57/13/1 58/15/1 59/16/1 60/14/1
f 61/15/1 62/17/1 63/18/1 64/16/1
f 65/9/1 66/11/1 67/12/1 68/10/1
f 69/19/1 70/20/1 71/2/1 72/1/1
f 73/21/1 74/22/1 75/9/1 76/7/1
f 77/22/1 78/23/1 79/11/1 80/9/1
f 81/23/1 82/24/1 83/13/1 84/11/1
f 85/24/1 86/25/1 87/15/1 88/13/1
f 89/25/1 90/26/1 91/17/1 92/15/1
f 93/19/1 94/20/1 95/2/1 96/1/1
f 97/20/1 98/27/1 99/5/1 100/2/1
f 101/27/1 102/21/1 103/7/1 104/5/1
f 105/21/1 106/22/1 107/9/1 108/7/1
f 109/22/1 110/23/1 111/11/1 112/9/1
f 113/23/1 114/24/1 115/13/1 116/11/1
f 117/24/1 118/25/1 119/15/1 120/13/1
f 121/25/1 122/26/1 123/17/1 124/15/1
f 125/22/1 126/23/1 127/11/1 128/9/1
f 129/28/1 130/29/1 131/20/1 132/19/1
f 133/30/1 134/31/1 135/22/1 136/21/1
f 137/31/1 138/32/1 139/23/1 140/22/1
f 141/32/1 142/33/1 143/24/1 144/23/1
f 145/33/1 146/34/1 147/25/1 148/24/1
f 149/34/1 150/35/1 151/26/1 152/25/1
f 153/28/1 154/29/1 155/20/1 156/19/1
f 157/29/1 158/36/1 159/27/1 160/20/1
f 161/36/1 162/30/1 163/21/1 164/27/1
f 165/30/1 166/31/1 167/22/1 168/21/1
f 169/31/1 170/32/1 171/23/1 172/22/1
f 173/32/1 174/33/1 175/24/1 176/23/1
f 177/33/1 178/34/1 179/25/1 180/24/1
f 181/34/1 182/35/1 183/26/1 184/25/1
f 185/31/1 186/32/1 187/23/1 188/22/1
f 189/37/1 190/38/1 191/29/1 192/28/1
f 193/39/1 194/40/1 195/31/1 196/30/1
f 197/40/1 198/41/1 199/32/1 200/31/1
f 201/41/1 202/42/1 203/33/1 204/32/1
f 205/42/1 206/43/1 207/34/1 208/33/1
f 209/43/1 210/44/1 211/35/1 212/34/1
f 213/37/1 214/38/1 215/29/1 216/28/1
f 217/38/1 218/45/1 219/36/1 220/29/1
f 221/45/1 222/39/1 223/30/1 224/36/1
f 225/39/1 226/40/1 227/31/1 228/30/1
f 229/40/1 230/41/1 231/32/1 232/31/1
f 233/41/1 234/42/1 235/33/1 236/32/1
f 237/42/1 238/43/1 239/34/1 240/33/1
f 241/43/1 242/44/1 243/35/1 244/34/1
f 245/40/1 246/41/1 247/32/1 248/31/1

