# Tiled2Unity generated file. Do not modify by hand.
# Wavefront file for 'Stage06_mesh_0016.obj'

# Vertices (Count = 60)
v -336 -384 0
v -384 -384 0
v -384 -336 0
v -336 -336 0
v -384 -384 0
v -432 -384 0
v -432 -336 0
v -384 -336 0
v -432 -384 0
v -480 -384 0
v -480 -336 0
v -432 -336 0
v -336 -432 0
v -384 -432 0
v -384 -384 0
v -336 -384 0
v -384 -432 0
v -432 -432 0
v -432 -384 0
v -384 -384 0
v -432 -432 0
v -480 -432 0
v -480 -384 0
v -432 -384 0
v -336 -480 0
v -384 -480 0
v -384 -432 0
v -336 -432 0
v -384 -480 0
v -432 -480 0
v -432 -432 0
v -384 -432 0
v -432 -480 0
v -480 -480 0
v -480 -432 0
v -432 -432 0
v -384 -528 0
v -432 -528 0
v -432 -480 0
v -384 -480 0
v -432 -528 0
v -480 -528 0
v -480 -480 0
v -432 -480 0
v -384 -576 0
v -432 -576 0
v -432 -528 0
v -384 -528 0
v -432 -576 0
v -480 -576 0
v -480 -528 0
v -432 -528 0
v -384 -624 0
v -432 -624 0
v -432 -576 0
v -384 -576 0
v -432 -624 0
v -480 -624 0
v -480 -576 0
v -432 -576 0

# Texture cooridinates (Count = 23)
vt 0.25 0.75
vt 0.5 0.75
vt 0.5 0.875
vt 0.25 0.875
vt 0 0.625
vt 0.25 0.625
vt 0 0.75
vt 0.5 0.625
vt 0 0.5
vt 0.25 0.5
vt 0.5 0.5
vt 0 0.375
vt 0.25 0.375
vt 0.5 0.375
vt 0 0.25
vt 0.25 0.25
vt 0.5 0.25
vt 0 0.125
vt 0.25 0.125
vt 0.5 0.125
vt 0 0
vt 0.25 0
vt 0.5 0

# Normal
vn 0 0 -1

# Mesh description
g Stage06_mesh_0016

# Faces
f 1/1/1 2/2/1 3/3/1 4/4/1
f 5/5/1 6/6/1 7/1/1 8/7/1
f 9/6/1 10/8/1 11/2/1 12/1/1
f 13/1/1 14/2/1 15/3/1 16/4/1
f 17/9/1 18/10/1 19/6/1 20/5/1
f 21/10/1 22/11/1 23/8/1 24/6/1
f 25/1/1 26/2/1 27/3/1 28/4/1
f 29/12/1 30/13/1 31/10/1 32/9/1
f 33/13/1 34/14/1 35/11/1 36/10/1
f 37/15/1 38/16/1 39/13/1 40/12/1
f 41/16/1 42/17/1 43/14/1 44/13/1
f 45/18/1 46/19/1 47/16/1 48/15/1
f 49/19/1 50/20/1 51/17/1 52/16/1
f 53/21/1 54/22/1 55/19/1 56/18/1
f 57/22/1 58/23/1 59/20/1 60/19/1

