# Tiled2Unity generated file. Do not modify by hand.
# Wavefront file for 'Stage06_mesh_0002.obj'

# Vertices (Count = 632)
v -48 -96 0
v -96 -96 0
v -96 -48 0
v -48 -48 0
v -96 -96 0
v -144 -96 0
v -144 -48 0
v -96 -48 0
v -48 -144 0
v -96 -144 0
v -96 -96 0
v -48 -96 0
v -96 -144 0
v -144 -144 0
v -144 -96 0
v -96 -96 0
v -48 -192 0
v -96 -192 0
v -96 -144 0
v -48 -144 0
v -96 -192 0
v -144 -192 0
v -144 -144 0
v -96 -144 0
v 0 -240 0
v -48 -240 0
v -48 -192 0
v 0 -192 0
v -48 -240 0
v -96 -240 0
v -96 -192 0
v -48 -192 0
v -96 -240 0
v -144 -240 0
v -144 -192 0
v -96 -192 0
v -144 -240 0
v -192 -240 0
v -192 -192 0
v -144 -192 0
v -192 -240 0
v -240 -240 0
v -240 -192 0
v -192 -192 0
v -240 -240 0
v -288 -240 0
v -288 -192 0
v -240 -192 0
v -288 -240 0
v -336 -240 0
v -336 -192 0
v -288 -192 0
v -336 -240 0
v -384 -240 0
v -384 -192 0
v -336 -192 0
v -384 -240 0
v -432 -240 0
v -432 -192 0
v -384 -192 0
v -432 -240 0
v -480 -240 0
v -480 -192 0
v -432 -192 0
v -480 -240 0
v -528 -240 0
v -528 -192 0
v -480 -192 0
v -528 -240 0
v -576 -240 0
v -576 -192 0
v -528 -192 0
v -576 -240 0
v -624 -240 0
v -624 -192 0
v -576 -192 0
v -624 -240 0
v -672 -240 0
v -672 -192 0
v -624 -192 0
v -672 -240 0
v -720 -240 0
v -720 -192 0
v -672 -192 0
v -720 -240 0
v -768 -240 0
v -768 -192 0
v -720 -192 0
v -768 -240 0
v -816 -240 0
v -816 -192 0
v -768 -192 0
v 0 -288 0
v -48 -288 0
v -48 -240 0
v 0 -240 0
v -48 -288 0
v -96 -288 0
v -96 -240 0
v -48 -240 0
v -96 -288 0
v -144 -288 0
v -144 -240 0
v -96 -240 0
v -144 -288 0
v -192 -288 0
v -192 -240 0
v -144 -240 0
v -192 -288 0
v -240 -288 0
v -240 -240 0
v -192 -240 0
v -240 -288 0
v -288 -288 0
v -288 -240 0
v -240 -240 0
v -288 -288 0
v -336 -288 0
v -336 -240 0
v -288 -240 0
v -336 -288 0
v -384 -288 0
v -384 -240 0
v -336 -240 0
v -384 -288 0
v -432 -288 0
v -432 -240 0
v -384 -240 0
v -432 -288 0
v -480 -288 0
v -480 -240 0
v -432 -240 0
v -480 -288 0
v -528 -288 0
v -528 -240 0
v -480 -240 0
v -528 -288 0
v -576 -288 0
v -576 -240 0
v -528 -240 0
v -576 -288 0
v -624 -288 0
v -624 -240 0
v -576 -240 0
v -624 -288 0
v -672 -288 0
v -672 -240 0
v -624 -240 0
v -672 -288 0
v -720 -288 0
v -720 -240 0
v -672 -240 0
v -720 -288 0
v -768 -288 0
v -768 -240 0
v -720 -240 0
v 0 -336 0
v -48 -336 0
v -48 -288 0
v 0 -288 0
v -48 -336 0
v -96 -336 0
v -96 -288 0
v -48 -288 0
v -96 -336 0
v -144 -336 0
v -144 -288 0
v -96 -288 0
v -144 -336 0
v -192 -336 0
v -192 -288 0
v -144 -288 0
v -192 -336 0
v -240 -336 0
v -240 -288 0
v -192 -288 0
v -240 -336 0
v -288 -336 0
v -288 -288 0
v -240 -288 0
v -288 -336 0
v -336 -336 0
v -336 -288 0
v -288 -288 0
v -336 -336 0
v -384 -336 0
v -384 -288 0
v -336 -288 0
v -384 -336 0
v -432 -336 0
v -432 -288 0
v -384 -288 0
v -432 -336 0
v -480 -336 0
v -480 -288 0
v -432 -288 0
v -480 -336 0
v -528 -336 0
v -528 -288 0
v -480 -288 0
v -528 -336 0
v -576 -336 0
v -576 -288 0
v -528 -288 0
v -576 -336 0
v -624 -336 0
v -624 -288 0
v -576 -288 0
v -624 -336 0
v -672 -336 0
v -672 -288 0
v -624 -288 0
v -672 -336 0
v -720 -336 0
v -720 -288 0
v -672 -288 0
v -720 -336 0
v -768 -336 0
v -768 -288 0
v -720 -288 0
v -768 -336 0
v -816 -336 0
v -816 -288 0
v -768 -288 0
v 0 -384 0
v -48 -384 0
v -48 -336 0
v 0 -336 0
v -48 -384 0
v -96 -384 0
v -96 -336 0
v -48 -336 0
v -96 -384 0
v -144 -384 0
v -144 -336 0
v -96 -336 0
v -144 -384 0
v -192 -384 0
v -192 -336 0
v -144 -336 0
v -192 -384 0
v -240 -384 0
v -240 -336 0
v -192 -336 0
v -240 -384 0
v -288 -384 0
v -288 -336 0
v -240 -336 0
v -288 -384 0
v -336 -384 0
v -336 -336 0
v -288 -336 0
v -336 -384 0
v -384 -384 0
v -384 -336 0
v -336 -336 0
v -384 -384 0
v -432 -384 0
v -432 -336 0
v -384 -336 0
v -432 -384 0
v -480 -384 0
v -480 -336 0
v -432 -336 0
v -480 -384 0
v -528 -384 0
v -528 -336 0
v -480 -336 0
v -528 -384 0
v -576 -384 0
v -576 -336 0
v -528 -336 0
v -576 -384 0
v -624 -384 0
v -624 -336 0
v -576 -336 0
v -624 -384 0
v -672 -384 0
v -672 -336 0
v -624 -336 0
v -672 -384 0
v -720 -384 0
v -720 -336 0
v -672 -336 0
v -720 -384 0
v -768 -384 0
v -768 -336 0
v -720 -336 0
v -768 -384 0
v -816 -384 0
v -816 -336 0
v -768 -336 0
v 0 -432 0
v -48 -432 0
v -48 -384 0
v 0 -384 0
v -48 -432 0
v -96 -432 0
v -96 -384 0
v -48 -384 0
v -96 -432 0
v -144 -432 0
v -144 -384 0
v -96 -384 0
v -144 -432 0
v -192 -432 0
v -192 -384 0
v -144 -384 0
v -192 -432 0
v -240 -432 0
v -240 -384 0
v -192 -384 0
v -240 -432 0
v -288 -432 0
v -288 -384 0
v -240 -384 0
v -288 -432 0
v -336 -432 0
v -336 -384 0
v -288 -384 0
v -336 -432 0
v -384 -432 0
v -384 -384 0
v -336 -384 0
v -384 -432 0
v -432 -432 0
v -432 -384 0
v -384 -384 0
v -432 -432 0
v -480 -432 0
v -480 -384 0
v -432 -384 0
v -480 -432 0
v -528 -432 0
v -528 -384 0
v -480 -384 0
v -528 -432 0
v -576 -432 0
v -576 -384 0
v -528 -384 0
v -576 -432 0
v -624 -432 0
v -624 -384 0
v -576 -384 0
v -624 -432 0
v -672 -432 0
v -672 -384 0
v -624 -384 0
v -672 -432 0
v -720 -432 0
v -720 -384 0
v -672 -384 0
v -720 -432 0
v -768 -432 0
v -768 -384 0
v -720 -384 0
v -768 -432 0
v -816 -432 0
v -816 -384 0
v -768 -384 0
v 0 -480 0
v -48 -480 0
v -48 -432 0
v 0 -432 0
v -48 -480 0
v -96 -480 0
v -96 -432 0
v -48 -432 0
v -96 -480 0
v -144 -480 0
v -144 -432 0
v -96 -432 0
v -144 -480 0
v -192 -480 0
v -192 -432 0
v -144 -432 0
v -192 -480 0
v -240 -480 0
v -240 -432 0
v -192 -432 0
v -240 -480 0
v -288 -480 0
v -288 -432 0
v -240 -432 0
v -288 -480 0
v -336 -480 0
v -336 -432 0
v -288 -432 0
v -336 -480 0
v -384 -480 0
v -384 -432 0
v -336 -432 0
v -384 -480 0
v -432 -480 0
v -432 -432 0
v -384 -432 0
v -432 -480 0
v -480 -480 0
v -480 -432 0
v -432 -432 0
v -480 -480 0
v -528 -480 0
v -528 -432 0
v -480 -432 0
v -528 -480 0
v -576 -480 0
v -576 -432 0
v -528 -432 0
v -576 -480 0
v -624 -480 0
v -624 -432 0
v -576 -432 0
v -624 -480 0
v -672 -480 0
v -672 -432 0
v -624 -432 0
v -672 -480 0
v -720 -480 0
v -720 -432 0
v -672 -432 0
v -720 -480 0
v -768 -480 0
v -768 -432 0
v -720 -432 0
v -768 -480 0
v -816 -480 0
v -816 -432 0
v -768 -432 0
v 0 -528 0
v -48 -528 0
v -48 -480 0
v 0 -480 0
v -48 -528 0
v -96 -528 0
v -96 -480 0
v -48 -480 0
v -96 -528 0
v -144 -528 0
v -144 -480 0
v -96 -480 0
v -144 -528 0
v -192 -528 0
v -192 -480 0
v -144 -480 0
v -192 -528 0
v -240 -528 0
v -240 -480 0
v -192 -480 0
v -240 -528 0
v -288 -528 0
v -288 -480 0
v -240 -480 0
v -288 -528 0
v -336 -528 0
v -336 -480 0
v -288 -480 0
v -336 -528 0
v -384 -528 0
v -384 -480 0
v -336 -480 0
v -384 -528 0
v -432 -528 0
v -432 -480 0
v -384 -480 0
v -432 -528 0
v -480 -528 0
v -480 -480 0
v -432 -480 0
v -480 -528 0
v -528 -528 0
v -528 -480 0
v -480 -480 0
v -528 -528 0
v -576 -528 0
v -576 -480 0
v -528 -480 0
v -576 -528 0
v -624 -528 0
v -624 -480 0
v -576 -480 0
v -624 -528 0
v -672 -528 0
v -672 -480 0
v -624 -480 0
v -672 -528 0
v -720 -528 0
v -720 -480 0
v -672 -480 0
v -720 -528 0
v -768 -528 0
v -768 -480 0
v -720 -480 0
v -768 -528 0
v -816 -528 0
v -816 -480 0
v -768 -480 0
v 0 -576 0
v -48 -576 0
v -48 -528 0
v 0 -528 0
v -48 -576 0
v -96 -576 0
v -96 -528 0
v -48 -528 0
v -96 -576 0
v -144 -576 0
v -144 -528 0
v -96 -528 0
v -144 -576 0
v -192 -576 0
v -192 -528 0
v -144 -528 0
v -192 -576 0
v -240 -576 0
v -240 -528 0
v -192 -528 0
v -240 -576 0
v -288 -576 0
v -288 -528 0
v -240 -528 0
v -288 -576 0
v -336 -576 0
v -336 -528 0
v -288 -528 0
v -336 -576 0
v -384 -576 0
v -384 -528 0
v -336 -528 0
v -384 -576 0
v -432 -576 0
v -432 -528 0
v -384 -528 0
v -432 -576 0
v -480 -576 0
v -480 -528 0
v -432 -528 0
v -480 -576 0
v -528 -576 0
v -528 -528 0
v -480 -528 0
v -528 -576 0
v -576 -576 0
v -576 -528 0
v -528 -528 0
v -576 -576 0
v -624 -576 0
v -624 -528 0
v -576 -528 0
v -624 -576 0
v -672 -576 0
v -672 -528 0
v -624 -528 0
v -672 -576 0
v -720 -576 0
v -720 -528 0
v -672 -528 0
v -720 -576 0
v -768 -576 0
v -768 -528 0
v -720 -528 0
v -768 -576 0
v -816 -576 0
v -816 -528 0
v -768 -528 0
v 0 -624 0
v -48 -624 0
v -48 -576 0
v 0 -576 0
v -48 -624 0
v -96 -624 0
v -96 -576 0
v -48 -576 0
v -96 -624 0
v -144 -624 0
v -144 -576 0
v -96 -576 0
v -144 -624 0
v -192 -624 0
v -192 -576 0
v -144 -576 0
v -192 -624 0
v -240 -624 0
v -240 -576 0
v -192 -576 0
v -240 -624 0
v -288 -624 0
v -288 -576 0
v -240 -576 0
v -288 -624 0
v -336 -624 0
v -336 -576 0
v -288 -576 0
v -336 -624 0
v -384 -624 0
v -384 -576 0
v -336 -576 0
v -384 -624 0
v -432 -624 0
v -432 -576 0
v -384 -576 0
v -432 -624 0
v -480 -624 0
v -480 -576 0
v -432 -576 0
v -480 -624 0
v -528 -624 0
v -528 -576 0
v -480 -576 0
v -528 -624 0
v -576 -624 0
v -576 -576 0
v -528 -576 0
v -576 -624 0
v -624 -624 0
v -624 -576 0
v -576 -576 0
v -624 -624 0
v -672 -624 0
v -672 -576 0
v -624 -576 0
v -672 -624 0
v -720 -624 0
v -720 -576 0
v -672 -576 0
v -720 -624 0
v -768 -624 0
v -768 -576 0
v -720 -576 0
v -768 -624 0
v -816 -624 0
v -816 -576 0
v -768 -576 0

# Texture cooridinates (Count = 33)
vt 0.25 0.5
vt 0.375 0.5
vt 0.375 0.75
vt 0.25 0.75
vt 0.5 0.5
vt 0.5 0.75
vt 0.25 0.25
vt 0.375 0.25
vt 0.5 0.25
vt 0.25 0
vt 0.375 0
vt 0.5 0
vt 0 0.75
vt 0.125 0.75
vt 0.125 1
vt 0 1
vt 0.25 1
vt 0.375 1
vt 0.5 1
vt 0.625 0.75
vt 0.625 1
vt 0.75 0.75
vt 0.75 1
vt 0.875 0.75
vt 0.875 1
vt 1 0.75
vt 1 1
vt 0 0.5
vt 0.125 0.5
vt 0 0.25
vt 0.125 0.25
vt 0 0
vt 0.125 0

# Normal
vn 0 0 -1

# Mesh description
g Stage06_mesh_0002

# Faces
f 1/1/1 2/2/1 3/3/1 4/4/1
f 5/2/1 6/5/1 7/6/1 8/3/1
f 9/7/1 10/8/1 11/2/1 12/1/1
f 13/8/1 14/9/1 15/5/1 16/2/1
f 17/10/1 18/11/1 19/8/1 20/7/1
f 21/11/1 22/12/1 23/9/1 24/8/1
f 25/13/1 26/14/1 27/15/1 28/16/1
f 29/14/1 30/4/1 31/17/1 32/15/1
f 33/4/1 34/3/1 35/18/1 36/17/1
f 37/3/1 38/6/1 39/19/1 40/18/1
f 41/6/1 42/20/1 43/21/1 44/19/1
f 45/20/1 46/22/1 47/23/1 48/21/1
f 49/22/1 50/24/1 51/25/1 52/23/1
f 53/24/1 54/26/1 55/27/1 56/25/1
f 57/13/1 58/14/1 59/15/1 60/16/1
f 61/13/1 62/14/1 63/15/1 64/16/1
f 65/13/1 66/14/1 67/15/1 68/16/1
f 69/14/1 70/4/1 71/17/1 72/15/1
f 73/4/1 74/3/1 75/18/1 76/17/1
f 77/3/1 78/6/1 79/19/1 80/18/1
f 81/6/1 82/20/1 83/21/1 84/19/1
f 85/13/1 86/14/1 87/15/1 88/16/1
f 89/14/1 90/4/1 91/17/1 92/15/1
f 93/13/1 94/14/1 95/15/1 96/16/1
f 97/14/1 98/4/1 99/17/1 100/15/1
f 101/4/1 102/3/1 103/18/1 104/17/1
f 105/3/1 106/6/1 107/19/1 108/18/1
f 109/6/1 110/20/1 111/21/1 112/19/1
f 113/20/1 114/22/1 115/23/1 116/21/1
f 117/22/1 118/24/1 119/25/1 120/23/1
f 121/13/1 122/14/1 123/15/1 124/16/1
f 125/28/1 126/29/1 127/14/1 128/13/1
f 129/28/1 130/29/1 131/14/1 132/13/1
f 133/13/1 134/14/1 135/15/1 136/16/1
f 137/14/1 138/4/1 139/17/1 140/15/1
f 141/4/1 142/3/1 143/18/1 144/17/1
f 145/3/1 146/6/1 147/19/1 148/18/1
f 149/6/1 150/20/1 151/21/1 152/19/1
f 153/20/1 154/22/1 155/23/1 156/21/1
f 157/13/1 158/14/1 159/15/1 160/16/1
f 161/14/1 162/4/1 163/17/1 164/15/1
f 165/4/1 166/3/1 167/18/1 168/17/1
f 169/3/1 170/6/1 171/19/1 172/18/1
f 173/6/1 174/20/1 175/21/1 176/19/1
f 177/20/1 178/22/1 179/23/1 180/21/1
f 181/22/1 182/24/1 183/25/1 184/23/1
f 185/28/1 186/29/1 187/14/1 188/13/1
f 189/30/1 190/31/1 191/29/1 192/28/1
f 193/30/1 194/31/1 195/29/1 196/28/1
f 197/13/1 198/14/1 199/15/1 200/16/1
f 201/14/1 202/4/1 203/17/1 204/15/1
f 205/4/1 206/3/1 207/18/1 208/17/1
f 209/13/1 210/14/1 211/15/1 212/16/1
f 213/13/1 214/14/1 215/15/1 216/16/1
f 217/14/1 218/4/1 219/17/1 220/15/1
f 221/14/1 222/4/1 223/17/1 224/15/1
f 225/13/1 226/14/1 227/15/1 228/16/1
f 229/14/1 230/4/1 231/17/1 232/15/1
f 233/4/1 234/3/1 235/18/1 236/17/1
f 237/3/1 238/6/1 239/19/1 240/18/1
f 241/6/1 242/20/1 243/21/1 244/19/1
f 245/20/1 246/22/1 247/23/1 248/21/1
f 249/22/1 250/24/1 251/25/1 252/23/1
f 253/30/1 254/31/1 255/29/1 256/28/1
f 257/32/1 258/33/1 259/31/1 260/30/1
f 261/32/1 262/33/1 263/31/1 264/30/1
f 265/13/1 266/14/1 267/15/1 268/16/1
f 269/14/1 270/4/1 271/17/1 272/15/1
f 273/4/1 274/3/1 275/18/1 276/17/1
f 277/13/1 278/14/1 279/15/1 280/16/1
f 281/13/1 282/14/1 283/15/1 284/16/1
f 285/14/1 286/4/1 287/17/1 288/15/1
f 289/14/1 290/4/1 291/17/1 292/15/1
f 293/13/1 294/14/1 295/15/1 296/16/1
f 297/14/1 298/4/1 299/17/1 300/15/1
f 301/4/1 302/3/1 303/18/1 304/17/1
f 305/3/1 306/6/1 307/19/1 308/18/1
f 309/6/1 310/20/1 311/21/1 312/19/1
f 313/20/1 314/22/1 315/23/1 316/21/1
f 317/22/1 318/24/1 319/25/1 320/23/1
f 321/32/1 322/33/1 323/31/1 324/30/1
f 325/32/1 326/33/1 327/31/1 328/30/1
f 329/33/1 330/10/1 331/7/1 332/31/1
f 333/13/1 334/14/1 335/15/1 336/16/1
f 337/14/1 338/4/1 339/17/1 340/15/1
f 341/4/1 342/3/1 343/18/1 344/17/1
f 345/13/1 346/14/1 347/15/1 348/16/1
f 349/13/1 350/14/1 351/15/1 352/16/1
f 353/14/1 354/4/1 355/17/1 356/15/1
f 357/14/1 358/4/1 359/17/1 360/15/1
f 361/13/1 362/14/1 363/15/1 364/16/1
f 365/13/1 366/14/1 367/15/1 368/16/1
f 369/13/1 370/14/1 371/15/1 372/16/1
f 373/13/1 374/14/1 375/15/1 376/16/1
f 377/13/1 378/14/1 379/15/1 380/16/1
f 381/13/1 382/14/1 383/15/1 384/16/1
f 385/13/1 386/14/1 387/15/1 388/16/1
f 389/32/1 390/33/1 391/31/1 392/30/1
f 393/33/1 394/10/1 395/7/1 396/31/1
f 397/10/1 398/11/1 399/8/1 400/7/1
f 401/13/1 402/14/1 403/15/1 404/16/1
f 405/14/1 406/4/1 407/17/1 408/15/1
f 409/4/1 410/3/1 411/18/1 412/17/1
f 413/13/1 414/14/1 415/15/1 416/16/1
f 417/13/1 418/14/1 419/15/1 420/16/1
f 421/14/1 422/4/1 423/17/1 424/15/1
f 425/14/1 426/4/1 427/17/1 428/15/1
f 429/28/1 430/29/1 431/14/1 432/13/1
f 433/28/1 434/29/1 435/14/1 436/13/1
f 437/28/1 438/29/1 439/14/1 440/13/1
f 441/28/1 442/29/1 443/14/1 444/13/1
f 445/28/1 446/29/1 447/14/1 448/13/1
f 449/28/1 450/29/1 451/14/1 452/13/1
f 453/28/1 454/29/1 455/14/1 456/13/1
f 457/32/1 458/33/1 459/31/1 460/30/1
f 461/33/1 462/10/1 463/7/1 464/31/1
f 465/10/1 466/11/1 467/8/1 468/7/1
f 469/13/1 470/14/1 471/15/1 472/16/1
f 473/14/1 474/4/1 475/17/1 476/15/1
f 477/4/1 478/3/1 479/18/1 480/17/1
f 481/13/1 482/14/1 483/15/1 484/16/1
f 485/13/1 486/14/1 487/15/1 488/16/1
f 489/14/1 490/4/1 491/17/1 492/15/1
f 493/14/1 494/4/1 495/17/1 496/15/1
f 497/30/1 498/31/1 499/29/1 500/28/1
f 501/30/1 502/31/1 503/29/1 504/28/1
f 505/30/1 506/31/1 507/29/1 508/28/1
f 509/30/1 510/31/1 511/29/1 512/28/1
f 513/30/1 514/31/1 515/29/1 516/28/1
f 517/30/1 518/31/1 519/29/1 520/28/1
f 521/30/1 522/31/1 523/29/1 524/28/1
f 525/32/1 526/33/1 527/31/1 528/30/1
f 529/33/1 530/10/1 531/7/1 532/31/1
f 533/10/1 534/11/1 535/8/1 536/7/1
f 537/28/1 538/29/1 539/14/1 540/13/1
f 541/29/1 542/1/1 543/4/1 544/14/1
f 545/1/1 546/2/1 547/3/1 548/4/1
f 549/13/1 550/14/1 551/15/1 552/16/1
f 553/13/1 554/14/1 555/15/1 556/16/1
f 557/14/1 558/4/1 559/17/1 560/15/1
f 561/14/1 562/4/1 563/17/1 564/15/1
f 565/32/1 566/33/1 567/31/1 568/30/1
f 569/32/1 570/33/1 571/31/1 572/30/1
f 573/32/1 574/33/1 575/31/1 576/30/1
f 577/32/1 578/33/1 579/31/1 580/30/1
f 581/32/1 582/33/1 583/31/1 584/30/1
f 585/32/1 586/33/1 587/31/1 588/30/1
f 589/32/1 590/33/1 591/31/1 592/30/1
f 593/32/1 594/33/1 595/31/1 596/30/1
f 597/33/1 598/10/1 599/7/1 600/31/1
f 601/10/1 602/11/1 603/8/1 604/7/1
f 605/30/1 606/31/1 607/29/1 608/28/1
f 609/31/1 610/7/1 611/1/1 612/29/1
f 613/7/1 614/8/1 615/2/1 616/1/1
f 617/13/1 618/14/1 619/15/1 620/16/1
f 621/13/1 622/14/1 623/15/1 624/16/1
f 625/14/1 626/4/1 627/17/1 628/15/1
f 629/14/1 630/4/1 631/17/1 632/15/1

