# Tiled2Unity generated file. Do not modify by hand.
# Wavefront file for 'Stage05-2_mesh_0019.obj'

# Vertices (Count = 16)
v -48 -480 0
v -96 -480 0
v -96 -432 0
v -48 -432 0
v -96 -480 0
v -144 -480 0
v -144 -432 0
v -96 -432 0
v -48 -528 0
v -96 -528 0
v -96 -480 0
v -48 -480 0
v -96 -528 0
v -144 -528 0
v -144 -480 0
v -96 -480 0

# Texture cooridinates (Count = 9)
vt 0.5 0.4166667
vt 0.75 0.4166667
vt 0.75 0.5
vt 0.5 0.5
vt 1 0.4166667
vt 1 0.5
vt 0.5 0.3333333
vt 0.75 0.3333333
vt 1 0.3333333

# Normal
vn 0 0 -1

# Mesh description
g Stage05-2_mesh_0019

# Faces
f 1/1/1 2/2/1 3/3/1 4/4/1
f 5/2/1 6/5/1 7/6/1 8/3/1
f 9/7/1 10/8/1 11/2/1 12/1/1
f 13/8/1 14/9/1 15/5/1 16/2/1

