# Tiled2Unity generated file. Do not modify by hand.
# Wavefront file for 'Stage05-2_mesh_0009.obj'

# Vertices (Count = 184)
v -912 -240 0
v -960 -240 0
v -960 -192 0
v -912 -192 0
v -960 -240 0
v -1008 -240 0
v -1008 -192 0
v -960 -192 0
v -2160 -240 0
v -2208 -240 0
v -2208 -192 0
v -2160 -192 0
v -2208 -240 0
v -2256 -240 0
v -2256 -192 0
v -2208 -192 0
v -912 -288 0
v -960 -288 0
v -960 -240 0
v -912 -240 0
v -960 -288 0
v -1008 -288 0
v -1008 -240 0
v -960 -240 0
v -2160 -288 0
v -2208 -288 0
v -2208 -240 0
v -2160 -240 0
v -2208 -288 0
v -2256 -288 0
v -2256 -240 0
v -2208 -240 0
v -912 -336 0
v -960 -336 0
v -960 -288 0
v -912 -288 0
v -960 -336 0
v -1008 -336 0
v -1008 -288 0
v -960 -288 0
v -2160 -336 0
v -2208 -336 0
v -2208 -288 0
v -2160 -288 0
v -2208 -336 0
v -2256 -336 0
v -2256 -288 0
v -2208 -288 0
v -528 -432 0
v -576 -432 0
v -576 -384 0
v -528 -384 0
v -576 -432 0
v -624 -432 0
v -624 -384 0
v -576 -384 0
v -528 -480 0
v -576 -480 0
v -576 -432 0
v -528 -432 0
v -576 -480 0
v -624 -480 0
v -624 -432 0
v -576 -432 0
v -144 -528 0
v -192 -528 0
v -192 -480 0
v -144 -480 0
v -192 -528 0
v -240 -528 0
v -240 -480 0
v -192 -480 0
v -528 -528 0
v -576 -528 0
v -576 -480 0
v -528 -480 0
v -576 -528 0
v -624 -528 0
v -624 -480 0
v -576 -480 0
v -144 -576 0
v -192 -576 0
v -192 -528 0
v -144 -528 0
v -192 -576 0
v -240 -576 0
v -240 -528 0
v -192 -528 0
v -528 -576 0
v -576 -576 0
v -576 -528 0
v -528 -528 0
v -576 -576 0
v -624 -576 0
v -624 -528 0
v -576 -528 0
v -144 -624 0
v -192 -624 0
v -192 -576 0
v -144 -576 0
v -192 -624 0
v -240 -624 0
v -240 -576 0
v -192 -576 0
v -528 -624 0
v -576 -624 0
v -576 -576 0
v -528 -576 0
v -576 -624 0
v -624 -624 0
v -624 -576 0
v -576 -576 0
v -144 -672 0
v -192 -672 0
v -192 -624 0
v -144 -624 0
v -192 -672 0
v -240 -672 0
v -240 -624 0
v -192 -624 0
v -528 -672 0
v -576 -672 0
v -576 -624 0
v -528 -624 0
v -576 -672 0
v -624 -672 0
v -624 -624 0
v -576 -624 0
v -1008 -672 0
v -1056 -672 0
v -1056 -624 0
v -1008 -624 0
v -1056 -672 0
v -1104 -672 0
v -1104 -624 0
v -1056 -624 0
v -1200 -672 0
v -1248 -672 0
v -1248 -624 0
v -1200 -624 0
v -1248 -672 0
v -1296 -672 0
v -1296 -624 0
v -1248 -624 0
v -1008 -720 0
v -1056 -720 0
v -1056 -672 0
v -1008 -672 0
v -1056 -720 0
v -1104 -720 0
v -1104 -672 0
v -1056 -672 0
v -1200 -720 0
v -1248 -720 0
v -1248 -672 0
v -1200 -672 0
v -1248 -720 0
v -1296 -720 0
v -1296 -672 0
v -1248 -672 0
v -1008 -768 0
v -1056 -768 0
v -1056 -720 0
v -1008 -720 0
v -1056 -768 0
v -1104 -768 0
v -1104 -720 0
v -1056 -720 0
v -1008 -816 0
v -1056 -816 0
v -1056 -768 0
v -1008 -768 0
v -1056 -816 0
v -1104 -816 0
v -1104 -768 0
v -1056 -768 0
v -1008 -864 0
v -1056 -864 0
v -1056 -816 0
v -1008 -816 0
v -1056 -864 0
v -1104 -864 0
v -1104 -816 0
v -1056 -816 0

# Texture cooridinates (Count = 15)
vt 0.25 0.75
vt 0.5 0.75
vt 0.5 1
vt 0.25 1
vt 0.75 0.75
vt 0.75 1
vt 0.25 0.5
vt 0.5 0.5
vt 0.75 0.5
vt 0.25 0.25
vt 0.5 0.25
vt 0.75 0.25
vt 0.25 0
vt 0.5 0
vt 0.75 0

# Normal
vn 0 0 -1

# Mesh description
g Stage05-2_mesh_0009

# Faces
f 1/1/1 2/2/1 3/3/1 4/4/1
f 5/2/1 6/5/1 7/6/1 8/3/1
f 9/1/1 10/2/1 11/3/1 12/4/1
f 13/2/1 14/5/1 15/6/1 16/3/1
f 17/7/1 18/8/1 19/2/1 20/1/1
f 21/8/1 22/9/1 23/5/1 24/2/1
f 25/7/1 26/8/1 27/2/1 28/1/1
f 29/8/1 30/9/1 31/5/1 32/2/1
f 33/10/1 34/11/1 35/8/1 36/7/1
f 37/11/1 38/12/1 39/9/1 40/8/1
f 41/10/1 42/11/1 43/8/1 44/7/1
f 45/11/1 46/12/1 47/9/1 48/8/1
f 49/1/1 50/2/1 51/3/1 52/4/1
f 53/2/1 54/5/1 55/6/1 56/3/1
f 57/7/1 58/8/1 59/2/1 60/1/1
f 61/8/1 62/9/1 63/5/1 64/2/1
f 65/1/1 66/2/1 67/3/1 68/4/1
f 69/2/1 70/5/1 71/6/1 72/3/1
f 73/10/1 74/11/1 75/8/1 76/7/1
f 77/11/1 78/12/1 79/9/1 80/8/1
f 81/7/1 82/8/1 83/2/1 84/1/1
f 85/8/1 86/9/1 87/5/1 88/2/1
f 89/13/1 90/14/1 91/11/1 92/10/1
f 93/14/1 94/15/1 95/12/1 96/11/1
f 97/10/1 98/11/1 99/8/1 100/7/1
f 101/11/1 102/12/1 103/9/1 104/8/1
f 105/10/1 106/11/1 107/8/1 108/7/1
f 109/11/1 110/12/1 111/9/1 112/8/1
f 113/13/1 114/14/1 115/11/1 116/10/1
f 117/14/1 118/15/1 119/12/1 120/11/1
f 121/13/1 122/14/1 123/11/1 124/10/1
f 125/14/1 126/15/1 127/12/1 128/11/1
f 129/1/1 130/2/1 131/3/1 132/4/1
f 133/2/1 134/5/1 135/6/1 136/3/1
f 137/1/1 138/2/1 139/3/1 140/4/1
f 141/2/1 142/5/1 143/6/1 144/3/1
f 145/7/1 146/8/1 147/2/1 148/1/1
f 149/8/1 150/9/1 151/5/1 152/2/1
f 153/7/1 154/8/1 155/2/1 156/1/1
f 157/8/1 158/9/1 159/5/1 160/2/1
f 161/10/1 162/11/1 163/8/1 164/7/1
f 165/11/1 166/12/1 167/9/1 168/8/1
f 169/13/1 170/14/1 171/11/1 172/10/1
f 173/14/1 174/15/1 175/12/1 176/11/1
f 177/13/1 178/14/1 179/11/1 180/10/1
f 181/14/1 182/15/1 183/12/1 184/11/1

