# Tiled2Unity generated file. Do not modify by hand.
# Wavefront file for 'Stage05-2_mesh_0011.obj'

# Vertices (Count = 80)
v -336 -384 0
v -384 -384 0
v -384 -336 0
v -336 -336 0
v -384 -384 0
v -432 -384 0
v -432 -336 0
v -384 -336 0
v -1296 -384 0
v -1344 -384 0
v -1344 -336 0
v -1296 -336 0
v -1344 -384 0
v -1392 -384 0
v -1392 -336 0
v -1344 -336 0
v -1680 -384 0
v -1728 -384 0
v -1728 -336 0
v -1680 -336 0
v -1728 -384 0
v -1776 -384 0
v -1776 -336 0
v -1728 -336 0
v -2160 -384 0
v -2208 -384 0
v -2208 -336 0
v -2160 -336 0
v -2208 -384 0
v -2256 -384 0
v -2256 -336 0
v -2208 -336 0
v -1056 -624 0
v -1104 -624 0
v -1104 -576 0
v -1056 -576 0
v -1200 -624 0
v -1248 -624 0
v -1248 -576 0
v -1200 -576 0
v -144 -720 0
v -192 -720 0
v -192 -672 0
v -144 -672 0
v -192 -720 0
v -240 -720 0
v -240 -672 0
v -192 -672 0
v -336 -720 0
v -384 -720 0
v -384 -672 0
v -336 -672 0
v -384 -720 0
v -432 -720 0
v -432 -672 0
v -384 -672 0
v -816 -720 0
v -864 -720 0
v -864 -672 0
v -816 -672 0
v -864 -720 0
v -912 -720 0
v -912 -672 0
v -864 -672 0
v -144 -912 0
v -192 -912 0
v -192 -864 0
v -144 -864 0
v -192 -912 0
v -240 -912 0
v -240 -864 0
v -192 -864 0
v -2160 -912 0
v -2208 -912 0
v -2208 -864 0
v -2160 -864 0
v -2208 -912 0
v -2256 -912 0
v -2256 -864 0
v -2208 -864 0

# Texture cooridinates (Count = 10)
vt 0 0.5
vt 0.25 0.5
vt 0.25 0.75
vt 0 0.75
vt 0.5 0.5
vt 0.5 0.75
vt 0.75 0.5
vt 0.75 0.75
vt 1 0.5
vt 1 0.75

# Normal
vn 0 0 -1

# Mesh description
g Stage05-2_mesh_0011

# Faces
f 1/1/1 2/2/1 3/3/1 4/4/1
f 5/2/1 6/5/1 7/6/1 8/3/1
f 9/5/1 10/7/1 11/8/1 12/6/1
f 13/7/1 14/9/1 15/10/1 16/8/1
f 17/1/1 18/2/1 19/3/1 20/4/1
f 21/2/1 22/5/1 23/6/1 24/3/1
f 25/5/1 26/7/1 27/8/1 28/6/1
f 29/7/1 30/9/1 31/10/1 32/8/1
f 33/2/1 34/5/1 35/6/1 36/3/1
f 37/5/1 38/7/1 39/8/1 40/6/1
f 41/1/1 42/2/1 43/3/1 44/4/1
f 45/2/1 46/5/1 47/6/1 48/3/1
f 49/5/1 50/7/1 51/8/1 52/6/1
f 53/7/1 54/9/1 55/10/1 56/8/1
f 57/5/1 58/7/1 59/8/1 60/6/1
f 61/7/1 62/9/1 63/10/1 64/8/1
f 65/1/1 66/2/1 67/3/1 68/4/1
f 69/2/1 70/5/1 71/6/1 72/3/1
f 73/5/1 74/7/1 75/8/1 76/6/1
f 77/7/1 78/9/1 79/10/1 80/8/1

