# Tiled2Unity generated file. Do not modify by hand.
# Wavefront file for 'Stage05-2_mesh_0006.obj'

# Vertices (Count = 20)
v -2208 -192 0
v -2256 -192 0
v -2256 -144 0
v -2208 -144 0
v -1200 -768 0
v -1248 -768 0
v -1248 -720 0
v -1200 -720 0
v -1248 -768 0
v -1296 -768 0
v -1296 -720 0
v -1248 -720 0
v -1200 -816 0
v -1248 -816 0
v -1248 -768 0
v -1200 -768 0
v -1248 -816 0
v -1296 -816 0
v -1296 -768 0
v -1248 -768 0

# Texture cooridinates (Count = 13)
vt 0.75 0.75
vt 1 0.75
vt 1 1
vt 0.75 1
vt 0 0.25
vt 0.25 0.25
vt 0.25 0.5
vt 0 0.5
vt 0.5 0.25
vt 0.5 0.5
vt 0 0
vt 0.25 0
vt 0.5 0

# Normal
vn 0 0 -1

# Mesh description
g Stage05-2_mesh_0006

# Faces
f 1/1/1 2/2/1 3/3/1 4/4/1
f 5/5/1 6/6/1 7/7/1 8/8/1
f 9/6/1 10/9/1 11/10/1 12/7/1
f 13/11/1 14/12/1 15/6/1 16/5/1
f 17/12/1 18/13/1 19/9/1 20/6/1

