# Tiled2Unity generated file. Do not modify by hand.
# Wavefront file for 'Stage05-2_mesh_0016.obj'

# Vertices (Count = 24)
v -2256 -48 0
v -2304 -48 0
v -2304 0 0
v -2256 0 0
v -2304 -48 0
v -2352 -48 0
v -2352 0 0
v -2304 0 0
v -2352 -48 0
v -2400 -48 0
v -2400 0 0
v -2352 0 0
v -2400 -48 0
v -2448 -48 0
v -2448 0 0
v -2400 0 0
v -2256 -96 0
v -2304 -96 0
v -2304 -48 0
v -2256 -48 0
v -2400 -96 0
v -2448 -96 0
v -2448 -48 0
v -2400 -48 0

# Texture cooridinates (Count = 12)
vt 0.25 0.75
vt 0.375 0.75
vt 0.375 1
vt 0.25 1
vt 0.5 0.75
vt 0.5 1
vt 0.625 0.75
vt 0.625 1
vt 0.75 0.75
vt 0.75 1
vt 0.25 0.5
vt 0.375 0.5

# Normal
vn 0 0 -1

# Mesh description
g Stage05-2_mesh_0016

# Faces
f 1/1/1 2/2/1 3/3/1 4/4/1
f 5/2/1 6/5/1 7/6/1 8/3/1
f 9/5/1 10/7/1 11/8/1 12/6/1
f 13/7/1 14/9/1 15/10/1 16/8/1
f 17/11/1 18/12/1 19/2/1 20/1/1
f 21/11/1 22/12/1 23/2/1 24/1/1

