# Tiled2Unity generated file. Do not modify by hand.
# Wavefront file for 'Stage05-2_mesh_0004.obj'

# Vertices (Count = 216)
v -144 -192 0
v -192 -192 0
v -192 -144 0
v -144 -144 0
v -192 -192 0
v -240 -192 0
v -240 -144 0
v -192 -144 0
v -2160 -192 0
v -2208 -192 0
v -2208 -144 0
v -2160 -144 0
v -144 -240 0
v -192 -240 0
v -192 -192 0
v -144 -192 0
v -192 -240 0
v -240 -240 0
v -240 -192 0
v -192 -192 0
v -2160 -240 0
v -2208 -240 0
v -2208 -192 0
v -2160 -192 0
v -144 -288 0
v -192 -288 0
v -192 -240 0
v -144 -240 0
v -192 -288 0
v -240 -288 0
v -240 -240 0
v -192 -240 0
v -2160 -288 0
v -2208 -288 0
v -2208 -240 0
v -2160 -240 0
v -2160 -384 0
v -2208 -384 0
v -2208 -336 0
v -2160 -336 0
v -336 -432 0
v -384 -432 0
v -384 -384 0
v -336 -384 0
v -384 -432 0
v -432 -432 0
v -432 -384 0
v -384 -384 0
v -1296 -432 0
v -1344 -432 0
v -1344 -384 0
v -1296 -384 0
v -1344 -432 0
v -1392 -432 0
v -1392 -384 0
v -1344 -384 0
v -1680 -432 0
v -1728 -432 0
v -1728 -384 0
v -1680 -384 0
v -1728 -432 0
v -1776 -432 0
v -1776 -384 0
v -1728 -384 0
v -2160 -432 0
v -2208 -432 0
v -2208 -384 0
v -2160 -384 0
v -2208 -432 0
v -2256 -432 0
v -2256 -384 0
v -2208 -384 0
v -336 -480 0
v -384 -480 0
v -384 -432 0
v -336 -432 0
v -384 -480 0
v -432 -480 0
v -432 -432 0
v -384 -432 0
v -1296 -480 0
v -1344 -480 0
v -1344 -432 0
v -1296 -432 0
v -1344 -480 0
v -1392 -480 0
v -1392 -432 0
v -1344 -432 0
v -1680 -480 0
v -1728 -480 0
v -1728 -432 0
v -1680 -432 0
v -1728 -480 0
v -1776 -480 0
v -1776 -432 0
v -1728 -432 0
v -2160 -480 0
v -2208 -480 0
v -2208 -432 0
v -2160 -432 0
v -2208 -480 0
v -2256 -480 0
v -2256 -432 0
v -2208 -432 0
v -1200 -672 0
v -1248 -672 0
v -1248 -624 0
v -1200 -624 0
v -528 -720 0
v -576 -720 0
v -576 -672 0
v -528 -672 0
v -576 -720 0
v -624 -720 0
v -624 -672 0
v -576 -672 0
v -1200 -720 0
v -1248 -720 0
v -1248 -672 0
v -1200 -672 0
v -144 -768 0
v -192 -768 0
v -192 -720 0
v -144 -720 0
v -192 -768 0
v -240 -768 0
v -240 -720 0
v -192 -720 0
v -336 -768 0
v -384 -768 0
v -384 -720 0
v -336 -720 0
v -384 -768 0
v -432 -768 0
v -432 -720 0
v -384 -720 0
v -528 -768 0
v -576 -768 0
v -576 -720 0
v -528 -720 0
v -576 -768 0
v -624 -768 0
v -624 -720 0
v -576 -720 0
v -816 -768 0
v -864 -768 0
v -864 -720 0
v -816 -720 0
v -864 -768 0
v -912 -768 0
v -912 -720 0
v -864 -720 0
v -144 -816 0
v -192 -816 0
v -192 -768 0
v -144 -768 0
v -192 -816 0
v -240 -816 0
v -240 -768 0
v -192 -768 0
v -336 -816 0
v -384 -816 0
v -384 -768 0
v -336 -768 0
v -384 -816 0
v -432 -816 0
v -432 -768 0
v -384 -768 0
v -528 -816 0
v -576 -816 0
v -576 -768 0
v -528 -768 0
v -576 -816 0
v -624 -816 0
v -624 -768 0
v -576 -768 0
v -816 -816 0
v -864 -816 0
v -864 -768 0
v -816 -768 0
v -864 -816 0
v -912 -816 0
v -912 -768 0
v -864 -768 0
v -144 -960 0
v -192 -960 0
v -192 -912 0
v -144 -912 0
v -192 -960 0
v -240 -960 0
v -240 -912 0
v -192 -912 0
v -2160 -960 0
v -2208 -960 0
v -2208 -912 0
v -2160 -912 0
v -2208 -960 0
v -2256 -960 0
v -2256 -912 0
v -2208 -912 0
v -144 -1008 0
v -192 -1008 0
v -192 -960 0
v -144 -960 0
v -192 -1008 0
v -240 -1008 0
v -240 -960 0
v -192 -960 0
v -2160 -1008 0
v -2208 -1008 0
v -2208 -960 0
v -2160 -960 0
v -2208 -1008 0
v -2256 -1008 0
v -2256 -960 0
v -2208 -960 0

# Texture cooridinates (Count = 20)
vt 0 0.5
vt 0.25 0.5
vt 0.25 0.75
vt 0 0.75
vt 0.5 0.5
vt 0.5 0.75
vt 0.75 0.5
vt 0.75 0.75
vt 0 0.25
vt 0.25 0.25
vt 0.5 0.25
vt 0.75 0.25
vt 0 0
vt 0.25 0
vt 0.5 0
vt 0.75 0
vt 1 0.5
vt 1 0.75
vt 1 0.25
vt 1 0

# Normal
vn 0 0 -1

# Mesh description
g Stage05-2_mesh_0004

# Faces
f 1/1/1 2/2/1 3/3/1 4/4/1
f 5/2/1 6/5/1 7/6/1 8/3/1
f 9/5/1 10/7/1 11/8/1 12/6/1
f 13/9/1 14/10/1 15/2/1 16/1/1
f 17/10/1 18/11/1 19/5/1 20/2/1
f 21/11/1 22/12/1 23/7/1 24/5/1
f 25/13/1 26/14/1 27/10/1 28/9/1
f 29/14/1 30/15/1 31/11/1 32/10/1
f 33/15/1 34/16/1 35/12/1 36/11/1
f 37/7/1 38/17/1 39/18/1 40/8/1
f 41/9/1 42/10/1 43/2/1 44/1/1
f 45/10/1 46/11/1 47/5/1 48/2/1
f 49/11/1 50/12/1 51/7/1 52/5/1
f 53/12/1 54/19/1 55/17/1 56/7/1
f 57/9/1 58/10/1 59/2/1 60/1/1
f 61/10/1 62/11/1 63/5/1 64/2/1
f 65/11/1 66/12/1 67/7/1 68/5/1
f 69/12/1 70/19/1 71/17/1 72/7/1
f 73/13/1 74/14/1 75/10/1 76/9/1
f 77/14/1 78/15/1 79/11/1 80/10/1
f 81/15/1 82/16/1 83/12/1 84/11/1
f 85/16/1 86/20/1 87/19/1 88/12/1
f 89/13/1 90/14/1 91/10/1 92/9/1
f 93/14/1 94/15/1 95/11/1 96/10/1
f 97/15/1 98/16/1 99/12/1 100/11/1
f 101/16/1 102/20/1 103/19/1 104/12/1
f 105/11/1 106/12/1 107/7/1 108/5/1
f 109/1/1 110/2/1 111/3/1 112/4/1
f 113/2/1 114/5/1 115/6/1 116/3/1
f 117/15/1 118/16/1 119/12/1 120/11/1
f 121/9/1 122/10/1 123/2/1 124/1/1
f 125/10/1 126/11/1 127/5/1 128/2/1
f 129/11/1 130/12/1 131/7/1 132/5/1
f 133/12/1 134/19/1 135/17/1 136/7/1
f 137/9/1 138/10/1 139/2/1 140/1/1
f 141/10/1 142/11/1 143/5/1 144/2/1
f 145/11/1 146/12/1 147/7/1 148/5/1
f 149/12/1 150/19/1 151/17/1 152/7/1
f 153/13/1 154/14/1 155/10/1 156/9/1
f 157/14/1 158/15/1 159/11/1 160/10/1
f 161/15/1 162/16/1 163/12/1 164/11/1
f 165/16/1 166/20/1 167/19/1 168/12/1
f 169/13/1 170/14/1 171/10/1 172/9/1
f 173/14/1 174/15/1 175/11/1 176/10/1
f 177/15/1 178/16/1 179/12/1 180/11/1
f 181/16/1 182/20/1 183/19/1 184/12/1
f 185/9/1 186/10/1 187/2/1 188/1/1
f 189/10/1 190/11/1 191/5/1 192/2/1
f 193/11/1 194/12/1 195/7/1 196/5/1
f 197/12/1 198/19/1 199/17/1 200/7/1
f 201/13/1 202/14/1 203/10/1 204/9/1
f 205/14/1 206/15/1 207/11/1 208/10/1
f 209/15/1 210/16/1 211/12/1 212/11/1
f 213/16/1 214/20/1 215/19/1 216/12/1

