# Tiled2Unity generated file. Do not modify by hand.
# Wavefront file for 'Stage05-2_mesh_0001.obj'

# Vertices (Count = 792)
v 0 -48 0
v -48 -48 0
v -48 0 0
v 0 0 0
v -48 -48 0
v -96 -48 0
v -96 0 0
v -48 0 0
v -96 -48 0
v -144 -48 0
v -144 0 0
v -96 0 0
v -144 -48 0
v -192 -48 0
v -192 0 0
v -144 0 0
v -192 -48 0
v -240 -48 0
v -240 0 0
v -192 0 0
v -240 -48 0
v -288 -48 0
v -288 0 0
v -240 0 0
v -288 -48 0
v -336 -48 0
v -336 0 0
v -288 0 0
v -336 -48 0
v -384 -48 0
v -384 0 0
v -336 0 0
v -384 -48 0
v -432 -48 0
v -432 0 0
v -384 0 0
v -432 -48 0
v -480 -48 0
v -480 0 0
v -432 0 0
v -480 -48 0
v -528 -48 0
v -528 0 0
v -480 0 0
v -528 -48 0
v -576 -48 0
v -576 0 0
v -528 0 0
v -576 -48 0
v -624 -48 0
v -624 0 0
v -576 0 0
v -624 -48 0
v -672 -48 0
v -672 0 0
v -624 0 0
v -672 -48 0
v -720 -48 0
v -720 0 0
v -672 0 0
v -720 -48 0
v -768 -48 0
v -768 0 0
v -720 0 0
v -768 -48 0
v -816 -48 0
v -816 0 0
v -768 0 0
v -816 -48 0
v -864 -48 0
v -864 0 0
v -816 0 0
v -864 -48 0
v -912 -48 0
v -912 0 0
v -864 0 0
v -912 -48 0
v -960 -48 0
v -960 0 0
v -912 0 0
v -960 -48 0
v -1008 -48 0
v -1008 0 0
v -960 0 0
v -1008 -48 0
v -1056 -48 0
v -1056 0 0
v -1008 0 0
v -1056 -48 0
v -1104 -48 0
v -1104 0 0
v -1056 0 0
v -1104 -48 0
v -1152 -48 0
v -1152 0 0
v -1104 0 0
v -1152 -48 0
v -1200 -48 0
v -1200 0 0
v -1152 0 0
v -1200 -48 0
v -1248 -48 0
v -1248 0 0
v -1200 0 0
v -1248 -48 0
v -1296 -48 0
v -1296 0 0
v -1248 0 0
v -1296 -48 0
v -1344 -48 0
v -1344 0 0
v -1296 0 0
v -1344 -48 0
v -1392 -48 0
v -1392 0 0
v -1344 0 0
v -1392 -48 0
v -1440 -48 0
v -1440 0 0
v -1392 0 0
v -1440 -48 0
v -1488 -48 0
v -1488 0 0
v -1440 0 0
v -1488 -48 0
v -1536 -48 0
v -1536 0 0
v -1488 0 0
v -1536 -48 0
v -1584 -48 0
v -1584 0 0
v -1536 0 0
v -1584 -48 0
v -1632 -48 0
v -1632 0 0
v -1584 0 0
v -1632 -48 0
v -1680 -48 0
v -1680 0 0
v -1632 0 0
v -1680 -48 0
v -1728 -48 0
v -1728 0 0
v -1680 0 0
v -1728 -48 0
v -1776 -48 0
v -1776 0 0
v -1728 0 0
v -1776 -48 0
v -1824 -48 0
v -1824 0 0
v -1776 0 0
v -1824 -48 0
v -1872 -48 0
v -1872 0 0
v -1824 0 0
v -1872 -48 0
v -1920 -48 0
v -1920 0 0
v -1872 0 0
v -1920 -48 0
v -1968 -48 0
v -1968 0 0
v -1920 0 0
v -1968 -48 0
v -2016 -48 0
v -2016 0 0
v -1968 0 0
v -2016 -48 0
v -2064 -48 0
v -2064 0 0
v -2016 0 0
v -2064 -48 0
v -2112 -48 0
v -2112 0 0
v -2064 0 0
v -2112 -48 0
v -2160 -48 0
v -2160 0 0
v -2112 0 0
v -2160 -48 0
v -2208 -48 0
v -2208 0 0
v -2160 0 0
v -2208 -48 0
v -2256 -48 0
v -2256 0 0
v -2208 0 0
v -2256 -48 0
v -2304 -48 0
v -2304 0 0
v -2256 0 0
v -2304 -48 0
v -2352 -48 0
v -2352 0 0
v -2304 0 0
v -2352 -48 0
v -2400 -48 0
v -2400 0 0
v -2352 0 0
v -2400 -48 0
v -2448 -48 0
v -2448 0 0
v -2400 0 0
v 0 -96 0
v -48 -96 0
v -48 -48 0
v 0 -48 0
v -48 -96 0
v -96 -96 0
v -96 -48 0
v -48 -48 0
v -96 -96 0
v -144 -96 0
v -144 -48 0
v -96 -48 0
v -144 -96 0
v -192 -96 0
v -192 -48 0
v -144 -48 0
v -192 -96 0
v -240 -96 0
v -240 -48 0
v -192 -48 0
v -240 -96 0
v -288 -96 0
v -288 -48 0
v -240 -48 0
v -288 -96 0
v -336 -96 0
v -336 -48 0
v -288 -48 0
v -336 -96 0
v -384 -96 0
v -384 -48 0
v -336 -48 0
v -384 -96 0
v -432 -96 0
v -432 -48 0
v -384 -48 0
v -432 -96 0
v -480 -96 0
v -480 -48 0
v -432 -48 0
v -480 -96 0
v -528 -96 0
v -528 -48 0
v -480 -48 0
v -528 -96 0
v -576 -96 0
v -576 -48 0
v -528 -48 0
v -576 -96 0
v -624 -96 0
v -624 -48 0
v -576 -48 0
v -624 -96 0
v -672 -96 0
v -672 -48 0
v -624 -48 0
v -672 -96 0
v -720 -96 0
v -720 -48 0
v -672 -48 0
v -720 -96 0
v -768 -96 0
v -768 -48 0
v -720 -48 0
v -768 -96 0
v -816 -96 0
v -816 -48 0
v -768 -48 0
v -816 -96 0
v -864 -96 0
v -864 -48 0
v -816 -48 0
v -864 -96 0
v -912 -96 0
v -912 -48 0
v -864 -48 0
v -912 -96 0
v -960 -96 0
v -960 -48 0
v -912 -48 0
v -960 -96 0
v -1008 -96 0
v -1008 -48 0
v -960 -48 0
v -1008 -96 0
v -1056 -96 0
v -1056 -48 0
v -1008 -48 0
v -1056 -96 0
v -1104 -96 0
v -1104 -48 0
v -1056 -48 0
v -1104 -96 0
v -1152 -96 0
v -1152 -48 0
v -1104 -48 0
v -1152 -96 0
v -1200 -96 0
v -1200 -48 0
v -1152 -48 0
v -1200 -96 0
v -1248 -96 0
v -1248 -48 0
v -1200 -48 0
v -1248 -96 0
v -1296 -96 0
v -1296 -48 0
v -1248 -48 0
v -1296 -96 0
v -1344 -96 0
v -1344 -48 0
v -1296 -48 0
v -1344 -96 0
v -1392 -96 0
v -1392 -48 0
v -1344 -48 0
v -1392 -96 0
v -1440 -96 0
v -1440 -48 0
v -1392 -48 0
v -1440 -96 0
v -1488 -96 0
v -1488 -48 0
v -1440 -48 0
v -1488 -96 0
v -1536 -96 0
v -1536 -48 0
v -1488 -48 0
v -1536 -96 0
v -1584 -96 0
v -1584 -48 0
v -1536 -48 0
v -1584 -96 0
v -1632 -96 0
v -1632 -48 0
v -1584 -48 0
v -1632 -96 0
v -1680 -96 0
v -1680 -48 0
v -1632 -48 0
v -1680 -96 0
v -1728 -96 0
v -1728 -48 0
v -1680 -48 0
v -1728 -96 0
v -1776 -96 0
v -1776 -48 0
v -1728 -48 0
v -1776 -96 0
v -1824 -96 0
v -1824 -48 0
v -1776 -48 0
v -1824 -96 0
v -1872 -96 0
v -1872 -48 0
v -1824 -48 0
v -1872 -96 0
v -1920 -96 0
v -1920 -48 0
v -1872 -48 0
v -1920 -96 0
v -1968 -96 0
v -1968 -48 0
v -1920 -48 0
v -1968 -96 0
v -2016 -96 0
v -2016 -48 0
v -1968 -48 0
v -2016 -96 0
v -2064 -96 0
v -2064 -48 0
v -2016 -48 0
v -2064 -96 0
v -2112 -96 0
v -2112 -48 0
v -2064 -48 0
v -2112 -96 0
v -2160 -96 0
v -2160 -48 0
v -2112 -48 0
v -2160 -96 0
v -2208 -96 0
v -2208 -48 0
v -2160 -48 0
v -2208 -96 0
v -2256 -96 0
v -2256 -48 0
v -2208 -48 0
v -2256 -96 0
v -2304 -96 0
v -2304 -48 0
v -2256 -48 0
v -2400 -96 0
v -2448 -96 0
v -2448 -48 0
v -2400 -48 0
v 0 -144 0
v -48 -144 0
v -48 -96 0
v 0 -96 0
v -48 -144 0
v -96 -144 0
v -96 -96 0
v -48 -96 0
v -96 -144 0
v -144 -144 0
v -144 -96 0
v -96 -96 0
v -144 -144 0
v -192 -144 0
v -192 -96 0
v -144 -96 0
v -192 -144 0
v -240 -144 0
v -240 -96 0
v -192 -96 0
v -240 -144 0
v -288 -144 0
v -288 -96 0
v -240 -96 0
v -288 -144 0
v -336 -144 0
v -336 -96 0
v -288 -96 0
v -336 -144 0
v -384 -144 0
v -384 -96 0
v -336 -96 0
v -384 -144 0
v -432 -144 0
v -432 -96 0
v -384 -96 0
v -432 -144 0
v -480 -144 0
v -480 -96 0
v -432 -96 0
v -480 -144 0
v -528 -144 0
v -528 -96 0
v -480 -96 0
v -528 -144 0
v -576 -144 0
v -576 -96 0
v -528 -96 0
v -576 -144 0
v -624 -144 0
v -624 -96 0
v -576 -96 0
v -624 -144 0
v -672 -144 0
v -672 -96 0
v -624 -96 0
v -672 -144 0
v -720 -144 0
v -720 -96 0
v -672 -96 0
v -720 -144 0
v -768 -144 0
v -768 -96 0
v -720 -96 0
v -768 -144 0
v -816 -144 0
v -816 -96 0
v -768 -96 0
v -816 -144 0
v -864 -144 0
v -864 -96 0
v -816 -96 0
v -864 -144 0
v -912 -144 0
v -912 -96 0
v -864 -96 0
v -912 -144 0
v -960 -144 0
v -960 -96 0
v -912 -96 0
v -960 -144 0
v -1008 -144 0
v -1008 -96 0
v -960 -96 0
v -1008 -144 0
v -1056 -144 0
v -1056 -96 0
v -1008 -96 0
v -1056 -144 0
v -1104 -144 0
v -1104 -96 0
v -1056 -96 0
v -1104 -144 0
v -1152 -144 0
v -1152 -96 0
v -1104 -96 0
v -1152 -144 0
v -1200 -144 0
v -1200 -96 0
v -1152 -96 0
v -1200 -144 0
v -1248 -144 0
v -1248 -96 0
v -1200 -96 0
v -1248 -144 0
v -1296 -144 0
v -1296 -96 0
v -1248 -96 0
v -1296 -144 0
v -1344 -144 0
v -1344 -96 0
v -1296 -96 0
v -1344 -144 0
v -1392 -144 0
v -1392 -96 0
v -1344 -96 0
v -1392 -144 0
v -1440 -144 0
v -1440 -96 0
v -1392 -96 0
v -1440 -144 0
v -1488 -144 0
v -1488 -96 0
v -1440 -96 0
v -1488 -144 0
v -1536 -144 0
v -1536 -96 0
v -1488 -96 0
v -1536 -144 0
v -1584 -144 0
v -1584 -96 0
v -1536 -96 0
v -1584 -144 0
v -1632 -144 0
v -1632 -96 0
v -1584 -96 0
v -1632 -144 0
v -1680 -144 0
v -1680 -96 0
v -1632 -96 0
v -1680 -144 0
v -1728 -144 0
v -1728 -96 0
v -1680 -96 0
v -1728 -144 0
v -1776 -144 0
v -1776 -96 0
v -1728 -96 0
v -1776 -144 0
v -1824 -144 0
v -1824 -96 0
v -1776 -96 0
v -1824 -144 0
v -1872 -144 0
v -1872 -96 0
v -1824 -96 0
v -1872 -144 0
v -1920 -144 0
v -1920 -96 0
v -1872 -96 0
v -1920 -144 0
v -1968 -144 0
v -1968 -96 0
v -1920 -96 0
v -1968 -144 0
v -2016 -144 0
v -2016 -96 0
v -1968 -96 0
v -2016 -144 0
v -2064 -144 0
v -2064 -96 0
v -2016 -96 0
v -2064 -144 0
v -2112 -144 0
v -2112 -96 0
v -2064 -96 0
v -2112 -144 0
v -2160 -144 0
v -2160 -96 0
v -2112 -96 0
v -2160 -144 0
v -2208 -144 0
v -2208 -96 0
v -2160 -96 0
v -2208 -144 0
v -2256 -144 0
v -2256 -96 0
v -2208 -96 0
v -2256 -144 0
v -2304 -144 0
v -2304 -96 0
v -2256 -96 0
v -2400 -144 0
v -2448 -144 0
v -2448 -96 0
v -2400 -96 0
v 0 -192 0
v -48 -192 0
v -48 -144 0
v 0 -144 0
v -48 -192 0
v -96 -192 0
v -96 -144 0
v -48 -144 0
v -96 -192 0
v -144 -192 0
v -144 -144 0
v -96 -144 0
v -144 -192 0
v -192 -192 0
v -192 -144 0
v -144 -144 0
v -192 -192 0
v -240 -192 0
v -240 -144 0
v -192 -144 0
v -240 -192 0
v -288 -192 0
v -288 -144 0
v -240 -144 0
v -288 -192 0
v -336 -192 0
v -336 -144 0
v -288 -144 0
v -336 -192 0
v -384 -192 0
v -384 -144 0
v -336 -144 0
v -384 -192 0
v -432 -192 0
v -432 -144 0
v -384 -144 0
v -432 -192 0
v -480 -192 0
v -480 -144 0
v -432 -144 0
v -480 -192 0
v -528 -192 0
v -528 -144 0
v -480 -144 0
v -528 -192 0
v -576 -192 0
v -576 -144 0
v -528 -144 0
v -576 -192 0
v -624 -192 0
v -624 -144 0
v -576 -144 0
v -624 -192 0
v -672 -192 0
v -672 -144 0
v -624 -144 0
v -672 -192 0
v -720 -192 0
v -720 -144 0
v -672 -144 0
v -720 -192 0
v -768 -192 0
v -768 -144 0
v -720 -144 0
v -768 -192 0
v -816 -192 0
v -816 -144 0
v -768 -144 0
v -816 -192 0
v -864 -192 0
v -864 -144 0
v -816 -144 0
v -864 -192 0
v -912 -192 0
v -912 -144 0
v -864 -144 0
v -912 -192 0
v -960 -192 0
v -960 -144 0
v -912 -144 0
v -960 -192 0
v -1008 -192 0
v -1008 -144 0
v -960 -144 0
v -1008 -192 0
v -1056 -192 0
v -1056 -144 0
v -1008 -144 0
v -1056 -192 0
v -1104 -192 0
v -1104 -144 0
v -1056 -144 0
v -1104 -192 0
v -1152 -192 0
v -1152 -144 0
v -1104 -144 0
v -1152 -192 0
v -1200 -192 0
v -1200 -144 0
v -1152 -144 0
v -1200 -192 0
v -1248 -192 0
v -1248 -144 0
v -1200 -144 0
v -1248 -192 0
v -1296 -192 0
v -1296 -144 0
v -1248 -144 0
v -1296 -192 0
v -1344 -192 0
v -1344 -144 0
v -1296 -144 0
v -1344 -192 0
v -1392 -192 0
v -1392 -144 0
v -1344 -144 0
v -1392 -192 0
v -1440 -192 0
v -1440 -144 0
v -1392 -144 0
v -1440 -192 0
v -1488 -192 0
v -1488 -144 0
v -1440 -144 0
v -1488 -192 0
v -1536 -192 0
v -1536 -144 0
v -1488 -144 0
v -1536 -192 0
v -1584 -192 0
v -1584 -144 0
v -1536 -144 0
v -1584 -192 0
v -1632 -192 0
v -1632 -144 0
v -1584 -144 0
v -1632 -192 0
v -1680 -192 0
v -1680 -144 0
v -1632 -144 0
v -1680 -192 0
v -1728 -192 0
v -1728 -144 0
v -1680 -144 0
v -1728 -192 0
v -1776 -192 0
v -1776 -144 0
v -1728 -144 0
v -1776 -192 0
v -1824 -192 0
v -1824 -144 0
v -1776 -144 0
v -1824 -192 0
v -1872 -192 0
v -1872 -144 0
v -1824 -144 0
v -1872 -192 0
v -1920 -192 0
v -1920 -144 0
v -1872 -144 0
v -1920 -192 0
v -1968 -192 0
v -1968 -144 0
v -1920 -144 0
v -1968 -192 0
v -2016 -192 0
v -2016 -144 0
v -1968 -144 0
v -2016 -192 0
v -2064 -192 0
v -2064 -144 0
v -2016 -144 0
v -2064 -192 0
v -2112 -192 0
v -2112 -144 0
v -2064 -144 0
v -2112 -192 0
v -2160 -192 0
v -2160 -144 0
v -2112 -144 0
v -2160 -192 0
v -2208 -192 0
v -2208 -144 0
v -2160 -144 0
v -2208 -192 0
v -2256 -192 0
v -2256 -144 0
v -2208 -144 0
v -2256 -192 0
v -2304 -192 0
v -2304 -144 0
v -2256 -144 0
v -2400 -192 0
v -2448 -192 0
v -2448 -144 0
v -2400 -144 0

# Texture cooridinates (Count = 45)
vt 0 0.75
vt 0.125 0.75
vt 0.125 1
vt 0 1
vt 0.25 0.75
vt 0.25 1
vt 0.375 0.75
vt 0.375 1
vt 0.5 0.75
vt 0.5 1
vt 0.625 0.75
vt 0.625 1
vt 0.75 0.75
vt 0.75 1
vt 0.875 0.75
vt 0.875 1
vt 1 0.75
vt 1 1
vt 0 0.5
vt 0.125 0.5
vt 0.25 0.5
vt 0.375 0.5
vt 0.5 0.5
vt 0.625 0.5
vt 0.75 0.5
vt 0.875 0.5
vt 1 0.5
vt 0 0.25
vt 0.125 0.25
vt 0.25 0.25
vt 0.375 0.25
vt 0.5 0.25
vt 0.625 0.25
vt 0.75 0.25
vt 0.875 0.25
vt 1 0.25
vt 0 0
vt 0.125 0
vt 0.25 0
vt 0.375 0
vt 0.5 0
vt 0.625 0
vt 0.75 0
vt 0.875 0
vt 1 0

# Normal
vn 0 0 -1

# Mesh description
g Stage05-2_mesh_0001

# Faces
f 1/1/1 2/2/1 3/3/1 4/4/1
f 5/2/1 6/5/1 7/6/1 8/3/1
f 9/5/1 10/7/1 11/8/1 12/6/1
f 13/7/1 14/9/1 15/10/1 16/8/1
f 17/9/1 18/11/1 19/12/1 20/10/1
f 21/11/1 22/13/1 23/14/1 24/12/1
f 25/13/1 26/15/1 27/16/1 28/14/1
f 29/15/1 30/17/1 31/18/1 32/16/1
f 33/1/1 34/2/1 35/3/1 36/4/1
f 37/2/1 38/5/1 39/6/1 40/3/1
f 41/5/1 42/7/1 43/8/1 44/6/1
f 45/7/1 46/9/1 47/10/1 48/8/1
f 49/9/1 50/11/1 51/12/1 52/10/1
f 53/11/1 54/13/1 55/14/1 56/12/1
f 57/13/1 58/15/1 59/16/1 60/14/1
f 61/15/1 62/17/1 63/18/1 64/16/1
f 65/1/1 66/2/1 67/3/1 68/4/1
f 69/2/1 70/5/1 71/6/1 72/3/1
f 73/5/1 74/7/1 75/8/1 76/6/1
f 77/7/1 78/9/1 79/10/1 80/8/1
f 81/9/1 82/11/1 83/12/1 84/10/1
f 85/11/1 86/13/1 87/14/1 88/12/1
f 89/13/1 90/15/1 91/16/1 92/14/1
f 93/15/1 94/17/1 95/18/1 96/16/1
f 97/1/1 98/2/1 99/3/1 100/4/1
f 101/2/1 102/5/1 103/6/1 104/3/1
f 105/5/1 106/7/1 107/8/1 108/6/1
f 109/7/1 110/9/1 111/10/1 112/8/1
f 113/9/1 114/11/1 115/12/1 116/10/1
f 117/11/1 118/13/1 119/14/1 120/12/1
f 121/13/1 122/15/1 123/16/1 124/14/1
f 125/15/1 126/17/1 127/18/1 128/16/1
f 129/1/1 130/2/1 131/3/1 132/4/1
f 133/2/1 134/5/1 135/6/1 136/3/1
f 137/5/1 138/7/1 139/8/1 140/6/1
f 141/7/1 142/9/1 143/10/1 144/8/1
f 145/9/1 146/11/1 147/12/1 148/10/1
f 149/11/1 150/13/1 151/14/1 152/12/1
f 153/13/1 154/15/1 155/16/1 156/14/1
f 157/15/1 158/17/1 159/18/1 160/16/1
f 161/1/1 162/2/1 163/3/1 164/4/1
f 165/2/1 166/5/1 167/6/1 168/3/1
f 169/5/1 170/7/1 171/8/1 172/6/1
f 173/7/1 174/9/1 175/10/1 176/8/1
f 177/9/1 178/11/1 179/12/1 180/10/1
f 181/11/1 182/13/1 183/14/1 184/12/1
f 185/13/1 186/15/1 187/16/1 188/14/1
f 189/15/1 190/17/1 191/18/1 192/16/1
f 193/1/1 194/2/1 195/3/1 196/4/1
f 197/2/1 198/5/1 199/6/1 200/3/1
f 201/1/1 202/2/1 203/3/1 204/4/1
f 205/19/1 206/20/1 207/2/1 208/1/1
f 209/20/1 210/21/1 211/5/1 212/2/1
f 213/21/1 214/22/1 215/7/1 216/5/1
f 217/22/1 218/23/1 219/9/1 220/7/1
f 221/23/1 222/24/1 223/11/1 224/9/1
f 225/24/1 226/25/1 227/13/1 228/11/1
f 229/25/1 230/26/1 231/15/1 232/13/1
f 233/26/1 234/27/1 235/17/1 236/15/1
f 237/19/1 238/20/1 239/2/1 240/1/1
f 241/20/1 242/21/1 243/5/1 244/2/1
f 245/21/1 246/22/1 247/7/1 248/5/1
f 249/22/1 250/23/1 251/9/1 252/7/1
f 253/23/1 254/24/1 255/11/1 256/9/1
f 257/24/1 258/25/1 259/13/1 260/11/1
f 261/25/1 262/26/1 263/15/1 264/13/1
f 265/26/1 266/27/1 267/17/1 268/15/1
f 269/19/1 270/20/1 271/2/1 272/1/1
f 273/20/1 274/21/1 275/5/1 276/2/1
f 277/21/1 278/22/1 279/7/1 280/5/1
f 281/22/1 282/23/1 283/9/1 284/7/1
f 285/23/1 286/24/1 287/11/1 288/9/1
f 289/24/1 290/25/1 291/13/1 292/11/1
f 293/25/1 294/26/1 295/15/1 296/13/1
f 297/26/1 298/27/1 299/17/1 300/15/1
f 301/19/1 302/20/1 303/2/1 304/1/1
f 305/20/1 306/21/1 307/5/1 308/2/1
f 309/21/1 310/22/1 311/7/1 312/5/1
f 313/22/1 314/23/1 315/9/1 316/7/1
f 317/23/1 318/24/1 319/11/1 320/9/1
f 321/24/1 322/25/1 323/13/1 324/11/1
f 325/25/1 326/26/1 327/15/1 328/13/1
f 329/26/1 330/27/1 331/17/1 332/15/1
f 333/19/1 334/20/1 335/2/1 336/1/1
f 337/20/1 338/21/1 339/5/1 340/2/1
f 341/21/1 342/22/1 343/7/1 344/5/1
f 345/22/1 346/23/1 347/9/1 348/7/1
f 349/23/1 350/24/1 351/11/1 352/9/1
f 353/24/1 354/25/1 355/13/1 356/11/1
f 357/25/1 358/26/1 359/15/1 360/13/1
f 361/26/1 362/27/1 363/17/1 364/15/1
f 365/19/1 366/20/1 367/2/1 368/1/1
f 369/20/1 370/21/1 371/5/1 372/2/1
f 373/21/1 374/22/1 375/7/1 376/5/1
f 377/22/1 378/23/1 379/9/1 380/7/1
f 381/23/1 382/24/1 383/11/1 384/9/1
f 385/24/1 386/25/1 387/13/1 388/11/1
f 389/25/1 390/26/1 391/15/1 392/13/1
f 393/26/1 394/27/1 395/17/1 396/15/1
f 397/19/1 398/20/1 399/2/1 400/1/1
f 401/28/1 402/29/1 403/20/1 404/19/1
f 405/29/1 406/30/1 407/21/1 408/20/1
f 409/30/1 410/31/1 411/22/1 412/21/1
f 413/31/1 414/32/1 415/23/1 416/22/1
f 417/32/1 418/33/1 419/24/1 420/23/1
f 421/33/1 422/34/1 423/25/1 424/24/1
f 425/34/1 426/35/1 427/26/1 428/25/1
f 429/35/1 430/36/1 431/27/1 432/26/1
f 433/28/1 434/29/1 435/20/1 436/19/1
f 437/29/1 438/30/1 439/21/1 440/20/1
f 441/30/1 442/31/1 443/22/1 444/21/1
f 445/31/1 446/32/1 447/23/1 448/22/1
f 449/32/1 450/33/1 451/24/1 452/23/1
f 453/33/1 454/34/1 455/25/1 456/24/1
f 457/34/1 458/35/1 459/26/1 460/25/1
f 461/35/1 462/36/1 463/27/1 464/26/1
f 465/28/1 466/29/1 467/20/1 468/19/1
f 469/29/1 470/30/1 471/21/1 472/20/1
f 473/30/1 474/31/1 475/22/1 476/21/1
f 477/31/1 478/32/1 479/23/1 480/22/1
f 481/32/1 482/33/1 483/24/1 484/23/1
f 485/33/1 486/34/1 487/25/1 488/24/1
f 489/34/1 490/35/1 491/26/1 492/25/1
f 493/35/1 494/36/1 495/27/1 496/26/1
f 497/28/1 498/29/1 499/20/1 500/19/1
f 501/29/1 502/30/1 503/21/1 504/20/1
f 505/30/1 506/31/1 507/22/1 508/21/1
f 509/31/1 510/32/1 511/23/1 512/22/1
f 513/32/1 514/33/1 515/24/1 516/23/1
f 517/33/1 518/34/1 519/25/1 520/24/1
f 521/34/1 522/35/1 523/26/1 524/25/1
f 525/35/1 526/36/1 527/27/1 528/26/1
f 529/28/1 530/29/1 531/20/1 532/19/1
f 533/29/1 534/30/1 535/21/1 536/20/1
f 537/30/1 538/31/1 539/22/1 540/21/1
f 541/31/1 542/32/1 543/23/1 544/22/1
f 545/32/1 546/33/1 547/24/1 548/23/1
f 549/33/1 550/34/1 551/25/1 552/24/1
f 553/34/1 554/35/1 555/26/1 556/25/1
f 557/35/1 558/36/1 559/27/1 560/26/1
f 561/28/1 562/29/1 563/20/1 564/19/1
f 565/29/1 566/30/1 567/21/1 568/20/1
f 569/30/1 570/31/1 571/22/1 572/21/1
f 573/31/1 574/32/1 575/23/1 576/22/1
f 577/32/1 578/33/1 579/24/1 580/23/1
f 581/33/1 582/34/1 583/25/1 584/24/1
f 585/34/1 586/35/1 587/26/1 588/25/1
f 589/35/1 590/36/1 591/27/1 592/26/1
f 593/28/1 594/29/1 595/20/1 596/19/1
f 597/37/1 598/38/1 599/29/1 600/28/1
f 601/38/1 602/39/1 603/30/1 604/29/1
f 605/39/1 606/40/1 607/31/1 608/30/1
f 609/40/1 610/41/1 611/32/1 612/31/1
f 613/41/1 614/42/1 615/33/1 616/32/1
f 617/42/1 618/43/1 619/34/1 620/33/1
f 621/43/1 622/44/1 623/35/1 624/34/1
f 625/44/1 626/45/1 627/36/1 628/35/1
f 629/37/1 630/38/1 631/29/1 632/28/1
f 633/38/1 634/39/1 635/30/1 636/29/1
f 637/39/1 638/40/1 639/31/1 640/30/1
f 641/40/1 642/41/1 643/32/1 644/31/1
f 645/41/1 646/42/1 647/33/1 648/32/1
f 649/42/1 650/43/1 651/34/1 652/33/1
f 653/43/1 654/44/1 655/35/1 656/34/1
f 657/44/1 658/45/1 659/36/1 660/35/1
f 661/37/1 662/38/1 663/29/1 664/28/1
f 665/38/1 666/39/1 667/30/1 668/29/1
f 669/39/1 670/40/1 671/31/1 672/30/1
f 673/40/1 674/41/1 675/32/1 676/31/1
f 677/41/1 678/42/1 679/33/1 680/32/1
f 681/42/1 682/43/1 683/34/1 684/33/1
f 685/43/1 686/44/1 687/35/1 688/34/1
f 689/44/1 690/45/1 691/36/1 692/35/1
f 693/37/1 694/38/1 695/29/1 696/28/1
f 697/38/1 698/39/1 699/30/1 700/29/1
f 701/39/1 702/40/1 703/31/1 704/30/1
f 705/40/1 706/41/1 707/32/1 708/31/1
f 709/41/1 710/42/1 711/33/1 712/32/1
f 713/42/1 714/43/1 715/34/1 716/33/1
f 717/43/1 718/44/1 719/35/1 720/34/1
f 721/44/1 722/45/1 723/36/1 724/35/1
f 725/37/1 726/38/1 727/29/1 728/28/1
f 729/38/1 730/39/1 731/30/1 732/29/1
f 733/39/1 734/40/1 735/31/1 736/30/1
f 737/40/1 738/41/1 739/32/1 740/31/1
f 741/41/1 742/42/1 743/33/1 744/32/1
f 745/42/1 746/43/1 747/34/1 748/33/1
f 749/43/1 750/44/1 751/35/1 752/34/1
f 753/44/1 754/45/1 755/36/1 756/35/1
f 757/37/1 758/38/1 759/29/1 760/28/1
f 761/38/1 762/39/1 763/30/1 764/29/1
f 765/39/1 766/40/1 767/31/1 768/30/1
f 769/40/1 770/41/1 771/32/1 772/31/1
f 773/41/1 774/42/1 775/33/1 776/32/1
f 777/42/1 778/43/1 779/34/1 780/33/1
f 781/43/1 782/44/1 783/35/1 784/34/1
f 785/44/1 786/45/1 787/36/1 788/35/1
f 789/37/1 790/38/1 791/29/1 792/28/1

