# Tiled2Unity generated file. Do not modify by hand.
# Wavefront file for 'Stage01_mesh_0004.obj'

# Vertices (Count = 96)
v -240 -288 0
v -288 -288 0
v -288 -240 0
v -240 -240 0
v -288 -288 0
v -336 -288 0
v -336 -240 0
v -288 -240 0
v -336 -288 0
v -384 -288 0
v -384 -240 0
v -336 -240 0
v -384 -288 0
v -432 -288 0
v -432 -240 0
v -384 -240 0
v -432 -288 0
v -480 -288 0
v -480 -240 0
v -432 -240 0
v -480 -288 0
v -528 -288 0
v -528 -240 0
v -480 -240 0
v -528 -288 0
v -576 -288 0
v -576 -240 0
v -528 -240 0
v -576 -288 0
v -624 -288 0
v -624 -240 0
v -576 -240 0
v -624 -288 0
v -672 -288 0
v -672 -240 0
v -624 -240 0
v -672 -288 0
v -720 -288 0
v -720 -240 0
v -672 -240 0
v -720 -288 0
v -768 -288 0
v -768 -240 0
v -720 -240 0
v -768 -288 0
v -816 -288 0
v -816 -240 0
v -768 -240 0
v -240 -336 0
v -288 -336 0
v -288 -288 0
v -240 -288 0
v -288 -336 0
v -336 -336 0
v -336 -288 0
v -288 -288 0
v -336 -336 0
v -384 -336 0
v -384 -288 0
v -336 -288 0
v -384 -336 0
v -432 -336 0
v -432 -288 0
v -384 -288 0
v -432 -336 0
v -480 -336 0
v -480 -288 0
v -432 -288 0
v -480 -336 0
v -528 -336 0
v -528 -288 0
v -480 -288 0
v -528 -336 0
v -576 -336 0
v -576 -288 0
v -528 -288 0
v -576 -336 0
v -624 -336 0
v -624 -288 0
v -576 -288 0
v -624 -336 0
v -672 -336 0
v -672 -288 0
v -624 -288 0
v -672 -336 0
v -720 -336 0
v -720 -288 0
v -672 -288 0
v -720 -336 0
v -768 -336 0
v -768 -288 0
v -720 -288 0
v -768 -336 0
v -816 -336 0
v -816 -288 0
v -768 -288 0

# Texture cooridinates (Count = 15)
vt 0 0.08333331
vt 0.25 0.08333331
vt 0.25 0.1666667
vt 0 0.1666667
vt 0.5 0.08333331
vt 0.5 0.1666667
vt 0.75 0.08333331
vt 0.75 0.1666667
vt 1 0.08333331
vt 1 0.1666667
vt 0 0
vt 0.25 0
vt 0.5 0
vt 0.75 0
vt 1 0

# Normal
vn 0 0 -1

# Mesh description
g Stage01_mesh_0004

# Faces
f 1/1/1 2/2/1 3/3/1 4/4/1
f 5/2/1 6/5/1 7/6/1 8/3/1
f 9/5/1 10/7/1 11/8/1 12/6/1
f 13/7/1 14/9/1 15/10/1 16/8/1
f 17/1/1 18/2/1 19/3/1 20/4/1
f 21/2/1 22/5/1 23/6/1 24/3/1
f 25/5/1 26/7/1 27/8/1 28/6/1
f 29/7/1 30/9/1 31/10/1 32/8/1
f 33/1/1 34/2/1 35/3/1 36/4/1
f 37/2/1 38/5/1 39/6/1 40/3/1
f 41/5/1 42/7/1 43/8/1 44/6/1
f 45/7/1 46/9/1 47/10/1 48/8/1
f 49/11/1 50/12/1 51/2/1 52/1/1
f 53/12/1 54/13/1 55/5/1 56/2/1
f 57/13/1 58/14/1 59/7/1 60/5/1
f 61/14/1 62/15/1 63/9/1 64/7/1
f 65/11/1 66/12/1 67/2/1 68/1/1
f 69/12/1 70/13/1 71/5/1 72/2/1
f 73/13/1 74/14/1 75/7/1 76/5/1
f 77/14/1 78/15/1 79/9/1 80/7/1
f 81/11/1 82/12/1 83/2/1 84/1/1
f 85/12/1 86/13/1 87/5/1 88/2/1
f 89/13/1 90/14/1 91/7/1 92/5/1
f 93/14/1 94/15/1 95/9/1 96/7/1

