# Tiled2Unity generated file. Do not modify by hand.
# Wavefront file for 'Stage01_mesh_0003.obj'

# Vertices (Count = 112)
v -288 -48 0
v -336 -48 0
v -336 0 0
v -288 0 0
v -336 -48 0
v -384 -48 0
v -384 0 0
v -336 0 0
v -384 -48 0
v -432 -48 0
v -432 0 0
v -384 0 0
v -576 -48 0
v -624 -48 0
v -624 0 0
v -576 0 0
v -624 -48 0
v -672 -48 0
v -672 0 0
v -624 0 0
v -672 -48 0
v -720 -48 0
v -720 0 0
v -672 0 0
v -720 -48 0
v -768 -48 0
v -768 0 0
v -720 0 0
v -768 -48 0
v -816 -48 0
v -816 0 0
v -768 0 0
v -240 -96 0
v -288 -96 0
v -288 -48 0
v -240 -48 0
v -288 -96 0
v -336 -96 0
v -336 -48 0
v -288 -48 0
v -336 -96 0
v -384 -96 0
v -384 -48 0
v -336 -48 0
v -384 -96 0
v -432 -96 0
v -432 -48 0
v -384 -48 0
v -576 -96 0
v -624 -96 0
v -624 -48 0
v -576 -48 0
v -624 -96 0
v -672 -96 0
v -672 -48 0
v -624 -48 0
v -672 -96 0
v -720 -96 0
v -720 -48 0
v -672 -48 0
v -720 -96 0
v -768 -96 0
v -768 -48 0
v -720 -48 0
v -768 -96 0
v -816 -96 0
v -816 -48 0
v -768 -48 0
v -240 -144 0
v -288 -144 0
v -288 -96 0
v -240 -96 0
v -288 -144 0
v -336 -144 0
v -336 -96 0
v -288 -96 0
v -336 -144 0
v -384 -144 0
v -384 -96 0
v -336 -96 0
v -384 -144 0
v -432 -144 0
v -432 -96 0
v -384 -96 0
v -576 -144 0
v -624 -144 0
v -624 -96 0
v -576 -96 0
v -624 -144 0
v -672 -144 0
v -672 -96 0
v -624 -96 0
v -672 -144 0
v -720 -144 0
v -720 -96 0
v -672 -96 0
v -720 -144 0
v -768 -144 0
v -768 -96 0
v -720 -96 0
v -768 -144 0
v -816 -144 0
v -816 -96 0
v -768 -96 0
v -240 -192 0
v -288 -192 0
v -288 -144 0
v -240 -144 0
v -288 -192 0
v -336 -192 0
v -336 -144 0
v -288 -144 0

# Texture cooridinates (Count = 34)
vt 1 0.75
vt 0.875 0.75
vt 0.875 1
vt 1 1
vt 0.75 0.75
vt 0.75 1
vt 0.625 0.75
vt 0.625 1
vt 0 0.75
vt 0.125 0.75
vt 0.125 1
vt 0 1
vt 0.25 0.75
vt 0.25 1
vt 0.375 0.75
vt 0.375 1
vt 0.5 0.75
vt 0.5 1
vt 0.875 0.5
vt 0.75 0.5
vt 0.625 0.5
vt 0 0.5
vt 0.125 0.5
vt 0.25 0.5
vt 0.375 0.5
vt 0.5 0.5
vt 0.875 0.25
vt 0.75 0.25
vt 0.625 0.25
vt 0 0.25
vt 0.125 0.25
vt 0.25 0.25
vt 0.375 0.25
vt 0.5 0.25

# Normal
vn 0 0 -1

# Mesh description
g Stage01_mesh_0003

# Faces
f 1/1/1 2/2/1 3/3/1 4/4/1
f 5/2/1 6/5/1 7/6/1 8/3/1
f 9/5/1 10/7/1 11/8/1 12/6/1
f 13/9/1 14/10/1 15/11/1 16/12/1
f 17/10/1 18/13/1 19/14/1 20/11/1
f 21/13/1 22/15/1 23/16/1 24/14/1
f 25/15/1 26/17/1 27/18/1 28/16/1
f 29/17/1 30/7/1 31/8/1 32/18/1
f 33/15/1 34/13/1 35/14/1 36/16/1
f 37/13/1 38/10/1 39/11/1 40/14/1
f 41/19/1 42/20/1 43/5/1 44/2/1
f 45/20/1 46/21/1 47/7/1 48/5/1
f 49/22/1 50/23/1 51/10/1 52/9/1
f 53/23/1 54/24/1 55/13/1 56/10/1
f 57/24/1 58/25/1 59/15/1 60/13/1
f 61/25/1 62/26/1 63/17/1 64/15/1
f 65/26/1 66/21/1 67/7/1 68/17/1
f 69/9/1 70/10/1 71/11/1 72/12/1
f 73/9/1 74/10/1 75/11/1 76/12/1
f 77/27/1 78/28/1 79/20/1 80/19/1
f 81/28/1 82/29/1 83/21/1 84/20/1
f 85/30/1 86/31/1 87/23/1 88/22/1
f 89/31/1 90/32/1 91/24/1 92/23/1
f 93/32/1 94/33/1 95/25/1 96/24/1
f 97/33/1 98/34/1 99/26/1 100/25/1
f 101/34/1 102/29/1 103/21/1 104/26/1
f 105/9/1 106/10/1 107/11/1 108/12/1
f 109/9/1 110/10/1 111/11/1 112/12/1

