# Tiled2Unity generated file. Do not modify by hand.
# Wavefront file for 'Stage01_mesh_0001.obj'

# Vertices (Count = 272)
v 0 -48 0
v -48 -48 0
v -48 0 0
v 0 0 0
v -48 -48 0
v -96 -48 0
v -96 0 0
v -48 0 0
v -96 -48 0
v -144 -48 0
v -144 0 0
v -96 0 0
v -144 -48 0
v -192 -48 0
v -192 0 0
v -144 0 0
v -192 -48 0
v -240 -48 0
v -240 0 0
v -192 0 0
v -240 -48 0
v -288 -48 0
v -288 0 0
v -240 0 0
v -288 -48 0
v -336 -48 0
v -336 0 0
v -288 0 0
v -336 -48 0
v -384 -48 0
v -384 0 0
v -336 0 0
v -384 -48 0
v -432 -48 0
v -432 0 0
v -384 0 0
v -432 -48 0
v -480 -48 0
v -480 0 0
v -432 0 0
v -480 -48 0
v -528 -48 0
v -528 0 0
v -480 0 0
v -528 -48 0
v -576 -48 0
v -576 0 0
v -528 0 0
v -576 -48 0
v -624 -48 0
v -624 0 0
v -576 0 0
v -624 -48 0
v -672 -48 0
v -672 0 0
v -624 0 0
v -672 -48 0
v -720 -48 0
v -720 0 0
v -672 0 0
v -720 -48 0
v -768 -48 0
v -768 0 0
v -720 0 0
v -768 -48 0
v -816 -48 0
v -816 0 0
v -768 0 0
v 0 -96 0
v -48 -96 0
v -48 -48 0
v 0 -48 0
v -48 -96 0
v -96 -96 0
v -96 -48 0
v -48 -48 0
v -96 -96 0
v -144 -96 0
v -144 -48 0
v -96 -48 0
v -144 -96 0
v -192 -96 0
v -192 -48 0
v -144 -48 0
v -192 -96 0
v -240 -96 0
v -240 -48 0
v -192 -48 0
v -240 -96 0
v -288 -96 0
v -288 -48 0
v -240 -48 0
v -288 -96 0
v -336 -96 0
v -336 -48 0
v -288 -48 0
v -336 -96 0
v -384 -96 0
v -384 -48 0
v -336 -48 0
v -384 -96 0
v -432 -96 0
v -432 -48 0
v -384 -48 0
v -432 -96 0
v -480 -96 0
v -480 -48 0
v -432 -48 0
v -480 -96 0
v -528 -96 0
v -528 -48 0
v -480 -48 0
v -528 -96 0
v -576 -96 0
v -576 -48 0
v -528 -48 0
v -576 -96 0
v -624 -96 0
v -624 -48 0
v -576 -48 0
v -624 -96 0
v -672 -96 0
v -672 -48 0
v -624 -48 0
v -672 -96 0
v -720 -96 0
v -720 -48 0
v -672 -48 0
v -720 -96 0
v -768 -96 0
v -768 -48 0
v -720 -48 0
v -768 -96 0
v -816 -96 0
v -816 -48 0
v -768 -48 0
v 0 -144 0
v -48 -144 0
v -48 -96 0
v 0 -96 0
v -48 -144 0
v -96 -144 0
v -96 -96 0
v -48 -96 0
v -96 -144 0
v -144 -144 0
v -144 -96 0
v -96 -96 0
v -144 -144 0
v -192 -144 0
v -192 -96 0
v -144 -96 0
v -192 -144 0
v -240 -144 0
v -240 -96 0
v -192 -96 0
v -240 -144 0
v -288 -144 0
v -288 -96 0
v -240 -96 0
v -288 -144 0
v -336 -144 0
v -336 -96 0
v -288 -96 0
v -336 -144 0
v -384 -144 0
v -384 -96 0
v -336 -96 0
v -384 -144 0
v -432 -144 0
v -432 -96 0
v -384 -96 0
v -432 -144 0
v -480 -144 0
v -480 -96 0
v -432 -96 0
v -480 -144 0
v -528 -144 0
v -528 -96 0
v -480 -96 0
v -528 -144 0
v -576 -144 0
v -576 -96 0
v -528 -96 0
v -576 -144 0
v -624 -144 0
v -624 -96 0
v -576 -96 0
v -624 -144 0
v -672 -144 0
v -672 -96 0
v -624 -96 0
v -672 -144 0
v -720 -144 0
v -720 -96 0
v -672 -96 0
v -720 -144 0
v -768 -144 0
v -768 -96 0
v -720 -96 0
v -768 -144 0
v -816 -144 0
v -816 -96 0
v -768 -96 0
v 0 -192 0
v -48 -192 0
v -48 -144 0
v 0 -144 0
v -48 -192 0
v -96 -192 0
v -96 -144 0
v -48 -144 0
v -96 -192 0
v -144 -192 0
v -144 -144 0
v -96 -144 0
v -144 -192 0
v -192 -192 0
v -192 -144 0
v -144 -144 0
v -192 -192 0
v -240 -192 0
v -240 -144 0
v -192 -144 0
v -240 -192 0
v -288 -192 0
v -288 -144 0
v -240 -144 0
v -288 -192 0
v -336 -192 0
v -336 -144 0
v -288 -144 0
v -336 -192 0
v -384 -192 0
v -384 -144 0
v -336 -144 0
v -384 -192 0
v -432 -192 0
v -432 -144 0
v -384 -144 0
v -432 -192 0
v -480 -192 0
v -480 -144 0
v -432 -144 0
v -480 -192 0
v -528 -192 0
v -528 -144 0
v -480 -144 0
v -528 -192 0
v -576 -192 0
v -576 -144 0
v -528 -144 0
v -576 -192 0
v -624 -192 0
v -624 -144 0
v -576 -144 0
v -624 -192 0
v -672 -192 0
v -672 -144 0
v -624 -144 0
v -672 -192 0
v -720 -192 0
v -720 -144 0
v -672 -144 0
v -720 -192 0
v -768 -192 0
v -768 -144 0
v -720 -144 0
v -768 -192 0
v -816 -192 0
v -816 -144 0
v -768 -144 0

# Texture cooridinates (Count = 45)
vt 0 0.75
vt 0.125 0.75
vt 0.125 1
vt 0 1
vt 0.375 0.75
vt 0.5 0.75
vt 0.5 1
vt 0.375 1
vt 0.625 0.75
vt 0.625 1
vt 0.75 0.75
vt 0.75 1
vt 0.25 0.75
vt 0.25 1
vt 0.875 0.75
vt 0.875 1
vt 1 0.75
vt 1 1
vt 0 0.5
vt 0.125 0.5
vt 0.375 0.5
vt 0.5 0.5
vt 0.625 0.5
vt 0.75 0.5
vt 0.25 0.5
vt 0.875 0.5
vt 1 0.5
vt 0 0.25
vt 0.125 0.25
vt 0.375 0.25
vt 0.5 0.25
vt 0.625 0.25
vt 0.75 0.25
vt 0.25 0.25
vt 0.875 0.25
vt 1 0.25
vt 0 0
vt 0.125 0
vt 0.375 0
vt 0.5 0
vt 0.625 0
vt 0.75 0
vt 0.25 0
vt 0.875 0
vt 1 0

# Normal
vn 0 0 -1

# Mesh description
g Stage01_mesh_0001

# Faces
f 1/1/1 2/2/1 3/3/1 4/4/1
f 5/5/1 6/6/1 7/7/1 8/8/1
f 9/6/1 10/9/1 11/10/1 12/7/1
f 13/9/1 14/11/1 15/12/1 16/10/1
f 17/2/1 18/13/1 19/14/1 20/3/1
f 21/13/1 22/5/1 23/8/1 24/14/1
f 25/5/1 26/6/1 27/7/1 28/8/1
f 29/6/1 30/9/1 31/10/1 32/7/1
f 33/9/1 34/11/1 35/12/1 36/10/1
f 37/11/1 38/15/1 39/16/1 40/12/1
f 41/13/1 42/5/1 43/8/1 44/14/1
f 45/13/1 46/5/1 47/8/1 48/14/1
f 49/2/1 50/13/1 51/14/1 52/3/1
f 53/9/1 54/11/1 55/12/1 56/10/1
f 57/5/1 58/6/1 59/7/1 60/8/1
f 61/6/1 62/9/1 63/10/1 64/7/1
f 65/15/1 66/17/1 67/18/1 68/16/1
f 69/19/1 70/20/1 71/2/1 72/1/1
f 73/21/1 74/22/1 75/6/1 76/5/1
f 77/22/1 78/23/1 79/9/1 80/6/1
f 81/23/1 82/24/1 83/11/1 84/9/1
f 85/20/1 86/25/1 87/13/1 88/2/1
f 89/25/1 90/21/1 91/5/1 92/13/1
f 93/21/1 94/22/1 95/6/1 96/5/1
f 97/22/1 98/23/1 99/9/1 100/6/1
f 101/23/1 102/24/1 103/11/1 104/9/1
f 105/24/1 106/26/1 107/15/1 108/11/1
f 109/25/1 110/21/1 111/5/1 112/13/1
f 113/25/1 114/21/1 115/5/1 116/13/1
f 117/20/1 118/25/1 119/13/1 120/2/1
f 121/23/1 122/24/1 123/11/1 124/9/1
f 125/21/1 126/22/1 127/6/1 128/5/1
f 129/22/1 130/23/1 131/9/1 132/6/1
f 133/26/1 134/27/1 135/17/1 136/15/1
f 137/28/1 138/29/1 139/20/1 140/19/1
f 141/30/1 142/31/1 143/22/1 144/21/1
f 145/31/1 146/32/1 147/23/1 148/22/1
f 149/32/1 150/33/1 151/24/1 152/23/1
f 153/29/1 154/34/1 155/25/1 156/20/1
f 157/34/1 158/30/1 159/21/1 160/25/1
f 161/30/1 162/31/1 163/22/1 164/21/1
f 165/31/1 166/32/1 167/23/1 168/22/1
f 169/32/1 170/33/1 171/24/1 172/23/1
f 173/33/1 174/35/1 175/26/1 176/24/1
f 177/34/1 178/30/1 179/21/1 180/25/1
f 181/34/1 182/30/1 183/21/1 184/25/1
f 185/29/1 186/34/1 187/25/1 188/20/1
f 189/32/1 190/33/1 191/24/1 192/23/1
f 193/30/1 194/31/1 195/22/1 196/21/1
f 197/31/1 198/32/1 199/23/1 200/22/1
f 201/35/1 202/36/1 203/27/1 204/26/1
f 205/37/1 206/38/1 207/29/1 208/28/1
f 209/39/1 210/40/1 211/31/1 212/30/1
f 213/40/1 214/41/1 215/32/1 216/31/1
f 217/41/1 218/42/1 219/33/1 220/32/1
f 221/38/1 222/43/1 223/34/1 224/29/1
f 225/43/1 226/39/1 227/30/1 228/34/1
f 229/39/1 230/40/1 231/31/1 232/30/1
f 233/40/1 234/41/1 235/32/1 236/31/1
f 237/41/1 238/42/1 239/33/1 240/32/1
f 241/42/1 242/44/1 243/35/1 244/33/1
f 245/43/1 246/39/1 247/30/1 248/34/1
f 249/43/1 250/39/1 251/30/1 252/34/1
f 253/38/1 254/43/1 255/34/1 256/29/1
f 257/41/1 258/42/1 259/33/1 260/32/1
f 261/39/1 262/40/1 263/31/1 264/30/1
f 265/40/1 266/41/1 267/32/1 268/31/1
f 269/44/1 270/45/1 271/36/1 272/35/1

