# Tiled2Unity generated file. Do not modify by hand.
# Wavefront file for 'Stage01_mesh_0010.obj'

# Vertices (Count = 8)
v -576 -240 0
v -624 -240 0
v -624 -192 0
v -576 -192 0
v -576 -288 0
v -624 -288 0
v -624 -240 0
v -576 -240 0

# Texture cooridinates (Count = 6)
vt 0.3333333 0.5
vt 0.6666667 0.5
vt 0.6666667 0.6666666
vt 0.3333333 0.6666666
vt 0.3333333 0.3333333
vt 0.6666667 0.3333333

# Normal
vn 0 0 -1

# Mesh description
g Stage01_mesh_0010

# Faces
f 1/1/1 2/2/1 3/3/1 4/4/1
f 5/5/1 6/6/1 7/2/1 8/1/1

