# Tiled2Unity generated file. Do not modify by hand.
# Wavefront file for 'Stage05_mesh_0004.obj'

# Vertices (Count = 432)
v -144 -240 0
v -192 -240 0
v -192 -192 0
v -144 -192 0
v -192 -240 0
v -240 -240 0
v -240 -192 0
v -192 -192 0
v -240 -240 0
v -288 -240 0
v -288 -192 0
v -240 -192 0
v -288 -240 0
v -336 -240 0
v -336 -192 0
v -288 -192 0
v -336 -240 0
v -384 -240 0
v -384 -192 0
v -336 -192 0
v -384 -240 0
v -432 -240 0
v -432 -192 0
v -384 -192 0
v -432 -240 0
v -480 -240 0
v -480 -192 0
v -432 -192 0
v -480 -240 0
v -528 -240 0
v -528 -192 0
v -480 -192 0
v -528 -240 0
v -576 -240 0
v -576 -192 0
v -528 -192 0
v -576 -240 0
v -624 -240 0
v -624 -192 0
v -576 -192 0
v -624 -240 0
v -672 -240 0
v -672 -192 0
v -624 -192 0
v -672 -240 0
v -720 -240 0
v -720 -192 0
v -672 -192 0
v -720 -240 0
v -768 -240 0
v -768 -192 0
v -720 -192 0
v -768 -240 0
v -816 -240 0
v -816 -192 0
v -768 -192 0
v -816 -240 0
v -864 -240 0
v -864 -192 0
v -816 -192 0
v -864 -240 0
v -912 -240 0
v -912 -192 0
v -864 -192 0
v -912 -240 0
v -960 -240 0
v -960 -192 0
v -912 -192 0
v -960 -240 0
v -1008 -240 0
v -1008 -192 0
v -960 -192 0
v -1008 -240 0
v -1056 -240 0
v -1056 -192 0
v -1008 -192 0
v -1056 -240 0
v -1104 -240 0
v -1104 -192 0
v -1056 -192 0
v -1104 -240 0
v -1152 -240 0
v -1152 -192 0
v -1104 -192 0
v -1152 -240 0
v -1200 -240 0
v -1200 -192 0
v -1152 -192 0
v -768 -288 0
v -816 -288 0
v -816 -240 0
v -768 -240 0
v -1152 -288 0
v -1200 -288 0
v -1200 -240 0
v -1152 -240 0
v -144 -336 0
v -192 -336 0
v -192 -288 0
v -144 -288 0
v -240 -336 0
v -288 -336 0
v -288 -288 0
v -240 -288 0
v -288 -336 0
v -336 -336 0
v -336 -288 0
v -288 -288 0
v -336 -336 0
v -384 -336 0
v -384 -288 0
v -336 -288 0
v -384 -336 0
v -432 -336 0
v -432 -288 0
v -384 -288 0
v -432 -336 0
v -480 -336 0
v -480 -288 0
v -432 -288 0
v -480 -336 0
v -528 -336 0
v -528 -288 0
v -480 -288 0
v -528 -336 0
v -576 -336 0
v -576 -288 0
v -528 -288 0
v -576 -336 0
v -624 -336 0
v -624 -288 0
v -576 -288 0
v -672 -336 0
v -720 -336 0
v -720 -288 0
v -672 -288 0
v -720 -336 0
v -768 -336 0
v -768 -288 0
v -720 -288 0
v -768 -336 0
v -816 -336 0
v -816 -288 0
v -768 -288 0
v -864 -336 0
v -912 -336 0
v -912 -288 0
v -864 -288 0
v -912 -336 0
v -960 -336 0
v -960 -288 0
v -912 -288 0
v -960 -336 0
v -1008 -336 0
v -1008 -288 0
v -960 -288 0
v -1008 -336 0
v -1056 -336 0
v -1056 -288 0
v -1008 -288 0
v -1056 -336 0
v -1104 -336 0
v -1104 -288 0
v -1056 -288 0
v -1104 -336 0
v -1152 -336 0
v -1152 -288 0
v -1104 -288 0
v -1152 -336 0
v -1200 -336 0
v -1200 -288 0
v -1152 -288 0
v -144 -384 0
v -192 -384 0
v -192 -336 0
v -144 -336 0
v -336 -384 0
v -384 -384 0
v -384 -336 0
v -336 -336 0
v -672 -384 0
v -720 -384 0
v -720 -336 0
v -672 -336 0
v -1056 -384 0
v -1104 -384 0
v -1104 -336 0
v -1056 -336 0
v -1152 -384 0
v -1200 -384 0
v -1200 -336 0
v -1152 -336 0
v -144 -432 0
v -192 -432 0
v -192 -384 0
v -144 -384 0
v -240 -432 0
v -288 -432 0
v -288 -384 0
v -240 -384 0
v -336 -432 0
v -384 -432 0
v -384 -384 0
v -336 -384 0
v -432 -432 0
v -480 -432 0
v -480 -384 0
v -432 -384 0
v -480 -432 0
v -528 -432 0
v -528 -384 0
v -480 -384 0
v -528 -432 0
v -576 -432 0
v -576 -384 0
v -528 -384 0
v -576 -432 0
v -624 -432 0
v -624 -384 0
v -576 -384 0
v -672 -432 0
v -720 -432 0
v -720 -384 0
v -672 -384 0
v -720 -432 0
v -768 -432 0
v -768 -384 0
v -720 -384 0
v -768 -432 0
v -816 -432 0
v -816 -384 0
v -768 -384 0
v -816 -432 0
v -864 -432 0
v -864 -384 0
v -816 -384 0
v -864 -432 0
v -912 -432 0
v -912 -384 0
v -864 -384 0
v -960 -432 0
v -1008 -432 0
v -1008 -384 0
v -960 -384 0
v -1056 -432 0
v -1104 -432 0
v -1104 -384 0
v -1056 -384 0
v -1152 -432 0
v -1200 -432 0
v -1200 -384 0
v -1152 -384 0
v -144 -480 0
v -192 -480 0
v -192 -432 0
v -144 -432 0
v -240 -480 0
v -288 -480 0
v -288 -432 0
v -240 -432 0
v -336 -480 0
v -384 -480 0
v -384 -432 0
v -336 -432 0
v -576 -480 0
v -624 -480 0
v -624 -432 0
v -576 -432 0
v -864 -480 0
v -912 -480 0
v -912 -432 0
v -864 -432 0
v -960 -480 0
v -1008 -480 0
v -1008 -432 0
v -960 -432 0
v -1056 -480 0
v -1104 -480 0
v -1104 -432 0
v -1056 -432 0
v -1152 -480 0
v -1200 -480 0
v -1200 -432 0
v -1152 -432 0
v -144 -528 0
v -192 -528 0
v -192 -480 0
v -144 -480 0
v -192 -528 0
v -240 -528 0
v -240 -480 0
v -192 -480 0
v -240 -528 0
v -288 -528 0
v -288 -480 0
v -240 -480 0
v -336 -528 0
v -384 -528 0
v -384 -480 0
v -336 -480 0
v -384 -528 0
v -432 -528 0
v -432 -480 0
v -384 -480 0
v -432 -528 0
v -480 -528 0
v -480 -480 0
v -432 -480 0
v -480 -528 0
v -528 -528 0
v -528 -480 0
v -480 -480 0
v -576 -528 0
v -624 -528 0
v -624 -480 0
v -576 -480 0
v -864 -528 0
v -912 -528 0
v -912 -480 0
v -864 -480 0
v -960 -528 0
v -1008 -528 0
v -1008 -480 0
v -960 -480 0
v -1056 -528 0
v -1104 -528 0
v -1104 -480 0
v -1056 -480 0
v -1152 -528 0
v -1200 -528 0
v -1200 -480 0
v -1152 -480 0
v -576 -576 0
v -624 -576 0
v -624 -528 0
v -576 -528 0
v -960 -576 0
v -1008 -576 0
v -1008 -528 0
v -960 -528 0
v -1152 -576 0
v -1200 -576 0
v -1200 -528 0
v -1152 -528 0
v -144 -624 0
v -192 -624 0
v -192 -576 0
v -144 -576 0
v -192 -624 0
v -240 -624 0
v -240 -576 0
v -192 -576 0
v -240 -624 0
v -288 -624 0
v -288 -576 0
v -240 -576 0
v -288 -624 0
v -336 -624 0
v -336 -576 0
v -288 -576 0
v -336 -624 0
v -384 -624 0
v -384 -576 0
v -336 -576 0
v -384 -624 0
v -432 -624 0
v -432 -576 0
v -384 -576 0
v -432 -624 0
v -480 -624 0
v -480 -576 0
v -432 -576 0
v -480 -624 0
v -528 -624 0
v -528 -576 0
v -480 -576 0
v -528 -624 0
v -576 -624 0
v -576 -576 0
v -528 -576 0
v -576 -624 0
v -624 -624 0
v -624 -576 0
v -576 -576 0
v -624 -624 0
v -672 -624 0
v -672 -576 0
v -624 -576 0
v -672 -624 0
v -720 -624 0
v -720 -576 0
v -672 -576 0
v -720 -624 0
v -768 -624 0
v -768 -576 0
v -720 -576 0
v -768 -624 0
v -816 -624 0
v -816 -576 0
v -768 -576 0
v -816 -624 0
v -864 -624 0
v -864 -576 0
v -816 -576 0
v -864 -624 0
v -912 -624 0
v -912 -576 0
v -864 -576 0
v -912 -624 0
v -960 -624 0
v -960 -576 0
v -912 -576 0
v -960 -624 0
v -1008 -624 0
v -1008 -576 0
v -960 -576 0
v -1008 -624 0
v -1056 -624 0
v -1056 -576 0
v -1008 -576 0
v -1056 -624 0
v -1104 -624 0
v -1104 -576 0
v -1056 -576 0
v -1104 -624 0
v -1152 -624 0
v -1152 -576 0
v -1104 -576 0
v -1152 -624 0
v -1200 -624 0
v -1200 -576 0
v -1152 -576 0

# Texture cooridinates (Count = 25)
vt 0 0.75
vt 0.25 0.75
vt 0.25 1
vt 0 1
vt 0.5 0.75
vt 0.5 1
vt 0.75 0.75
vt 0.75 1
vt 1 0.75
vt 1 1
vt 0.5 0.25
vt 0.75 0.25
vt 0.75 0.5
vt 0.5 0.5
vt 1 0.5
vt 0 0.5
vt 0.25 0.5
vt 1 0.25
vt 0 0.25
vt 0.25 0.25
vt 0.75 0
vt 1 0
vt 0 0
vt 0.25 0
vt 0.5 0

# Normal
vn 0 0 -1

# Mesh description
g Stage05_mesh_0004

# Faces
f 1/1/1 2/2/1 3/3/1 4/4/1
f 5/2/1 6/5/1 7/6/1 8/3/1
f 9/5/1 10/7/1 11/8/1 12/6/1
f 13/7/1 14/9/1 15/10/1 16/8/1
f 17/5/1 18/7/1 19/8/1 20/6/1
f 21/7/1 22/9/1 23/10/1 24/8/1
f 25/2/1 26/5/1 27/6/1 28/3/1
f 29/5/1 30/7/1 31/8/1 32/6/1
f 33/7/1 34/9/1 35/10/1 36/8/1
f 37/1/1 38/2/1 39/3/1 40/4/1
f 41/2/1 42/5/1 43/6/1 44/3/1
f 45/5/1 46/7/1 47/8/1 48/6/1
f 49/7/1 50/9/1 51/10/1 52/8/1
f 53/1/1 54/2/1 55/3/1 56/4/1
f 57/2/1 58/5/1 59/6/1 60/3/1
f 61/5/1 62/7/1 63/8/1 64/6/1
f 65/7/1 66/9/1 67/10/1 68/8/1
f 69/1/1 70/2/1 71/3/1 72/4/1
f 73/2/1 74/5/1 75/6/1 76/3/1
f 77/5/1 78/7/1 79/8/1 80/6/1
f 81/7/1 82/9/1 83/10/1 84/8/1
f 85/7/1 86/9/1 87/10/1 88/8/1
f 89/11/1 90/12/1 91/13/1 92/14/1
f 93/13/1 94/15/1 95/9/1 96/7/1
f 97/7/1 98/9/1 99/10/1 100/8/1
f 101/16/1 102/17/1 103/2/1 104/1/1
f 105/17/1 106/14/1 107/5/1 108/2/1
f 109/14/1 110/13/1 111/7/1 112/5/1
f 113/13/1 114/15/1 115/9/1 116/7/1
f 117/16/1 118/17/1 119/2/1 120/1/1
f 121/17/1 122/14/1 123/5/1 124/2/1
f 125/14/1 126/13/1 127/7/1 128/5/1
f 129/13/1 130/15/1 131/9/1 132/7/1
f 133/16/1 134/17/1 135/2/1 136/1/1
f 137/17/1 138/14/1 139/5/1 140/2/1
f 141/14/1 142/13/1 143/7/1 144/5/1
f 145/16/1 146/17/1 147/2/1 148/1/1
f 149/17/1 150/14/1 151/5/1 152/2/1
f 153/16/1 154/17/1 155/2/1 156/1/1
f 157/17/1 158/14/1 159/5/1 160/2/1
f 161/14/1 162/13/1 163/7/1 164/5/1
f 165/13/1 166/15/1 167/9/1 168/7/1
f 169/12/1 170/18/1 171/15/1 172/13/1
f 173/13/1 174/15/1 175/9/1 176/7/1
f 177/14/1 178/13/1 179/7/1 180/5/1
f 181/19/1 182/20/1 183/17/1 184/16/1
f 185/5/1 186/7/1 187/8/1 188/6/1
f 189/21/1 190/22/1 191/18/1 192/12/1
f 193/12/1 194/18/1 195/15/1 196/13/1
f 197/5/1 198/7/1 199/8/1 200/6/1
f 201/11/1 202/12/1 203/13/1 204/14/1
f 205/19/1 206/20/1 207/17/1 208/16/1
f 209/20/1 210/11/1 211/14/1 212/17/1
f 213/11/1 214/12/1 215/13/1 216/14/1
f 217/2/1 218/5/1 219/6/1 220/3/1
f 221/23/1 222/24/1 223/20/1 224/19/1
f 225/1/1 226/2/1 227/3/1 228/4/1
f 229/2/1 230/5/1 231/6/1 232/3/1
f 233/5/1 234/7/1 235/8/1 236/6/1
f 237/14/1 238/13/1 239/7/1 240/5/1
f 241/1/1 242/2/1 243/3/1 244/4/1
f 245/14/1 246/13/1 247/7/1 248/5/1
f 249/7/1 250/9/1 251/10/1 252/8/1
f 253/21/1 254/22/1 255/18/1 256/12/1
f 257/14/1 258/13/1 259/7/1 260/5/1
f 261/25/1 262/21/1 263/12/1 264/11/1
f 265/11/1 266/12/1 267/13/1 268/14/1
f 269/11/1 270/12/1 271/13/1 272/14/1
f 273/16/1 274/17/1 275/2/1 276/1/1
f 277/11/1 278/12/1 279/13/1 280/14/1
f 281/13/1 282/15/1 283/9/1 284/7/1
f 285/19/1 286/20/1 287/17/1 288/16/1
f 289/20/1 290/11/1 291/14/1 292/17/1
f 293/11/1 294/12/1 295/13/1 296/14/1
f 297/1/1 298/2/1 299/3/1 300/4/1
f 301/2/1 302/5/1 303/6/1 304/3/1
f 305/5/1 306/7/1 307/8/1 308/6/1
f 309/7/1 310/9/1 311/10/1 312/8/1
f 313/20/1 314/11/1 315/14/1 316/17/1
f 317/25/1 318/21/1 319/12/1 320/11/1
f 321/19/1 322/20/1 323/17/1 324/16/1
f 325/25/1 326/21/1 327/12/1 328/11/1
f 329/12/1 330/18/1 331/15/1 332/13/1
f 333/24/1 334/25/1 335/11/1 336/20/1
f 337/23/1 338/24/1 339/20/1 340/19/1
f 341/21/1 342/22/1 343/18/1 344/12/1
f 345/1/1 346/2/1 347/3/1 348/4/1
f 349/2/1 350/5/1 351/6/1 352/3/1
f 353/5/1 354/7/1 355/8/1 356/6/1
f 357/7/1 358/9/1 359/10/1 360/8/1
f 361/1/1 362/2/1 363/3/1 364/4/1
f 365/2/1 366/5/1 367/6/1 368/3/1
f 369/5/1 370/7/1 371/8/1 372/6/1
f 373/7/1 374/9/1 375/10/1 376/8/1
f 377/1/1 378/2/1 379/3/1 380/4/1
f 381/2/1 382/5/1 383/6/1 384/3/1
f 385/5/1 386/7/1 387/8/1 388/6/1
f 389/7/1 390/9/1 391/10/1 392/8/1
f 393/1/1 394/2/1 395/3/1 396/4/1
f 397/2/1 398/5/1 399/6/1 400/3/1
f 401/5/1 402/7/1 403/8/1 404/6/1
f 405/7/1 406/9/1 407/10/1 408/8/1
f 409/1/1 410/2/1 411/3/1 412/4/1
f 413/2/1 414/5/1 415/6/1 416/3/1
f 417/1/1 418/2/1 419/3/1 420/4/1
f 421/2/1 422/5/1 423/6/1 424/3/1
f 425/5/1 426/7/1 427/8/1 428/6/1
f 429/7/1 430/9/1 431/10/1 432/8/1

