# Tiled2Unity generated file. Do not modify by hand.
# Wavefront file for 'Stage05_mesh_0001.obj'

# Vertices (Count = 440)
v 0 -48 0
v -48 -48 0
v -48 0 0
v 0 0 0
v -48 -48 0
v -96 -48 0
v -96 0 0
v -48 0 0
v -96 -48 0
v -144 -48 0
v -144 0 0
v -96 0 0
v -144 -48 0
v -192 -48 0
v -192 0 0
v -144 0 0
v -192 -48 0
v -240 -48 0
v -240 0 0
v -192 0 0
v -240 -48 0
v -288 -48 0
v -288 0 0
v -240 0 0
v -288 -48 0
v -336 -48 0
v -336 0 0
v -288 0 0
v -336 -48 0
v -384 -48 0
v -384 0 0
v -336 0 0
v -384 -48 0
v -432 -48 0
v -432 0 0
v -384 0 0
v -432 -48 0
v -480 -48 0
v -480 0 0
v -432 0 0
v -480 -48 0
v -528 -48 0
v -528 0 0
v -480 0 0
v -528 -48 0
v -576 -48 0
v -576 0 0
v -528 0 0
v -576 -48 0
v -624 -48 0
v -624 0 0
v -576 0 0
v -624 -48 0
v -672 -48 0
v -672 0 0
v -624 0 0
v -672 -48 0
v -720 -48 0
v -720 0 0
v -672 0 0
v -720 -48 0
v -768 -48 0
v -768 0 0
v -720 0 0
v -768 -48 0
v -816 -48 0
v -816 0 0
v -768 0 0
v -816 -48 0
v -864 -48 0
v -864 0 0
v -816 0 0
v -864 -48 0
v -912 -48 0
v -912 0 0
v -864 0 0
v -912 -48 0
v -960 -48 0
v -960 0 0
v -912 0 0
v -960 -48 0
v -1008 -48 0
v -1008 0 0
v -960 0 0
v -1008 -48 0
v -1056 -48 0
v -1056 0 0
v -1008 0 0
v -1056 -48 0
v -1104 -48 0
v -1104 0 0
v -1056 0 0
v -1104 -48 0
v -1152 -48 0
v -1152 0 0
v -1104 0 0
v -1152 -48 0
v -1200 -48 0
v -1200 0 0
v -1152 0 0
v -1200 -48 0
v -1248 -48 0
v -1248 0 0
v -1200 0 0
v -1248 -48 0
v -1296 -48 0
v -1296 0 0
v -1248 0 0
v -1296 -48 0
v -1344 -48 0
v -1344 0 0
v -1296 0 0
v -1344 -48 0
v -1392 -48 0
v -1392 0 0
v -1344 0 0
v 0 -96 0
v -48 -96 0
v -48 -48 0
v 0 -48 0
v -48 -96 0
v -96 -96 0
v -96 -48 0
v -48 -48 0
v -96 -96 0
v -144 -96 0
v -144 -48 0
v -96 -48 0
v -144 -96 0
v -192 -96 0
v -192 -48 0
v -144 -48 0
v -192 -96 0
v -240 -96 0
v -240 -48 0
v -192 -48 0
v -240 -96 0
v -288 -96 0
v -288 -48 0
v -240 -48 0
v -288 -96 0
v -336 -96 0
v -336 -48 0
v -288 -48 0
v -336 -96 0
v -384 -96 0
v -384 -48 0
v -336 -48 0
v -384 -96 0
v -432 -96 0
v -432 -48 0
v -384 -48 0
v -432 -96 0
v -480 -96 0
v -480 -48 0
v -432 -48 0
v -480 -96 0
v -528 -96 0
v -528 -48 0
v -480 -48 0
v -528 -96 0
v -576 -96 0
v -576 -48 0
v -528 -48 0
v -576 -96 0
v -624 -96 0
v -624 -48 0
v -576 -48 0
v -624 -96 0
v -672 -96 0
v -672 -48 0
v -624 -48 0
v -672 -96 0
v -720 -96 0
v -720 -48 0
v -672 -48 0
v -720 -96 0
v -768 -96 0
v -768 -48 0
v -720 -48 0
v -768 -96 0
v -816 -96 0
v -816 -48 0
v -768 -48 0
v -816 -96 0
v -864 -96 0
v -864 -48 0
v -816 -48 0
v -864 -96 0
v -912 -96 0
v -912 -48 0
v -864 -48 0
v -912 -96 0
v -960 -96 0
v -960 -48 0
v -912 -48 0
v -960 -96 0
v -1008 -96 0
v -1008 -48 0
v -960 -48 0
v -1008 -96 0
v -1056 -96 0
v -1056 -48 0
v -1008 -48 0
v -1056 -96 0
v -1104 -96 0
v -1104 -48 0
v -1056 -48 0
v -1104 -96 0
v -1152 -96 0
v -1152 -48 0
v -1104 -48 0
v -1152 -96 0
v -1200 -96 0
v -1200 -48 0
v -1152 -48 0
v -1200 -96 0
v -1248 -96 0
v -1248 -48 0
v -1200 -48 0
v -1344 -96 0
v -1392 -96 0
v -1392 -48 0
v -1344 -48 0
v 0 -144 0
v -48 -144 0
v -48 -96 0
v 0 -96 0
v -48 -144 0
v -96 -144 0
v -96 -96 0
v -48 -96 0
v -96 -144 0
v -144 -144 0
v -144 -96 0
v -96 -96 0
v -144 -144 0
v -192 -144 0
v -192 -96 0
v -144 -96 0
v -192 -144 0
v -240 -144 0
v -240 -96 0
v -192 -96 0
v -240 -144 0
v -288 -144 0
v -288 -96 0
v -240 -96 0
v -288 -144 0
v -336 -144 0
v -336 -96 0
v -288 -96 0
v -336 -144 0
v -384 -144 0
v -384 -96 0
v -336 -96 0
v -384 -144 0
v -432 -144 0
v -432 -96 0
v -384 -96 0
v -432 -144 0
v -480 -144 0
v -480 -96 0
v -432 -96 0
v -480 -144 0
v -528 -144 0
v -528 -96 0
v -480 -96 0
v -528 -144 0
v -576 -144 0
v -576 -96 0
v -528 -96 0
v -576 -144 0
v -624 -144 0
v -624 -96 0
v -576 -96 0
v -624 -144 0
v -672 -144 0
v -672 -96 0
v -624 -96 0
v -672 -144 0
v -720 -144 0
v -720 -96 0
v -672 -96 0
v -720 -144 0
v -768 -144 0
v -768 -96 0
v -720 -96 0
v -768 -144 0
v -816 -144 0
v -816 -96 0
v -768 -96 0
v -816 -144 0
v -864 -144 0
v -864 -96 0
v -816 -96 0
v -864 -144 0
v -912 -144 0
v -912 -96 0
v -864 -96 0
v -912 -144 0
v -960 -144 0
v -960 -96 0
v -912 -96 0
v -960 -144 0
v -1008 -144 0
v -1008 -96 0
v -960 -96 0
v -1008 -144 0
v -1056 -144 0
v -1056 -96 0
v -1008 -96 0
v -1056 -144 0
v -1104 -144 0
v -1104 -96 0
v -1056 -96 0
v -1104 -144 0
v -1152 -144 0
v -1152 -96 0
v -1104 -96 0
v -1152 -144 0
v -1200 -144 0
v -1200 -96 0
v -1152 -96 0
v -1200 -144 0
v -1248 -144 0
v -1248 -96 0
v -1200 -96 0
v -1344 -144 0
v -1392 -144 0
v -1392 -96 0
v -1344 -96 0
v 0 -192 0
v -48 -192 0
v -48 -144 0
v 0 -144 0
v -48 -192 0
v -96 -192 0
v -96 -144 0
v -48 -144 0
v -96 -192 0
v -144 -192 0
v -144 -144 0
v -96 -144 0
v -144 -192 0
v -192 -192 0
v -192 -144 0
v -144 -144 0
v -192 -192 0
v -240 -192 0
v -240 -144 0
v -192 -144 0
v -240 -192 0
v -288 -192 0
v -288 -144 0
v -240 -144 0
v -288 -192 0
v -336 -192 0
v -336 -144 0
v -288 -144 0
v -336 -192 0
v -384 -192 0
v -384 -144 0
v -336 -144 0
v -384 -192 0
v -432 -192 0
v -432 -144 0
v -384 -144 0
v -432 -192 0
v -480 -192 0
v -480 -144 0
v -432 -144 0
v -480 -192 0
v -528 -192 0
v -528 -144 0
v -480 -144 0
v -528 -192 0
v -576 -192 0
v -576 -144 0
v -528 -144 0
v -576 -192 0
v -624 -192 0
v -624 -144 0
v -576 -144 0
v -624 -192 0
v -672 -192 0
v -672 -144 0
v -624 -144 0
v -672 -192 0
v -720 -192 0
v -720 -144 0
v -672 -144 0
v -720 -192 0
v -768 -192 0
v -768 -144 0
v -720 -144 0
v -768 -192 0
v -816 -192 0
v -816 -144 0
v -768 -144 0
v -816 -192 0
v -864 -192 0
v -864 -144 0
v -816 -144 0
v -864 -192 0
v -912 -192 0
v -912 -144 0
v -864 -144 0
v -912 -192 0
v -960 -192 0
v -960 -144 0
v -912 -144 0
v -960 -192 0
v -1008 -192 0
v -1008 -144 0
v -960 -144 0
v -1008 -192 0
v -1056 -192 0
v -1056 -144 0
v -1008 -144 0
v -1056 -192 0
v -1104 -192 0
v -1104 -144 0
v -1056 -144 0
v -1104 -192 0
v -1152 -192 0
v -1152 -144 0
v -1104 -144 0
v -1152 -192 0
v -1200 -192 0
v -1200 -144 0
v -1152 -144 0
v -1200 -192 0
v -1248 -192 0
v -1248 -144 0
v -1200 -144 0
v -1344 -192 0
v -1392 -192 0
v -1392 -144 0
v -1344 -144 0

# Texture cooridinates (Count = 37)
vt 0 0.75
vt 0.125 0.75
vt 0.125 1
vt 0 1
vt 0.25 0.75
vt 0.25 1
vt 0.375 0.75
vt 0.375 1
vt 0.5 0.75
vt 0.5 1
vt 0.625 0.75
vt 0.625 1
vt 0.75 0.75
vt 0.75 1
vt 0.875 0.75
vt 0.875 1
vt 0 0.5
vt 0.125 0.5
vt 0.25 0.5
vt 0.375 0.5
vt 0.5 0.5
vt 0.75 0.5
vt 0.875 0.5
vt 0 0.25
vt 0.125 0.25
vt 0.25 0.25
vt 0.375 0.25
vt 0.5 0.25
vt 0.75 0.25
vt 0.875 0.25
vt 0 0
vt 0.125 0
vt 0.25 0
vt 0.375 0
vt 0.5 0
vt 0.75 0
vt 0.875 0

# Normal
vn 0 0 -1

# Mesh description
g Stage05_mesh_0001

# Faces
f 1/1/1 2/2/1 3/3/1 4/4/1
f 5/1/1 6/2/1 7/3/1 8/4/1
f 9/1/1 10/2/1 11/3/1 12/4/1
f 13/1/1 14/2/1 15/3/1 16/4/1
f 17/1/1 18/2/1 19/3/1 20/4/1
f 21/1/1 22/2/1 23/3/1 24/4/1
f 25/1/1 26/2/1 27/3/1 28/4/1
f 29/1/1 30/2/1 31/3/1 32/4/1
f 33/1/1 34/2/1 35/3/1 36/4/1
f 37/1/1 38/2/1 39/3/1 40/4/1
f 41/1/1 42/2/1 43/3/1 44/4/1
f 45/1/1 46/2/1 47/3/1 48/4/1
f 49/1/1 50/2/1 51/3/1 52/4/1
f 53/1/1 54/2/1 55/3/1 56/4/1
f 57/1/1 58/2/1 59/3/1 60/4/1
f 61/1/1 62/2/1 63/3/1 64/4/1
f 65/1/1 66/2/1 67/3/1 68/4/1
f 69/1/1 70/2/1 71/3/1 72/4/1
f 73/1/1 74/2/1 75/3/1 76/4/1
f 77/1/1 78/2/1 79/3/1 80/4/1
f 81/1/1 82/2/1 83/3/1 84/4/1
f 85/1/1 86/2/1 87/3/1 88/4/1
f 89/1/1 90/2/1 91/3/1 92/4/1
f 93/2/1 94/5/1 95/6/1 96/3/1
f 97/5/1 98/7/1 99/8/1 100/6/1
f 101/7/1 102/9/1 103/10/1 104/8/1
f 105/9/1 106/11/1 107/12/1 108/10/1
f 109/11/1 110/13/1 111/14/1 112/12/1
f 113/13/1 114/15/1 115/16/1 116/14/1
f 117/17/1 118/18/1 119/2/1 120/1/1
f 121/17/1 122/18/1 123/2/1 124/1/1
f 125/17/1 126/18/1 127/2/1 128/1/1
f 129/17/1 130/18/1 131/2/1 132/1/1
f 133/17/1 134/18/1 135/2/1 136/1/1
f 137/17/1 138/18/1 139/2/1 140/1/1
f 141/17/1 142/18/1 143/2/1 144/1/1
f 145/17/1 146/18/1 147/2/1 148/1/1
f 149/17/1 150/18/1 151/2/1 152/1/1
f 153/17/1 154/18/1 155/2/1 156/1/1
f 157/17/1 158/18/1 159/2/1 160/1/1
f 161/17/1 162/18/1 163/2/1 164/1/1
f 165/17/1 166/18/1 167/2/1 168/1/1
f 169/17/1 170/18/1 171/2/1 172/1/1
f 173/17/1 174/18/1 175/2/1 176/1/1
f 177/17/1 178/18/1 179/2/1 180/1/1
f 181/17/1 182/18/1 183/2/1 184/1/1
f 185/17/1 186/18/1 187/2/1 188/1/1
f 189/17/1 190/18/1 191/2/1 192/1/1
f 193/17/1 194/18/1 195/2/1 196/1/1
f 197/17/1 198/18/1 199/2/1 200/1/1
f 201/17/1 202/18/1 203/2/1 204/1/1
f 205/17/1 206/18/1 207/2/1 208/1/1
f 209/18/1 210/19/1 211/5/1 212/2/1
f 213/19/1 214/20/1 215/7/1 216/5/1
f 217/20/1 218/21/1 219/9/1 220/7/1
f 221/22/1 222/23/1 223/15/1 224/13/1
f 225/24/1 226/25/1 227/18/1 228/17/1
f 229/24/1 230/25/1 231/18/1 232/17/1
f 233/24/1 234/25/1 235/18/1 236/17/1
f 237/24/1 238/25/1 239/18/1 240/17/1
f 241/24/1 242/25/1 243/18/1 244/17/1
f 245/24/1 246/25/1 247/18/1 248/17/1
f 249/24/1 250/25/1 251/18/1 252/17/1
f 253/24/1 254/25/1 255/18/1 256/17/1
f 257/24/1 258/25/1 259/18/1 260/17/1
f 261/24/1 262/25/1 263/18/1 264/17/1
f 265/24/1 266/25/1 267/18/1 268/17/1
f 269/24/1 270/25/1 271/18/1 272/17/1
f 273/24/1 274/25/1 275/18/1 276/17/1
f 277/24/1 278/25/1 279/18/1 280/17/1
f 281/24/1 282/25/1 283/18/1 284/17/1
f 285/24/1 286/25/1 287/18/1 288/17/1
f 289/24/1 290/25/1 291/18/1 292/17/1
f 293/24/1 294/25/1 295/18/1 296/17/1
f 297/24/1 298/25/1 299/18/1 300/17/1
f 301/24/1 302/25/1 303/18/1 304/17/1
f 305/24/1 306/25/1 307/18/1 308/17/1
f 309/24/1 310/25/1 311/18/1 312/17/1
f 313/24/1 314/25/1 315/18/1 316/17/1
f 317/25/1 318/26/1 319/19/1 320/18/1
f 321/26/1 322/27/1 323/20/1 324/19/1
f 325/27/1 326/28/1 327/21/1 328/20/1
f 329/29/1 330/30/1 331/23/1 332/22/1
f 333/31/1 334/32/1 335/25/1 336/24/1
f 337/31/1 338/32/1 339/25/1 340/24/1
f 341/31/1 342/32/1 343/25/1 344/24/1
f 345/31/1 346/32/1 347/25/1 348/24/1
f 349/31/1 350/32/1 351/25/1 352/24/1
f 353/31/1 354/32/1 355/25/1 356/24/1
f 357/31/1 358/32/1 359/25/1 360/24/1
f 361/31/1 362/32/1 363/25/1 364/24/1
f 365/31/1 366/32/1 367/25/1 368/24/1
f 369/31/1 370/32/1 371/25/1 372/24/1
f 373/31/1 374/32/1 375/25/1 376/24/1
f 377/31/1 378/32/1 379/25/1 380/24/1
f 381/31/1 382/32/1 383/25/1 384/24/1
f 385/31/1 386/32/1 387/25/1 388/24/1
f 389/31/1 390/32/1 391/25/1 392/24/1
f 393/31/1 394/32/1 395/25/1 396/24/1
f 397/31/1 398/32/1 399/25/1 400/24/1
f 401/31/1 402/32/1 403/25/1 404/24/1
f 405/31/1 406/32/1 407/25/1 408/24/1
f 409/31/1 410/32/1 411/25/1 412/24/1
f 413/31/1 414/32/1 415/25/1 416/24/1
f 417/31/1 418/32/1 419/25/1 420/24/1
f 421/31/1 422/32/1 423/25/1 424/24/1
f 425/32/1 426/33/1 427/26/1 428/25/1
f 429/33/1 430/34/1 431/27/1 432/26/1
f 433/34/1 434/35/1 435/28/1 436/27/1
f 437/36/1 438/37/1 439/30/1 440/29/1

